<!-- Generator: Adobe Illustrator 23.0.0, SVG Export Plug-In  -->
<svg version="1.1" xmlns="http://www.w3.org/2000/svg" xmlns:xlink="http://www.w3.org/1999/xlink" x="0px" y="0px" width="49px"
	 height="40px" viewBox="0 0 49 40" style="enable-background:new 0 0 49 40;" xml:space="preserve">
<style type="text/css">
	.st0{fill:url(#SVGID_1_);}
	.st1{fill:#FFE9CC;}
	.st2{fill:#AC6C23;}
	.st3{fill:url(#SVGID_2_);}
	.st4{fill:url(#SVGID_3_);}
	.st5{fill:#FFC515;}
	.st6{fill:#FF941A;}
	.st7{fill:#B02E07;}
	.st8{fill:#4D3617;}
	.st9{fill:url(#SVGID_4_);}
	.st10{fill:url(#SVGID_5_);}
	.st11{fill:url(#SVGID_6_);}
</style>
<defs>
</defs>
<g>
	<linearGradient id="SVGID_1_" gradientUnits="userSpaceOnUse" x1="24" y1="38.00193" x2="24" y2="0.99903">
		<stop  offset="0" style="stop-color:#AC6C23"/>
		<stop  offset="0.44474" style="stop-color:#CC9957"/>
		<stop  offset="0.8067" style="stop-color:#E3B77A"/>
		<stop  offset="1" style="stop-color:#EBC388"/>
	</linearGradient>
	<path class="st0" d="M42.61053,0.99903C44.44617,0.99903,47,2.50929,47,3.99613v31.0087c0,1.65258-1.34576,2.9971-3,2.9971H4
		c-1.65424,0-3-1.34452-3-2.9971V3.48887c0-1.83776,1.61609-2.48984,3-2.48984H42.61053"/>
	<g>
		<path class="st1" d="M2.44641,37.55595C2.16876,37.10174,2,36.57387,2,36.00386V4.48791c0-1.83776,1.61609-2.48984,3-2.48984
			h38.61053c0.99017,0,2.18652,0.44135,3.08105,1.07952c-0.73041-1.13172-2.62823-2.07856-4.08105-2.07856H5
			c-2.20508,0-4,1.28587-4,3.48887v30.51693C1,36.0874,1.58301,37.02918,2.44641,37.55595z"/>
		<path class="st1" d="M47.42084,2.38222C47.78009,2.87643,48,3.42168,48,3.99613v0.99903v30.00966v0.99903
			c0,1.65258-1.34576,2.9971-3,2.9971h-1H5H4c-0.8476,0-1.63135-0.26891-2.27911-0.72019C2.4444,39.31719,3.64252,40,5,40h40
			c2.20508,0,4-1.79306,4-3.99614V4.99517C49,3.99607,48.34235,3.08369,47.42084,2.38222z"/>
	</g>
	<path class="st2" d="M42.61053,0.99903C44.44617,0.99903,47,2.50929,47,3.99613v31.0087c0,1.65258-1.34576,2.9971-3,2.9971H4
		c-1.65424,0-3-1.34452-3-2.9971V3.48887c0-1.83776,1.61609-2.48984,3-2.48984H42.61053 M42.61053,0H4
		C1.79492,0,0,1.28587,0,3.48887v31.51596c0,2.20307,1.79492,3.99613,4,3.99613h40c2.20508,0,4-1.79306,4-3.99613V3.99613
		C48,1.79313,44.81561,0,42.61053,0L42.61053,0z"/>
</g>
<g id="XMLID_2_">
	<g>

			<linearGradient id="SVGID_2_" gradientUnits="userSpaceOnUse" x1="940.68616" y1="-2553.16064" x2="940.68616" y2="-2524.82324" gradientTransform="matrix(-0.01575 0.99987 0.99987 0.01575 2576.05127 -879.82379)">
			<stop  offset="0" style="stop-color:#E84600"/>
			<stop  offset="0.32276" style="stop-color:#E94902"/>
			<stop  offset="0.5739" style="stop-color:#EE5307"/>
			<stop  offset="0.80009" style="stop-color:#F5630F"/>
			<stop  offset="1" style="stop-color:#FF791A"/>
		</linearGradient>
		<path class="st3" d="M21.71324,27.1218c0.28098-0.25436,0.08409-3.84815,0.20724-6.49512c0,0,13.37128,1.96967,12.99005,14.11451
			c-0.08776,0.67979,0.30468,1.36236,0.72767,0.0434c5.41186-16.86553-13.22311-23.07706-13.22311-23.07706
			c-0.04965-2.54999-0.16151-5.22427-0.44508-5.45434C20.47899,5.04522,8.39668,15.15545,8.46569,17.47285
			C8.54681,20.17332,20.62146,28.1095,21.71324,27.1218z"/>

			<linearGradient id="SVGID_3_" gradientUnits="userSpaceOnUse" x1="890.56262" y1="-2541.11157" x2="890.56262" y2="-2528.20557" gradientTransform="matrix(0.01726 0.99986 0.99986 -0.01726 2535.03271 -917.60669)">
			<stop  offset="0" style="stop-color:#FFAF40"/>
			<stop  offset="1" style="stop-color:#FF791A;stop-opacity:0"/>
		</linearGradient>
		<path class="st4" d="M19.79585,24.39933c2.70665,1.43238,2.73736-8.76589,2.74567-8.3353
			c-0.01514-0.90196-0.30037-9.0043-3.42335-7.3766c-3.28038,1.7137-9.53313,7.91296-9.4585,8.87025
			C9.74016,18.60644,16.18515,22.49158,19.79585,24.39933z"/>
		<path class="st5" d="M17.68902,9.94861c0.04404,0.04492-1.54387,1.5729-3.39068,3.57397
			c-2.29117,2.47624-3.01786,2.96172-3.32078,2.64228c-0.30816-0.29557,0.98558-1.82836,2.87627-3.50302
			C15.76865,10.97196,17.63982,9.90556,17.68902,9.94861z"/>
		<path class="st6" d="M34.53844,22.3257c1.75347,2.80376,1.0913,6.32356,1.0913,6.32356s-0.87663-3.72947-2.85105-6.70343
			c-1.9509-2.938-5.38828-5.97397-5.38828-5.97397S32.07147,18.38597,34.53844,22.3257z"/>
		<path class="st7" d="M22.31851,21.20102c-0.12699,2.64409-0.1904,5.71861-0.45862,5.98688
			c-0.12168,0.11615-0.43618,0.02084-0.94286-0.2094c1.01163,0.00694,0.4653-7.08612,0.4653-7.08612
			s13.51934,1.82841,14.30461,12.79375c2.51752-15.13994-14.15603-19.7442-14.15603-19.7442s0.03672-5.44074-0.21113-5.98203
			c-0.23565-0.52996-0.95614-0.44009-1.4461-0.17475c1.09787-0.58204,1.82432-1.18023,2.14301-0.52054
			c0.15679,0.32438,0.38361,2.90079,0.42653,5.45414c0,0,18.66051,6.03795,13.45452,22.51853
			c-0.66777,2.11333-1.12317,1.96622-0.99109,0.00824C35.59549,24.12811,22.31851,21.20102,22.31851,21.20102z"/>
	</g>
	<g>
		<path class="st8" d="M21.59514,6.10527c0.12207,0,0.21716,0.03009,0.28125,0.09319
			c0.21423,0.28866,0.52417,2.96678,0.56653,5.51964c7.34399,3.02744,17.02661,10.36169,13.15881,22.67029
			c-0.24207,0.77231-0.3584,1.27193-0.41028,1.27193c-0.05298,0-0.03918-0.51897-0.02344-1.79686
			c0.12109-9.69104-11.61365-12.37801-12.85461-12.70706c-0.05273,0.25913-0.22302,5.5715-0.68762,5.86466
			c-0.05273,0.03338-0.12646,0.04938-0.21973,0.04938c-1.98352,0-12.672-7.26993-12.89685-9.69429
			C8.36443,15.80545,19.39873,6.10527,21.59514,6.10527 M21.59514,5.60527c-2.02319,0-9.1416,6.11531-11.93274,9.1756
			c-1.51624,1.66239-1.68555,2.26801-1.65112,2.64118c0.25854,2.78627,11.30457,10.1484,13.39478,10.1484
			c0.19006,0,0.35388-0.04265,0.48694-0.12678c0.39221-0.24747,0.60547-0.86366,0.86389-5.42723
			c0.00452-0.07885,0.00867-0.15332,0.01257-0.22269c3.93408,1.07909,11.99621,4.24872,11.89856,12.06347l-0.00537,0.41965
			c-0.01965,1.51393-0.02002,1.54285,0.16614,1.73146c0.09399,0.09518,0.22888,0.15199,0.36267,0.15199
			c0.40808,0,0.49695-0.30454,0.67395-0.91126c0.05676-0.19471,0.12695-0.4353,0.2135-0.71114
			c1.77747-5.6567,0.95178-10.79371-2.45435-15.26797c-3.23901-4.25473-7.96716-6.7309-10.68909-7.88767
			c-0.04932-1.79039-0.27612-4.9679-0.65759-5.4818c-0.01526-0.02065-0.03223-0.0401-0.05054-0.05815
			C22.11761,5.73418,21.91887,5.60527,21.59514,5.60527L21.59514,5.60527z"/>
	</g>
</g>
</svg>
