<?xml version="1.0" encoding="utf-8"?>
<!-- Generator: Adobe Illustrator 18.0.0, SVG Export Plug-In . SVG Version: 6.00 Build 0)  -->
<!DOCTYPE svg PUBLIC "-//W3C//DTD SVG 1.1//EN" "http://www.w3.org/Graphics/SVG/1.1/DTD/svg11.dtd">
<svg version="1.1" id="subscription" xmlns="http://www.w3.org/2000/svg" xmlns:xlink="http://www.w3.org/1999/xlink" x="0px"
	 y="0px" viewBox="0 0 62 64.5" enable-background="new 0 0 62 64.5" xml:space="preserve">
<symbol  id="high_x5F_lvl_x5F_contracts_x5F_big" viewBox="-29.5 -28 59.1 56">
	<g>
		<g>
			<g>
				<polygon fill="#6E5630" points="-12,1.2 -12,24.5 -15.2,24.8 -14.7,2.2 				"/>
				<polygon fill="#524324" points="-13.4,0.3 -13.4,23.7 -15.1,23.8 -14.7,-0.2 				"/>
				<g>
					<polygon fill="#8A6C38" points="-22.1,-6.8 -22.7,21.2 -21.5,20.6 -20.7,-6.5 					"/>
				</g>
				<g>
					<polygon fill="#6E5630" points="-23.2,-7.3 -23.8,19.6 -22.6,20.1 -21.9,-7.6 					"/>
				</g>
				<path fill="#EB6742" d="M23.3,18.3l-35.7,8.6L-24.9,17l-0.8-0.9L9.2,6.9C9.2,6.9,14.9,10.4,23.3,18.3z"/>
				<g>
					<polygon fill="#BA9251" points="20.9,-2.5 21.4,-6.8 2.3,-19.8 2.2,-15.5 					"/>
					<polygon fill="#6E5630" points="2.1,-15.6 -29.2,-7.9 -29,-11.6 2.2,-19.4 					"/>
					<path fill="#6E3F06" d="M4.9,1.3c0,0-6.7,2-8.2,2.6C-5.5,4.6-6.8,3.4-11.5,4c-2.4,0.3-2.8-2-3.9-1.8c-1.2,0.3-1-3.4-2.7-3.2
						c-1.9,0.2-2.4-2.1-2.4-2.1l12.8-4.1L4.9,1.3z"/>
					<path fill="#5C1717" d="M9,0c0,0-2.1,1.6-4.3,2C2,2.6-0.6,1.9-0.8,2.2c-0.4,0.6-3-1.6-4.2-1.3c-1.2,0.3,0.2-3-1.6-2.7
						c-1.7,0.4-2.5-2.6-2.5-2.6l5.2-4.4L9,0z"/>
					<path fill="#264D13" d="M21.4-1.8c0,0-4-0.3-5.1,1c-1.5,1.7-7.4,1.4-7.1,1.3c0.4-0.1-0.4,0-1.5,0.4C3.5,2.4,4.9-2.8,4-2.4
						C2.3-1.6-0.8-6.1-0.8-6.1l8.8-5L21.4-1.8z"/>
					<path fill="#19370C" d="M21.2-1.9c0,0-3.5,0-4.3,0.5c-3.6,2.8-6.2,1.1-6,1.1c0.2,0,1.3-1.7,0.6-1.6c-0.2,0-3.8-0.8-3.1-1.2
						c0.9-0.5-4-1.8-4-1.8s2.8-2.3,6.7-0.4c2.9,1.4,1.9-2.3,1.9-2.3L21.2-1.9z"/>
				</g>
				<g>
					<path fill="#3D3116" d="M-14.1-5.7c0,0-2.5,3.6-6.3,2.8c-2.2-0.5-7.8-0.4-8-0.9c-0.1-0.2-0.5-1.6-0.4-2.7C-28.7-7.3-29-8-29-8
						l12.3-2.9l-0.4,2.1L-14.1-5.7z"/>
					<path fill="#F0771A" d="M-15.3-4.7c0,0-0.7,4-4.5,3.2C-22-2-21.5,1-26.1-1.8C-26.8-2.2-26.8-2-27-2.4c-0.1-0.3,1.1,0-0.5-0.3
						c-3.3-0.7-0.1-1.7-0.2-2.1c-0.5-1.8,6.5-1.1,6.5-1.1l3.2,0.3L-15.3-4.7z"/>
					<path fill="#C34201" d="M-24.5-1.9c0-0.4,0.8-0.8,1.9-0.8c1,0,1.9,0.3,1.9,0.8c0,0.4-0.8,0.8-1.9,0.8
						C-23.6-1.2-24.5-1.5-24.5-1.9z"/>
					<path fill="#CB5A0B" d="M-21.6-3.8c0-0.5,0.9-0.8,2.1-0.8c1.2,0,2.1,0.4,2.1,0.8c0,0.5-0.9,0.8-2.1,0.8
						C-20.6-2.9-21.6-3.3-21.6-3.8z"/>
					<path fill="#FBCB2C" d="M-27.6-3.7C-28-4-28.7-3.6-25.7-4.5c1-0.3,1.9,0.3,1.9,0.8c0,0.4-0.8,0.8-1.9,0.8
						C-26.8-3-27.2-3.5-27.6-3.7z"/>
					<path fill="#8F7234" d="M-28.4-5c0,0-0.5-1.2,2.5-2.2c3-1,8.6,1.1,8.4,1.1c-0.2,0-5.3-0.7-7.9-0.5C-26.9-6.6-28.4-5-28.4-5z"/>
				</g>
				<g>
					<path fill="#5C4921" d="M-2.9-8.6c0,0-2.5,3.6-6.3,2.8c-2.2-0.5-7.8-0.4-8-0.9c-0.1-0.2-0.5-1.6-0.4-2.7
						c0.1-0.9,0.1-1.7,0.1-1.7l8.6-1.8l3.2-0.7L-2.9-8.6z"/>
					<path fill="#43BF6A" d="M-4-7.7c0,0-0.7,4-4.5,3.2C-10.8-5-10.3-2-14.9-4.8c-0.7-0.4-0.7-0.2-0.9-0.6c-0.1-0.3,1.1,0-0.5-0.3
						c-3.3-0.7-0.1-1.7-0.2-2.1c-0.5-1.8,6.5-1.1,6.5-1.1l3.2,0.3L-4-7.7z"/>
					<path fill="#366A05" d="M-15-7.2c0-0.4,0.8-0.8,1.9-0.8s1.9,0.3,1.9,0.8c0,0.4-0.8,0.8-1.9,0.8S-15-6.8-15-7.2z"/>
					<path fill="#72ECB4" d="M-12-5.6c0-0.5,0.9-0.8,2.1-0.8c1.2,0,2.1,0.4,2.1,0.8c0,0.5-0.9,0.8-2.1,0.8C-11.1-4.7-12-5.1-12-5.6z
						"/>
					<path fill="#D1A74B" d="M-17.1-8c0,0-0.5-1.2,2.5-2.2c3-1,8.6,1.1,8.4,1.1c-0.2,0-5.3-0.7-7.9-0.5C-15.6-9.5-17.1-8-17.1-8z"/>
				</g>
				<g>
					<path fill="#A3813A" d="M8.2-11c0,0-2.2,3.4-6,2.5c-2.2-0.5-7.8-0.4-8-0.9c-0.1-0.2-0.5-1.6-0.4-2.7c0.1-0.9,0-1.3,0-1.3
						l8.5-2.1l2,1.5L8.2-11z"/>
					<path fill="#BF8143" d="M7.6-10.3c0,0-0.7,4-4.5,3.2C0.8-7.6,1.3-4.6-3.3-7.4C-3.9-7.8-3.9-7.5-4.1-8c-0.1-0.3,1.1,0-0.5-0.3
						c-3.3-0.7-0.1-1.7-0.2-2.1c-0.5-1.8,6.5-1.1,6.5-1.1l3.2,0.3L7.6-10.3z"/>
					<path fill="#9B4803" d="M-1.8-7.5c0-0.4,0.8-0.8,1.9-0.8s1.9,0.3,1.9,0.8c0,0.4-0.8,0.8-1.9,0.8S-1.8-7.1-1.8-7.5z"/>
					<path fill="#A2611D" d="M-0.5-10.2c0-0.5,0.9-0.8,2.1-0.8c1.2,0,2.1,0.4,2.1,0.8c0,0.5-0.9,0.8-2.1,0.8
						C0.4-9.4-0.5-9.8-0.5-10.2z"/>
					<path fill="#ECD972" d="M-4.9-9.3c0-0.4,0.8-0.8,1.9-0.8c1,0,1.9,0.3,1.9,0.8c0,0.4-0.8,0.8-1.9,0.8C-4.1-8.6-4.9-8.9-4.9-9.3z
						"/>
					<path fill="#ECD972" d="M2.3-8.8c0-0.5,0.9-0.8,2.1-0.8c1.2,0,2.1,0.4,2.1,0.8C6.5-8.4,5.6-8,4.4-8C3.3-8,2.3-8.4,2.3-8.8z"/>
					<path fill="#D1A74B" d="M-5.7-10.6c0,0-0.5-1.2,2.5-2.2c3-1,8.6,1.1,8.4,1.1c-0.2,0-5.3-0.7-7.9-0.5
						C-4.2-12.1-5.7-10.6-5.7-10.6z"/>
				</g>
				<g>
					<path fill="#6E5630" d="M10.9,7.6L11-9.2L9.8-10c0,0,0.1,7.6-0.4,16.6C9.9,6.8,10.4,7.2,10.9,7.6z"/>
					<path fill="#8A6C38" d="M10.7,7.4c0.5,0.1,1.1,0.8,1.5,1C12.3,2.6,12.7-8,12.7-8L11-9C11-9,10.8,0.1,10.7,7.4z"/>
				</g>
				<g>
					<polygon fill="#8A6C38" points="22.2,-18.5 21.9,16.1 23.2,16.8 23.6,-18.2 					"/>
					<path fill="#6E5630" d="M20.5,14.9l1.4,1.1c0,0,0.6-29.3,0.3-34.4l-1.3,0.5L20.5,14.9z"/>
				</g>
				<path fill="#CC370E" d="M-24.3,16.6L9.7,8L9.6,3.7c0,0-1.9-0.3-3.6,0.1C4.3,4.3,3.1,6,3.1,6L0.5,6.6c0,0-1.1-1.1-3.3-0.8
					c-2.3,0.3-2.6,1.9-2.7,2.5L-8,8.9C-8.4,8.5-9.6,7.7-11.4,8c-3,0.5-3.7,1.8-3.9,2.6l-2,0.5c-0.4-0.5-1.8-0.7-2.7-0.5
					c-3.8,0.9-4.2,2.4-4.2,2.4L-24.3,16.6z"/>
				<path fill="#F4EFCE" d="M16.5,20L3.8,9.9L2.7,6c0,0,0.3,0-1.9,1.1c0,2,0.2,3.4,0.2,3.4l12.2,10.3C13.2,20.8,14.5,20.5,16.5,20z"
					/>
				<path fill="#D9CAB2" d="M-5.3,12.2c0,0-1.9,0.4-2.5,0.7c0-0.5-0.1-2.7-0.1-3.7c0-0.3-0.4-1.5,1-1.7c1.2-0.2,1.5,1,1.5,1
					L-5.3,12.2z"/>
				<path fill="#D9CAB2" d="M-15.4,14.5c0,0-0.3-2.9-0.1-3.8c-0.4-0.3-0.6-1-1.5-0.9c-1.3,0.2-1.2,1.5-1.2,1.5v3.9L-15.4,14.5z"/>
				<path fill="#D9CAB2" d="M3.5,9.9L1,10.6c0,0-0.4-3.4-0.3-3.8C0.8,6.4,1,5.6,1.9,5.3C3.1,5,3.1,5.7,3.5,6.2
					C3.4,6.8,3.5,9.9,3.5,9.9z"/>
				<polygon fill="#F4EFCE" points="-5.3,12.2 7,22.2 4.2,22.9 -7.9,12.8 				"/>
				<path fill="#F4EFCE" d="M-15.3,14.5l12.1,10.1L-6,25.3c0,0-6-4.4-12.2-10C-16.5,14.7-15.3,14.5-15.3,14.5z"/>
				<path fill="#D9CAB2" d="M-24.3,16.8c0,0-0.1-2.8,0.1-3.7c-0.4-0.3-0.6-1-1.5-0.9c-1.3,0.2-1.2,1.5-1.2,1.5v3.9L-24.3,16.8z"/>
				<path fill="#F4EFCE" d="M-24.1,16.8L-12,26.8l-2.8,0.7c0,0-5.5-4.3-12.2-10C-25.4,17-24.1,16.8-24.1,16.8z"/>
				
					<linearGradient id="SVGID_1_" gradientUnits="userSpaceOnUse" x1="17107.2051" y1="21.7747" x2="17141.7695" y2="21.7747" gradientTransform="matrix(-1 0 0 1 17117.168 0)">
					<stop  offset="0" style="stop-color:#FFFFFF;stop-opacity:0.4"/>
					<stop  offset="1" style="stop-color:#FFFFFF;stop-opacity:0.4"/>
				</linearGradient>
				<path fill="url(#SVGID_1_)" d="M-14.9,27.5L10,21.4c0,0-7.8-4.6-19.2-5.3c-7.7-0.5-15.3,3.4-15.3,3.4L-14.9,27.5z"/>
				<path fill="#382912" d="M9.3-8.7L9.3-8.7C9.3-8.7,9.3-8.7,9.3-8.7C9.3-8.7,9.3-8.7,9.3-8.7z"/>
				<polygon fill="#8A281E" points="9.4,8.2 9.6,6.3 23.1,16.7 23.1,18.3 				"/>
				
					<linearGradient id="SVGID_2_" gradientUnits="userSpaceOnUse" x1="-136.6248" y1="11.1949" x2="-98.6042" y2="11.1949" gradientTransform="matrix(1 0 0 1 121.4111 0)">
					<stop  offset="0" style="stop-color:#FFFFFF;stop-opacity:0.4"/>
					<stop  offset="1" style="stop-color:#FFFFFF;stop-opacity:0.4"/>
				</linearGradient>
				<path fill="url(#SVGID_2_)" d="M22.8,18.3c0,0-13.8-8.4-14.7-8.5c-0.5,0-22.2,4.3-23.3,4.7C-14.8,14.3,8,8.1,8.1,8.1
					c0-0.3,1.5-4,1.5-4s-0.3,3.5-0.2,4C9.8,8.5,22.3,17.5,22.8,18.3z"/>
			</g>
			<g>
				<polygon fill="#826635" points="21.4,-6 2.3,-19.2 2.2,-23.7 21.4,-17.7 				"/>
				<polygon fill="#524324" points="2.3,-19.2 -28.9,-11.4 -28.9,-15.6 2.3,-23.5 				"/>
				<path fill="#C99D59" d="M21.5-11.7c-0.1,0-18.9-9.7-18.9-9.7l18.8,8.4L21.5-11.7z"/>
				<polygon fill="#FFCC5C" points="2.2,-15.4 -28.9,-8 2.2,-16.4 				"/>
				<polygon fill="#FFCC5C" points="2.2,-15.4 20.5,-2.5 2.2,-16.5 				"/>
			</g>
		</g>
		<g>
			<path fill="#4D3617" d="M-14.8,27.5L-14.8,27.5 M-14.8,27.5C-14.8,27.5-14.8,27.5-14.8,27.5C-14.8,27.5-14.8,27.5-14.8,27.5
				L-14.8,27.5 M-14.8,27.5C-14.8,27.5-14.8,27.5-14.8,27.5L-14.8,27.5C-14.8,27.5-14.8,27.5-14.8,27.5 M-14.8,27.5
				c1.3-0.3,37.7-8.9,38-9.1l0.4-36.5l-1.4-0.4l-1,0.7L2.6-23.6l-31.5,8L-29-7.9c0,0,0.3,0.9,0.2,1.4c-0.1,0.9,0.2,2,0.3,2.5
				C-29.1-3.5-27-2.5-27-2.4c0.2,0.4,0.2,0.2,0.9,0.6c1.1,0.7,2.2,1.1,2.9,1.2l-0.4,12.5c0,0-0.5,1.3-0.6,1.3c0,0,0,0,0-0.1
				c-0.4-0.3-0.3-0.8-1.1-0.9c0,0-0.1,0-0.1,0c-1.9,0-0.8,5.2-0.8,5.2c0,0,0.1,0,0,0C-24.7,18.8-15.1,27.2-14.8,27.5 M20.4-1.9
				c0.1,0,0.2,0,0.3,0l-0.2,16.5l-8.3-6.3c0.1-2.3,0.1-5.1,0.2-7.8c1.5-0.2,3.1-0.5,3.8-1.3c0-0.1,0.1-0.1,0.2-0.2
				c0.1-0.1,0.2-0.1,0.2-0.2C17.6-1.8,19.3-1.9,20.4-1.9 M-20.3-1.6c0.1,0,0.3,0,0.5,0.1c0,0,0,0,0.1,0c0.3,0.4,0.8,0.6,1.4,0.6
				c0.1,0,0.1,0,0.2,0c0,0,0.1,0,0.1,0c1.5,0,1.5,3.2,2.5,3.2c0,0,0.1,0,0.1,0c0.1,0,0.1,0,0.2,0c0.2,0,0.3,0.1,0.5,0.2l-0.1,7.4
				c-0.2,0.3-0.3,0.6-0.4,0.9l-0.2,0c0,0,0,0,0-0.1c-0.4-0.3-0.6-0.9-1.2-0.9c-0.1,0-0.1,0-0.2,0c-0.7,0.1-1,0.6-1.1,0.9
				c-0.4-0.1-0.8-0.2-1.3-0.2c-0.2,0-0.5,0-0.6,0.1c-0.5,0.1-0.9,0.2-1.2,0.3l0.3-12.5C-20.7-1.6-20.5-1.6-20.3-1.6 M-10.6,7.9
				c-0.2,0-0.5,0-0.8,0.1c-0.2,0-0.4,0.1-0.6,0.1l0-4.1c0.1,0,0.2,0,0.3,0c0.1,0,0.1,0,0.2,0c1.1-0.1,1.9-0.2,2.7-0.2
				c1.8,0,2.8,0.3,3.9,0.3c0.5,0,1-0.1,1.6-0.3c0.8-0.3,3.1-1,5-1.6c0.2,0,0.4,0,0.6,0c0.7,0,1.6,0,2.4-0.2c1.1-0.2,2.2-0.7,3.1-1.2
				c0.8-0.3,1.4-0.4,1.5-0.4c0,0,0,0-0.1,0c-0.1,0,0.1,0,0.5,0.1c0,1-0.1,2.1-0.1,3.1c-0.1,0-0.7-0.1-1.5-0.1C7.5,3.6,6.7,3.7,6,3.8
				c-1.4,0.4-2.4,1.6-2.7,2C3.1,5.5,2.9,5.2,2.4,5.2c-0.1,0-0.3,0-0.5,0.1c-0.8,0.2-1,0.8-1.1,1.3L0.5,6.6c0,0-0.5-0.9-2.1-0.9
				c-0.2,0-0.5,0-0.8,0.1c-2.3,0.3-3,1.2-3.2,2.1h0c-0.1,0-0.5-0.6-1.2-0.6c-0.1,0-0.2,0-0.3,0c-1.1,0.2-1.1,1-1,1.5l0,0.1
				C-8.4,8.5-9.3,7.9-10.6,7.9 M-14.8,28L-14.8,28c-0.1,0-0.1,0-0.1,0c-0.1,0-0.2-0.1-0.3-0.2c-1.1-1-9.9-8.7-11.3-9.9c0,0,0,0,0,0
				c-0.1-0.1-0.1-0.2-0.2-0.3l0,0c-0.1-0.7-0.8-4.1,0.2-5.3c0.3-0.3,0.6-0.5,1-0.5c0,0,0.1,0,0.1,0c0.6,0,0.9,0.2,1,0.5
				c0.1-0.1,0.1-0.3,0.2-0.4l0.4-12c-0.7-0.2-1.6-0.6-2.6-1.2c-0.2-0.1-0.3-0.2-0.4-0.2c-0.3-0.1-0.4-0.2-0.6-0.5
				c-0.1,0-0.1-0.1-0.2-0.2c-0.8-0.5-1.5-1-1.5-1.5c0-0.1,0-0.2,0-0.3c-0.1-0.5-0.4-1.6-0.3-2.5c0-0.3-0.1-0.9-0.2-1.2
				c0,0,0-0.1,0-0.1l0.2-7.7c0-0.2,0.2-0.4,0.4-0.5l31.5-8c0,0,0.1,0,0.1,0c0.1,0,0.1,0,0.1,0l18.4,5.8l0.8-0.6
				c0.1-0.1,0.2-0.1,0.3-0.1c0,0,0.1,0,0.1,0l1.4,0.4c0.2,0.1,0.4,0.3,0.4,0.5l-0.4,36.5c0,0.2-0.1,0.3-0.2,0.4
				c-0.1,0.1-0.4,0.2-38,9.2C-14.6,28-14.7,28-14.8,28L-14.8,28z M12.7,8.1l7.3,5.6l0.2-15c-1.5,0-2.6,0.2-3.3,0.6l0,0
				c-0.1,0-0.1,0.1-0.2,0.1c0,0-0.1,0.1-0.1,0.1c-0.6,0.7-1.9,1.2-3.7,1.4C12.8,3.8,12.7,6.2,12.7,8.1L12.7,8.1z M-20.4-1.1
				l-0.3,11.4c0.2-0.1,0.4-0.1,0.6-0.2c0.2-0.1,0.5-0.1,0.8-0.1c0.3,0,0.7,0,1,0.1c0.3-0.4,0.7-0.7,1.3-0.8c0.1,0,0.2,0,0.3,0
				c0.6,0,0.9,0.3,1.2,0.6c0-0.1,0.1-0.2,0.1-0.2l0.1-6.9c-0.1,0-0.2,0-0.2,0c-0.8,0-1.1-0.9-1.4-1.7c-0.3-0.9-0.6-1.5-1-1.5
				c0,0,0,0-0.1,0c-0.1,0-0.2,0-0.3,0c-0.6,0-1.2-0.2-1.6-0.7c-0.1,0-0.2,0-0.3,0C-20.3-1.1-20.3-1.1-20.4-1.1L-20.4-1.1z
				 M-10.6,7.4c0.9,0,1.6,0.2,2.1,0.5c0.2-0.6,0.7-1.1,1.4-1.2c0.1,0,0.2,0,0.3,0c0.4,0,0.8,0.2,1,0.3c0.5-0.9,1.6-1.5,3.3-1.7
				c0.3,0,0.6-0.1,0.8-0.1c1,0,1.7,0.3,2.1,0.6c0.2-0.4,0.5-0.8,1.3-1C2,4.8,2.2,4.7,2.4,4.7c0.4,0,0.7,0.1,0.9,0.3
				c0.5-0.6,1.4-1.4,2.6-1.7c0.6-0.2,1.4-0.2,2.2-0.2c0.4,0,0.7,0,1,0c0-0.7,0.1-1.4,0.1-2.1c0,0-0.1,0-0.1,0C8.8,1,8.4,1.1,7.9,1.3
				c-1.1,0.6-2.2,1-3.2,1.2C4,2.7,3.2,2.8,2.3,2.8c-0.2,0-0.4,0-0.6,0c-2.6,0.8-4.3,1.3-4.9,1.6c-0.6,0.2-1.1,0.3-1.7,0.3
				c-0.5,0-1-0.1-1.5-0.1c-0.7-0.1-1.4-0.2-2.4-0.2c-0.8,0-1.7,0.1-2.6,0.2c0,0,0,0-0.1,0l0,3c0,0,0,0,0,0
				C-11.2,7.5-10.9,7.4-10.6,7.4L-10.6,7.4z"/>
		</g>
	</g>
	<g>
		<linearGradient id="SVGID_3_" gradientUnits="userSpaceOnUse" x1="2.8732" y1="-14.4129" x2="29.0402" y2="-14.4129">
			<stop  offset="0" style="stop-color:#42B22F"/>
			<stop  offset="0.7455" style="stop-color:#5BF541"/>
		</linearGradient>
		<path fill="url(#SVGID_3_)" d="M28.1-10.3H20v8.1c0,0.5-0.4,0.9-0.9,0.9h-6.3c-0.5,0-0.9-0.4-0.9-0.9v-8.1H3.8
			c-0.5,0-0.9-0.4-0.9-0.9v-6.3c0-0.5,0.4-0.9,0.9-0.9h8.1v-8.1c0-0.5,0.4-0.9,0.9-0.9h6.3c0.5,0,0.9,0.4,0.9,0.9v8.1h8.1
			c0.5,0,0.9,0.4,0.9,0.9v6.3C29-10.7,28.6-10.3,28.1-10.3z"/>
		<path fill="#2C8915" d="M28.1-17.6h-9v-8.1c0-0.5-0.4-0.9-0.9-0.9h-4.4c-0.5,0-0.9,0.4-0.9,0.9v8.1h-9c-0.5,0-0.9,0.4-0.9,0.9
			v-0.9c0-0.5,0.4-0.9,0.9-0.9h8.1v-8.1c0-0.5,0.4-0.9,0.9-0.9h6.3c0.5,0,0.9,0.4,0.9,0.9v8.1h8.1c0.5,0,0.9,0.4,0.9,0.9v0.9
			C29-17.1,28.6-17.6,28.1-17.6z"/>
		<linearGradient id="SVGID_4_" gradientUnits="userSpaceOnUse" x1="3.8219" y1="-10.4913" x2="28.0995" y2="-10.4913">
			<stop  offset="0.3152" style="stop-color:#FFFFFF;stop-opacity:0.58"/>
			<stop  offset="1" style="stop-color:#FFFFFF;stop-opacity:0"/>
		</linearGradient>
		<path fill="url(#SVGID_4_)" d="M28.1-11.3h-9v7.4c0,0.8-1.6,1.2-3.2,1.2c-1.5,0-3.2-0.3-3.2-1.2v-7.4h-9c0.5-3.6,3.7-7.1,12.1-7.1
			C24.4-18.3,27.6-14.8,28.1-11.3z"/>
		<linearGradient id="SVGID_5_" gradientUnits="userSpaceOnUse" x1="17.1552" y1="-5.7573" x2="19.179" y2="-5.7573">
			<stop  offset="0.3152" style="stop-color:#FFFFFF;stop-opacity:0.58"/>
			<stop  offset="1" style="stop-color:#FFFFFF;stop-opacity:0"/>
		</linearGradient>
		<path fill="url(#SVGID_5_)" d="M18.9-9.4c-0.5,0-0.9,1.6-1.3,3.6c-0.4,2-0.7,3.6-0.2,3.6c0.5,0.1,0.8-1.6,1.3-3.6
			C19.1-7.8,19.4-9.4,18.9-9.4z"/>
		<linearGradient id="SVGID_6_" gradientUnits="userSpaceOnUse" x1="25.5359" y1="-12.981" x2="27.898" y2="-12.981">
			<stop  offset="0.3152" style="stop-color:#FFFFFF;stop-opacity:0.58"/>
			<stop  offset="1" style="stop-color:#FFFFFF;stop-opacity:0"/>
		</linearGradient>
		<path fill="url(#SVGID_6_)" d="M27.8-15.5c-0.3-0.1-0.8,0.6-1.5,2.3c-0.7,1.7-0.8,2.6-0.5,2.7c0.3,0.1,0.8-0.6,1.5-2.3
			C27.9-14.5,28-15.3,27.8-15.5z"/>
		<g>
			<path fill="#4D3617" d="M19.1-1.3c0.5,0,0.9-0.4,0.9-0.9v-8.1h8.1c0.5,0,0.9-0.4,0.9-0.9v-6.3c0-0.5-0.4-0.9-0.9-0.9H20v-8.1
				c0-0.5-0.4-0.9-0.9-0.9h-6.3c-0.5,0-0.9,0.4-0.9,0.9v8.1H3.8c-0.5,0-0.9,0.4-0.9,0.9v6.3c0,0.5,0.4,0.9,0.9,0.9h8.1v8.1
				c0,0.5,0.4,0.9,0.9,0.9H19.1 M19.1-0.8h-6.3c-0.8,0-1.4-0.6-1.4-1.4v-7.6H3.8c-0.8,0-1.4-0.6-1.4-1.4v-6.3C2.4-18.4,3-19,3.8-19
				h7.6v-7.6c0-0.8,0.6-1.4,1.4-1.4h6.3c0.8,0,1.4,0.6,1.4,1.4v7.6h7.6c0.8,0,1.4,0.6,1.4,1.4v6.3c0,0.8-0.6,1.4-1.4,1.4h-7.6v7.6
				C20.5-1.5,19.9-0.8,19.1-0.8L19.1-0.8z"/>
		</g>
	</g>
</symbol>
<use xlink:href="#high_x5F_lvl_x5F_contracts_x5F_big"  width="59.1" height="56" x="-29.5" y="-28" transform="matrix(1 0 0 -1 30.5396 32.0037)" overflow="visible"/>
</svg>
