<?xml version="1.0" encoding="utf-8"?>
<!-- Generator: Adobe Illustrator 18.0.0, SVG Export Plug-In . SVG Version: 6.00 Build 0)  -->
<!DOCTYPE svg PUBLIC "-//W3C//DTD SVG 1.1//EN" "http://www.w3.org/Graphics/SVG/1.1/DTD/svg11.dtd">
<svg version="1.1" id="subscription" xmlns="http://www.w3.org/2000/svg" xmlns:xlink="http://www.w3.org/1999/xlink" x="0px"
	 y="0px" viewBox="0 0 62 64.5" enable-background="new 0 0 62 64.5" xml:space="preserve">
<g>
	<g>
		<path fill="#4AC5E0" d="M9.3,8c0,0,31.1-1.4,44.8,1.1c0,0,3.8,30.2,4.3,43.1c0,0-2.2,3.4-7,5.8c0,0-22.4,1.3-45.1-3.1
			c0,0-0.8-1.5-0.9-4.6c-0.1-3.1,2.3-32.7,2.5-36.2l-1.3-0.3l-1.1-1.5L9.3,8z"/>
		<path fill="#1D7EA1" d="M7.9,14.1c0,0.5-0.1,1.4-0.2,2.6l42.8,1.7l0.6,37.2c-2.9,0.6-41.2-0.1-43.2-1.9c-0.7-0.7-1.6-2.6-2.5-4.7
			l0,0c0,0.6,0,1,0,1.3c0.1,3.1,0.9,4.6,0.9,4.6C29,59.3,51.4,58,51.4,58c4.9-2.4,7-5.8,7-5.8c-0.5-12.9-4.3-43.1-4.3-43.1l-2.4,2
			l1.1,1.3l-1.8,1.9L5.4,12.3l1.1,1.5L7.9,14.1z"/>
		<path fill="#164F6D" d="M50.9,17.1l1.9,0.1c1.1,1.7,1.8,14.4,1.8,14.4L54.1,9.1l-2.4,2l1.2,1.3l0.9,1.5l-1.5,3L50.9,17.1z"/>
		<polygon fill="#583512" points="53,12.3 51.6,13.7 53.2,13 53.5,13.8 52.4,16.3 51.2,14.5 51,15.6 6.5,13.8 7.9,14.1 7.8,14.9 
			52.8,17.2 53.9,13.8 		"/>
		<path fill="#164F6D" d="M56.7,45.7c0.2,7.4-3.6,8.6-3.6,8.6l-2.6-35.9L51.4,58c4.8-2.4,7-5.8,7-5.8c-0.4-10.2-2.9-32.1-3.9-39.9
			C54.6,12.5,56.5,38.4,56.7,45.7z"/>
		<path fill="#A6DDEE" d="M8.3,11c0,0,2.1-1,10-1.5C26.2,9,54.1,9.1,54.1,9.1C40.4,6.6,9.3,8,9.3,8l-3.9,4.3l45.7,1.9L8.3,11z"/>
		<g>
			<path fill="#F9C21C" d="M45.9,51.5c0,0.9-0.8,1.7-1.7,1.7l-34.2-1.6c-0.9,0-1.7-0.7-1.7-1.7L10,21.4c0-0.9,0.8-1.7,1.7-1.7
				l32.5,0.8c0.9,0,1.7,0.8,1.7,1.7V51.5z"/>
		</g>
		<g>
			<g>
				<path fill="#E29125" d="M11.7,21.3l32.6,0.8c0.1,0,0.1,0.1,0.1,0.1v29.3c0,0.1-0.1,0.1-0.1,0.1L10.1,50C10,50,9.9,50,9.9,49.9
					l1.6-28.4l0,0v0C11.6,21.3,11.6,21.3,11.7,21.3 M11.7,19.7c-0.9,0-1.7,0.8-1.7,1.7L8.4,49.9c0,0.9,0.8,1.7,1.7,1.7l34.2,1.6
					c0.9,0,1.7-0.7,1.7-1.7V22.2c0-0.9-0.8-1.7-1.7-1.7L11.7,19.7L11.7,19.7z"/>
			</g>
		</g>
		<linearGradient id="SVGID_1_" gradientUnits="userSpaceOnUse" x1="7.0008" y1="36.2384" x2="51.0814" y2="36.2384">
			<stop  offset="0" style="stop-color:#FFFFFF;stop-opacity:0.3"/>
			<stop  offset="1" style="stop-color:#FFFFFF;stop-opacity:0.3"/>
		</linearGradient>
		<path fill="url(#SVGID_1_)" d="M7.7,16.8c0,0,0.7,17,3,24.3c2.3,7.3,5.7,14,39.2,13.5l0.6-36.1l0.6,37.2c0,0-24.3-0.1-38.3-1.5
			c-4.8-0.5-5.7-4.3-5.7-7.3C6.9,35.2,7.7,16.8,7.7,16.8z"/>
		<g>
			<path fill="#583512" d="M28,7.6c9.2,0,19.6,0.3,26.1,1.5c0,0,3.8,30.2,4.3,43.1c0,0-2.2,3.4-7,5.8c0,0-3.1,0.2-8.2,0.2
				c-8.5,0-22.6-0.5-36.9-3.3c0,0-0.8-1.5-0.9-4.6c-0.1-3.1,2.3-32.7,2.5-36.2l-1.3-0.3l-1.1-1.5L9.3,8C9.3,8,17.9,7.6,28,7.6
				 M28,6.8C18,6.8,9.4,7.2,9.3,7.2c-0.2,0-0.4,0.1-0.5,0.3l-3.9,4.3c-0.2,0.3-0.3,0.7,0,1l1.1,1.5c0.1,0.1,0.3,0.2,0.4,0.3l0.7,0.2
				c-0.1,1.6-0.4,5.2-0.7,9.5c-0.8,10.1-1.8,24-1.7,26.1c0.1,3.3,1,4.9,1,4.9c0.1,0.2,0.3,0.3,0.5,0.4c14,2.7,27.9,3.3,37,3.3
				c5,0,8.2-0.2,8.2-0.2c0.1,0,0.2,0,0.3-0.1c5-2.5,7.2-6,7.3-6.1c0.1-0.1,0.1-0.3,0.1-0.4C58.7,39.4,54.9,9.3,54.9,9
				c0-0.3-0.3-0.6-0.6-0.7C48.8,7.3,39.9,6.8,28,6.8L28,6.8z"/>
		</g>
	</g>
	<g>
		<g>
			<path fill="#4D3617" d="M35.9,43c-1,0-1.5-0.5-1.7-0.7c-0.2-0.3-0.3-0.7-0.2-1l0.1-0.3l4.1-1.5l0,0.3l0.1,0l0,0.4l0,0.4l0,0.2
				c0,0.1,0,0.3-0.1,0.5c-0.3,0.9-0.8,1.5-1.6,1.7C36.4,43,36.2,43,35.9,43z"/>
			<path fill="#4D3617" d="M35.9,42.7c-0.9,0-1.3-0.4-1.4-0.6c-0.2-0.3-0.3-0.6-0.2-0.8l0.1-0.2l3.6-1.3l0,0.2l0.1,0l0,0.4l0,0.2
				c0,0,0,0.2-0.1,0.4c-0.2,0.9-0.7,1.4-1.4,1.5C36.4,42.7,36.1,42.7,35.9,42.7z"/>
			<path fill="#4D3617" d="M35.9,42.7c-0.8,0-1.2-0.4-1.4-0.6c-0.2-0.2-0.2-0.5-0.2-0.7l0-0.1L38,40l0,0.3l0,0l0,0.1l0,0l0,0.1
				l0,0.2c0,0,0,0.2-0.1,0.4c-0.2,0.8-0.7,1.3-1.3,1.4C36.3,42.6,36.1,42.7,35.9,42.7z"/>
			<path fill="#4D3617" d="M37.7,40.4l-3.1,1.1c-0.1,0.2,0.2,1.2,1.9,0.9c0.7-0.1,1-0.8,1.1-1.3c0.1-0.2,0.1-0.3,0.1-0.3l0,0
				c0,0,0-0.1,0-0.1c0,0,0-0.1,0-0.1l0,0C37.7,40.4,37.7,40.4,37.7,40.4z"/>
			<path fill="#4D3617" d="M35,46.3c-0.5,0-0.9-0.1-1.4-0.3c-0.6-0.2-1-0.6-1.2-1.2c-0.4-1.2,0.2-2.5,0.2-2.6l0.1-0.2l0.3-0.1l0.1,0
				c0.2,0,3.4,0.7,4,2.1l0.2,0.8l0,0.1C37.3,44.8,36.7,46.3,35,46.3z"/>
			<path fill="#4D3617" d="M35,46.1c-0.4,0-0.9-0.1-1.3-0.3c-0.5-0.2-0.8-0.6-1-1c-0.4-1,0.2-2.3,0.2-2.4l0.1-0.1l0.2-0.1l0.1,0
				c0.2,0,3.2,0.7,3.8,1.9l0.2,0.6C37.1,44.8,36.5,46.1,35,46.1z"/>
			<path fill="#4D3617" d="M35,46c-0.4,0-0.9-0.1-1.3-0.3c-0.5-0.2-0.8-0.5-1-1c-0.4-1,0.2-2.3,0.2-2.3l0.1-0.1l0.1-0.1l0.1,0
				c0.3,0,3.3,0.8,3.8,2l0.4-0.3L37,44.7C37,44.7,36.5,46,35,46z"/>
			<path fill="#4D3617" d="M36.7,44.4c-0.1-1.1-3.4-2-3.6-1.9c0,0-1.1,2.2,0.6,3c2.2,1,3-0.9,3-0.9s0,0-0.1,0.1
				C36.7,44.6,36.7,44.5,36.7,44.4z"/>
			<path fill="#4D3617" d="M26.8,48.4c-0.7,0-1.7-0.8-2.1-2.7c-0.1-0.4-0.2-0.9-0.1-1.3c-1,0.3-1.7,0.6-1.7,0.7l-1.4,0.6l1.8-4.2
				c-1-1.1-1.5-2.4-1.7-3c-0.1-0.5-0.7-1.6-1.4-2.5c-1.6-0.9-3.7-2.4-3.9-4.4c-0.2-1.5,0.2-2.8,1-3.7c1.1-1.2,2.6-1.6,3.4-1.8
				c0.1-0.6,0.4-1.1,0.8-1.6c1.3-1.3,3.2-2,5.3-2c2.5,0,4.5,1,5,2.5c0.6-0.1,1.9-0.4,3.2-0.4c3.6,0,5.6,1.7,5.7,4.8
				c0,0.9-0.1,1.6-0.5,2.3c0.4,0.5,0.9,1.3,1.2,1.9c0.5,1,0.6,1.8,0.4,2.4c-0.4,1-1.5,2.6-4.6,2.7c0,0,0,0,0,0c-0.2,0-0.4,0-0.7,0
				c-0.2,0.3-0.4,0.5-0.7,0.9c-0.4,0.6-0.8,1.3-1.7,2.1c-0.7,0.7-1.5,1.2-2.5,1.5c0.2,0.4,0.4,1,0.4,1.6c0,0.3,0,0.6,0,1
				c0,0.2,0,0.3,0,0.3l0,0.3l-0.3,0.1c-0.5,0.2-0.9,0.3-1.4,0.3c-0.4,0-0.9-0.1-1.3-0.3c-0.4-0.1-0.9-0.3-1.2-0.5l0,0.1l0,0.1
				c-0.1,0.9-0.3,1.7-0.9,1.9C27,48.4,26.9,48.4,26.8,48.4z"/>
			<path fill="#4D3617" d="M26.8,48.1c-0.6,0-1.5-0.9-1.9-2.5c-0.2-0.7-0.2-1.2-0.1-1.6c-1.2,0.4-2.1,0.8-2.1,0.8l-0.8,0.3l1.6-3.8
				c-1-1.1-1.6-2.4-1.7-3c-0.1-0.6-0.9-1.8-1.5-2.7c-1.6-0.9-3.6-2.3-3.8-4.3c-0.1-1.4,0.2-2.6,1-3.5c1.1-1.3,2.8-1.6,3.5-1.7
				c0-0.6,0.3-1.1,0.8-1.6c1.3-1.2,3.1-1.9,5.1-1.9c2.5,0,4.6,1.1,4.8,2.6c0.5-0.1,1.9-0.4,3.4-0.4c3.4,0,5.4,1.6,5.4,4.6
				c0,0.9-0.2,1.7-0.5,2.3c0.4,0.4,1,1.3,1.3,2c0.4,0.9,0.6,1.7,0.4,2.2c-0.3,0.9-1.4,2.4-4.4,2.5l-0.1,0c-0.2,0-0.4,0-0.7,0
				c-0.3,0.3-0.5,0.6-0.8,1c-0.4,0.6-0.8,1.2-1.6,2.1c-0.7,0.7-1.6,1.2-2.7,1.5c0.3,0.4,0.5,1,0.6,1.8c0,0.3,0,0.6,0,1
				c0,0.2,0,0.3,0,0.3l0,0.2l-0.2,0.1c-0.4,0.2-0.8,0.3-1.2,0.3c-0.4,0-0.8-0.1-1.1-0.3c-0.6-0.2-1.1-0.4-1.5-0.6l-0.1,0.4l0,0.1
				c-0.1,1-0.3,1.6-0.7,1.7C27,48.1,26.9,48.1,26.8,48.1z"/>
			<path fill="#4D3617" d="M26.8,48c-0.6,0-1.4-0.8-1.8-2.4c-0.2-0.7-0.2-1.3-0.1-1.7c-1.2,0.4-2.2,0.8-2.2,0.8L22.1,45l1.6-3.6
				c-1.1-1.1-1.6-2.4-1.7-3c-0.1-0.7-1-2-1.6-2.7c-1.5-0.9-3.6-2.3-3.8-4.2c-0.1-1.4,0.2-2.6,0.9-3.5c1.1-1.3,2.9-1.6,3.5-1.7
				c0-0.6,0.3-1.1,0.8-1.6c1.3-1.2,3-1.9,5-1.9c2.5,0,4.6,1.1,4.8,2.6c0.5-0.1,1.9-0.5,3.4-0.5c3.4,0,5.3,1.6,5.4,4.5
				c0,0.9-0.2,1.7-0.5,2.3c0.4,0.4,1,1.3,1.3,2c0.4,0.9,0.6,1.7,0.4,2.2c-0.6,1.5-2.1,2.4-4.3,2.5c0,0,0,0,0,0c-0.3,0-0.5,0-0.8,0
				c-0.3,0.3-0.5,0.7-0.8,1.1c-0.4,0.6-0.8,1.2-1.6,2.1c-0.7,0.7-1.6,1.2-2.8,1.5c0.4,0.4,0.6,1,0.7,1.9c0,0.3,0,0.6,0,1
				c0,0.2,0,0.3,0,0.3l0,0.1l-0.1,0.1c-0.4,0.2-0.8,0.3-1.2,0.3s-0.8-0.1-1.2-0.3c-0.6-0.2-1.2-0.4-1.5-0.6l-0.2,0.5l0,0.1
				c-0.1,0.9-0.3,1.5-0.6,1.6C26.9,48,26.9,48,26.8,48z"/>
			<path fill="#4D3617" d="M39.5,31.8l-0.3,0.4c0,0,0,0,0,0c0.6-0.7,0.9-1.6,0.9-2.8c-0.1-6.3-8.6-3.8-8.6-3.8s0.1,0,0.3,0
				c-0.2,0-0.4,0.1-0.6,0.1c0.1-0.1,0.1-0.2,0.1-0.3C31,23,25.1,21.9,22,24.9c-0.7,0.7-0.8,1.5-0.6,2.2c0,0,0,0,0,0l-0.2-0.6
				c0,0-4.9,0.2-4.4,4.9c0.2,1.7,2,3,3.7,4c0.6,0.8,1.5,2.1,1.6,2.9c0.1,0.6,0.7,1.9,1.8,2.9l-1.4,3.2c0,0,1.3-0.6,2.7-1
				c0,0,0,0,0.1,0c-0.2,0.4-0.4,1-0.1,2c0.4,1.7,1.3,2.3,1.7,2.2c0.3-0.1,0.4-1,0.5-1.6l0.3-0.8c0,0,0.8,0.5,1.8,0.8
				c0.6,0.3,1.3,0.4,2.1,0c0,0,0-0.1,0-0.3c0-0.3,0-0.6,0-0.9c-0.1-0.6-0.2-1.4-0.7-1.8c-0.1-0.1-0.1-0.2-0.2-0.2
				c1-0.1,2.2-0.5,3.1-1.5c1.4-1.5,1.7-2.4,2.5-3.2c0.4,0,0.7,0.1,0.9,0.1c2.3-0.1,3.6-1,4.1-2.3C41.8,34.6,39.7,31.9,39.5,31.8z
				 M29.7,37.1c0.3-0.3,0.8-1,1.5-1.5c0,0,0,0,0,0c-0.1,0.1-0.2,0.2-0.4,0.3c0,0,0.1,0,0.1,0C30.3,36.4,29.9,36.9,29.7,37.1z
				 M32.3,32.7C32.3,32.7,32.3,32.7,32.3,32.7C32.3,32.7,32.3,32.7,32.3,32.7C32.3,32.7,32.3,32.7,32.3,32.7z M29.5,37.4L29.5,37.4
				C29.5,37.4,29.5,37.4,29.5,37.4L29.5,37.4z M25.3,31.7c0.3,0.7,0.3,1.2,0.3,1.2l0.5-0.1l0,0c-0.3,0-0.5,0.1-0.8,0.1
				c0.2-0.1,0.3-0.1,0.3-0.1S25.6,32.4,25.3,31.7z M22.8,29.1c0,0.1,0.1,0.2,0.1,0.4L22.7,29C22.7,29,22.8,29,22.8,29.1z M25.9,43.3
				c0.1,0,0.2,0,0.2,0c0,0.1,0,0.2,0,0.3C26.1,43.5,26,43.4,25.9,43.3z"/>
		</g>
		<g>
			<g>
				<path fill="#2A6400" d="M26.9,42.3c0,0,1.5,5.3,4.7,3.8c0.4-3.1-1.9-4-1.9-4L26.9,42.3z"/>
				<path fill="#274300" d="M34.7,41.4c-0.1,0.2,0.2,1.2,1.9,0.9c1.1-0.2,1.2-1.8,1.2-1.8L34.7,41.4z"/>
				<path fill="#274300" d="M33.2,42.5c0,0-1.1,2.2,0.6,3c2.2,1,3-0.9,3-0.9S35,45.6,34.2,45C32.8,44,33.2,42.5,33.2,42.5z"/>
				<path fill="#274300" d="M24,41.3l-1.4,3.2c0,0,1.3-0.6,2.7-1c0.2-0.1,0.6-0.3,0.8-0.2c0.2,2,1.1,3.3,1.1,3.3l0.4-1.3
					c0,0,2.7,2,3.9,0.7c-1.3-0.2-2.1,0-3.5-1.7c-0.6-0.7-0.9-2.3-0.9-2.3L24,41.3z"/>
				<path fill="#0DD960" d="M30.6,42.9c-0.1-0.1-1.8,1.4-1.7,1.8c0.1,1.1,2.7,1.5,2.7,1.5S31.9,43.6,30.6,42.9z"/>
				<path fill="#00A55D" d="M34.7,41.4l3.1-1.1c0,0,0.1,1.1-0.8,1.5C35.2,42.6,34.7,41.4,34.7,41.4z"/>
				<path fill="#00A55D" d="M33.2,42.5c0.1,0,3.4,0.8,3.6,1.9c0.1,0.8-2.1,1-2.9,0.5C32.6,44.1,33.2,42.5,33.2,42.5z"/>
				<path fill="#0DD960" d="M33.1,42.9c0,0.1,0.1,1.7,1.1,2.1c2,0.6,2.5-0.6,2.5-0.6s-0.7-0.2-1.9-0.7
					C33.9,43.4,33.2,42.5,33.1,42.9z"/>
				<path fill="#0DD960" d="M35.1,41.8c0,0,0.6,0.6,1.7,0.1c0.9-0.4,0.9-1.1,0.9-1.1L35.1,41.8z"/>
				<path fill="#3E8407" d="M25.7,43.1c-0.1,0.1-0.8,0.8-0.4,2.4c0.4,1.7,1.3,2.3,1.7,2.2s0.4-1.9,0.6-2.1S25.7,43.1,25.7,43.1z"/>
			</g>
			<g>
				<path fill="#D0008C" d="M27.9,42.8c0,0,3.7,0.9,5.9-1.4c1.8-1.8,1.8-2.9,3.2-3.8c-2.1-0.4-7.6-0.2-8.7,0.7
					C27.4,39.2,27.9,42.8,27.9,42.8z"/>
				<path fill="#FF4CC5" d="M29.1,40.7c0,0,4.9-2.1,5.5-1.8c0.7,0.2-0.5,2.9-3,3.4s-3.1,0.3-3.1,0.3L29.1,40.7z"/>
				<path fill="#A40078" d="M27.9,41c0,0,2.7-1.8,4.6-2.2c2.1-0.5,3.4-0.1,3.4-0.1l0.7-1c0,0-3.7-0.8-5.8-0.2
					c-2.1,0.5-3.7,1.8-3.7,1.8L27.9,41z"/>
				<path fill="#B20083" d="M38.9,31.7c0,0,1.7,2.3,0.3,4c-0.9,1.1-5.8,1.2-5.8,1.2L38.9,31.7z"/>
				<path fill="#002F7E" d="M29.5,37.4c0-0.1,1.5-2,3.6-2.8c2.1-0.8,5.1-1.5,5.1-1.5S35,35.4,34,36.9C32.5,37,29.5,37.4,29.5,37.4z"
					/>
				<path fill="#00359F" d="M30.2,27v-1c0,0,3.9-1,5.6-0.2c1.7,0.8,3.5,3.1,3,4.5c-0.5,1.4-4,3.9-4,3.9L30.2,27z"/>
				<path fill="#008D3A" d="M21.8,34.3l5.2,4.6l2.5-1.6c0,0,1.2-1.7,2.6-2.4C33.6,34.3,23.1,33.7,21.8,34.3z"/>
				<path fill="#096A42" d="M21.6,33.8c0,0,2.5-0.5,5.7-0.6c2.1,0,7.3,0.6,7.3,0.6l-3.4,1.9c0,0-2.5-0.8-4.9-1.1
					c-2.7-0.4-4.6-0.2-4.6-0.2L21.6,33.8z"/>
				<path fill="#93006D" d="M20.1,35c0.2,0.1,1.9,2.4,2.1,3.4s1.9,4.6,5.5,4.3C25.7,36.8,20.1,35,20.1,35z"/>
				<path fill="#C0008C" d="M30.9,28.1c0,0,0.1-1.5-1.4-1.9c-0.9-0.3-3,0-3,1.4c0,1.4,1.8,2.9,2.3,3S30.9,28.1,30.9,28.1z"/>
				<path fill="#F06A0F" d="M25.1,29.3c0,0-3-3.2-0.9-4.4c2.1-1.2,4.9-1.2,5.5-0.4c0.6,0.7,0.2,1.9,0.2,1.9s-1.7-1.2-3,0
					S25.1,29.3,25.1,29.3z"/>
				<path fill="#A12D00" d="M27,25.7c0,0-1.8-0.3-2.3,0.7c-1.1,1.9,0.6,3.3,0.6,3.3L27,25.7z"/>
				<path fill="#93006D" d="M27.5,25.4c0,0-1.8-0.1-2.4,1.9c-0.4,1.2,0.4,3,0.4,3l0.6,2.8l5.9,0.2c0,0,0.5-0.8-0.8-1.3
					s-4.5-2.3-4.6-3.8C26.7,26.7,27.5,25.4,27.5,25.4z"/>
				<path fill="#002F73" d="M32.3,32.9c0-0.2,2.8-4.6,2.8-4.6s1.7,1.9,0.9,3.1C35.2,32.5,32.3,32.9,32.3,32.9z"/>
				<path fill="#93006D" d="M21.7,27c0,0-1.8,0.8-1.8,3.2c0,2.4,1.5,3,1.5,3l2.3-2L21.7,27z"/>
				<path fill="#D94F0A" d="M22.7,28.7c0,0,0.7,1.7,0.2,2.6c-0.4,0.9-1.8,1.5-1.8,1.5s0.7,1.5,0.6,1.2c0-0.2,3.8-1.1,3.8-1.1
					S25.1,29.3,22.7,28.7z"/>
				<path fill="#FFC219" d="M25.6,32.9c0,0,0.1-1.4-1.6-2.8c-0.9-0.7-4.1-3.2-2-5.2c3.2-3,9-1.8,9.3,0.6c0.1,0.4-0.9,1-0.9,1
					L29.8,26c0,0,0.6-0.8-0.8-1.4c-1.4-0.6-3.9-0.4-4.8,0.9c-0.9,1.3,0,2.4,0.8,3.5c1.8,2.5,1.3,3.8,1.3,3.8L25.6,32.9z"/>
				<g>
					<path fill="#0045CB" d="M32.5,32.8c0,0,1.6-1.9,2.1-2.5s0.8-1.1,0.2-1.3S31.1,32.2,32.5,32.8z"/>
					<path fill="#0045CB" d="M28.7,28.7c0,0-0.6,0.8-0.4,1.6c0.2,0.8,3.9,2.6,3.9,2.6s0.4-1.9,1.4-2.8C34.7,29.3,29.2,30,28.7,28.7z
						"/>
					<path fill="#0045CB" d="M31.9,27.3c0,0-0.4,0.3-0.5,0.8c-0.1,0.5,0.7,1.9,0.7,1.9s2.3,0.2,2.1-0.8S31.9,27.3,31.9,27.3z"/>
					<path fill="#D94F0A" d="M32.5,29.5c0,0.4-0.7,0.3-1.3,0.3c-0.6,0-1.3-0.6-1.3-0.9c0-0.4,0.5-0.7,1.1-0.7
						C31.6,28.1,32.5,29.1,32.5,29.5z"/>
					<path fill="#FFC41E" d="M28.9,28.7c0-0.1,0.6-1.2,1.7-1c1.9,0.4,2.2,1.9,2.2,1.9l-0.3,0.2c0,0-0.3-1.5-1.8-1.5
						c-0.8,0-0.6,1-0.6,1L28.9,28.7z"/>
				</g>
				<path fill="#FF7FD5" d="M30.8,27.1c0,0-0.8-1.9-2.7-1.8c-1.3,0.1-3.5,1.4-1.8,4.2c1.3,2.1,3.7,1.9,5.3,3.1
					c0.4,0.3,0.4,0.5,0.4,0.5s0.4-0.3,0.1-0.7c-0.8-1.2-3.8-1.8-4.5-3.3c-0.7-1.5-0.1-2.4,1.1-2.6c0.7-0.2,1.5,0.2,1.9,0.8
					C30.6,27.5,30.9,27.4,30.8,27.1z"/>
				<path fill="#16E862" d="M22.4,33.7c-0.1,0,2.8-1.1,5.7-0.9s6.5,0.1,7.2-1.6c1.6-3.9-4.5-3.6-4.5-3.6l-0.1-0.4
					c0,0,3.7-0.7,5.2,0.3c2.2,1.5,1.9,5.5-2.3,6.6C31.3,34.7,27.3,32.9,22.4,33.7z"/>
				<path fill="#43AFFF" d="M29.4,28.8c-0.2-0.2-1-0.4-0.7,0.2s3.7,2.4,5.7,1.2c2-1.2,0-3-2.6-2.8c-0.4,0-0.4,0.2,0,0.3
					c0.4,0,2.5,0.6,2,1.5C33.3,30,30.4,29.8,29.4,28.8z"/>
				<path fill="#FF51C7" d="M27.5,39.3c0.9,1.6,0.7,3.2,0.7,3.2s-0.4,1-0.7,0s-1.2-3.4-3.9-5.3c-1.4-1-6.4-2.8-6.7-5.7
					c-0.5-4.7,4.4-4.9,4.4-4.9l0.2,0.8c0,0-2,1.6-1.1,4C21.8,35.1,26.3,37.1,27.5,39.3z"/>
				<path fill="#FF4CC5" d="M23.7,35.7c-1.1-1.1-2.9-1.9-3.6-5.5c-0.8,4.2,4.3,7.1,5.8,8.9c1.4,1.7,2.1,3.7,2.1,3.7s0.7-1.7-0.6-3.7
					C26.2,37.3,24.6,36.6,23.7,35.7z"/>
				<path fill="#FF7FD5" d="M39.5,31.8c0.2,0.1,2.3,2.8,1.8,4.1c-0.5,1.3-1.8,2.2-4.1,2.3c-1.2,0-5-0.8-7-0.2s-2.7,1.3-2.7,1.3
					L27,38.7c0,0,2.2-1.5,3.8-1.8c2.6-0.5,6.5-0.1,7.8-1.5c1.3-1.4,0.4-3,0.4-3L39.5,31.8z"/>
				<path fill="#006EDA" d="M30.8,35.9c3.9-1.9,9.4-1.8,9.3-6.5c-0.1-6.3-8.6-3.8-8.6-3.8s7-0.8,6.6,3.8
					C37.8,34,33.3,33.5,30.8,35.9z"/>
				<path fill="#43AFFF" d="M34.5,34.4c0,0,4.8-1.2,5.2-4.4c0.3-2.6-1.4-4.4-4.6-4.6c3,0.5,3.5,2.6,3.1,4.8
					C37.6,33.4,34.5,34.4,34.5,34.4z"/>
				<path fill="#FF7FD5" d="M28.5,25.4c0,0-1.9-0.5-2.8,1c-1.1,2.1,0.9,3.7,0.9,3.7s-1.5-1.8-0.7-3.5C26.6,25.3,28.5,25.4,28.5,25.4
					z"/>
				<path fill="#FF7FD5" d="M17.3,28.9c0,0-1,2,0.1,3.6c1.6,2.4,5.2,3.8,5.2,3.8s-3.9-2.2-5.1-4.3C16.7,30.5,17.3,28.9,17.3,28.9z"
					/>
				<path fill="#FFAEE8" d="M37.5,36.8c0,0,1.1-0.3,1.8-1.3c0.8-1.1,0.7-1.8,0.7-1.8s1.5,1.1,0.5,2.6C39.9,37.3,37.5,36.8,37.5,36.8
					z"/>
				<path fill="#FFAEE8" d="M27.4,41.1c-0.3-2.9-3.1-4.1-3.1-4.1S26.3,38.9,27.4,41.1z"/>
				<path fill="#FFE1A6" d="M26,23.7c0,0-3.1-0.2-3.8,1.7c-0.6,1.7,1.6,2.5,1.6,2.5s-0.8-1.6-0.1-2.7C24.3,24.2,26,23.7,26,23.7z"/>
				<path fill="#6EFF9E" d="M32.9,33.3c0,0,2.6,0.1,3.4-1.2c1.2-1.7-0.1-2.6-0.1-2.6s-0.1,1.6-0.7,2.2
					C34.6,32.8,32.9,33.3,32.9,33.3z"/>
			</g>
		</g>
		<path fill="#4D3617" d="M18.5,50.9c-0.1,0-0.2,0-0.4,0l-0.2,0l-0.1-0.1c-0.4-0.4-0.7-0.9-0.7-1.6c-0.1,0-0.2,0.1-0.3,0.1
			c-0.2,0.1-0.5,0.1-0.7,0.1c-0.8,0-2.1-0.3-2.2-1.1c-0.1-0.7,0.5-1.2,1-1.4c-0.1,0-0.3-0.1-0.4-0.1c-1.1-0.3-1.8-1.1-2.1-2.3
			c-0.1-0.4-0.1-0.7,0.1-1.1c-1-0.2-1.7-0.9-2-2c-0.3-1.1,0-2.4,0.9-3.6c1.2-1.6,3.1-2.7,4.7-2.8l0.2,0c0.6,0,1,0.1,1.4,0.4
			c0.6-0.4,1.3-0.7,2-0.7c0.2,0,0.4,0,0.6,0c1.4,0.2,2,1.1,2.2,1.9c0.8,0.4,2.8,1.6,2.6,3.9c-0.1,1.1-0.5,1.8-0.9,2.3
			c0,0,0.4,0.1,0.4,0.1l0.1,0.4c0.3,1.1,0.2,2.1-0.3,2.8c-0.5,0.8-1.4,1.2-1.9,1.3c-0.2,0.6-0.7,1.1-1.5,1.2
			c-0.1,0.6-0.4,1.1-0.7,1.5C19.8,50.6,19.2,50.9,18.5,50.9z"/>
		<path fill="#4D3617" d="M18.5,50.6c-0.1,0-0.2,0-0.3,0l-0.1,0L18,50.5c-0.4-0.4-0.6-1-0.6-1.8c-0.2,0.1-0.4,0.2-0.6,0.3
			C16.6,49,16.4,49,16.1,49c-0.7,0-1.8-0.3-2-0.9c-0.1-0.6,0.6-1,1.1-1.2l0.1,0c0.1-0.1,0.3-0.2,0.4-0.2c0,0,0,0,0,0
			c-0.2,0-0.3,0-0.5,0c-0.2,0-0.5-0.1-0.7-0.2c-1-0.3-1.7-1-1.9-2.1c-0.1-0.4,0-0.8,0.2-1.2c-0.8-0.1-1.8-0.5-2.1-1.9
			c-0.3-1.1,0-2.3,0.8-3.4c1.1-1.5,3-2.6,4.5-2.7c0,0,0.1,0,0.1,0c0.7,0,1.1,0.2,1.3,0.5c0.5-0.4,1.2-0.7,2-0.7c0.2,0,0.3,0,0.5,0
			c1.4,0.2,1.9,1.1,2.1,1.8c0.7,0.3,2.7,1.5,2.6,3.7c-0.1,1.3-0.7,2.1-1.3,2.6c0.1,0,0.3,0,0.4,0c0.1,0,0.2,0,0.3,0l0.2,0l0.1,0.2
			c0.3,1,0.2,1.9-0.3,2.6c-0.5,0.8-1.4,1.1-1.9,1.2c-0.1,0.5-0.5,1.1-1.4,1.1c0,0-0.1,0-0.1,0c-0.1,0.6-0.3,1.2-0.7,1.6
			C19.7,50.3,19.1,50.6,18.5,50.6z"/>
		<path fill="#4D3617" d="M24.4,40.4c0.2-2.2-2.1-3.2-2.5-3.4c-0.1-0.7-0.6-1.5-1.8-1.7c-1.2-0.2-2,0.4-2.6,0.9
			c-0.1-0.4-0.4-0.7-1.4-0.7c-2.5,0.1-5.7,3-5.1,5.6c0.4,1.6,1.8,1.7,2.5,1.6c-0.4,0.4-0.7,0.9-0.6,1.5c0.2,0.8,0.7,1.5,1.7,1.8
			c0.2,0.1,0.4,0.1,0.6,0.2c0.4,0.1,0.7,0,1,0c0.1,0.1,0.3,0.2,0.6,0.3c-0.1,0-0.2,0-0.3,0c-0.5,0.2-0.8,0.4-1.2,0.6
			c-0.4,0.2-1.1,0.5-1,0.9c0.1,0.4,1.5,0.8,2.2,0.5c0.5-0.2,0.9-0.4,1.2-0.6c-0.2,0.8-0.2,1.7,0.4,2.2c1.5,0.2,2.3-1.3,2.2-2.3
			c1.3,0.4,1.5-1,1.5-1s2.9-0.4,2.1-3.5c-0.4-0.1-0.8,0-1.2,0.2c0-0.1-0.1-0.3-0.2-0.4C23.3,42.9,24.3,42.1,24.4,40.4z M21,42.3
			C21,42.3,21,42.4,21,42.3C20.9,42.4,20.9,42.4,21,42.3C20.9,42.4,20.9,42.3,21,42.3z M14.3,42.5C14.3,42.5,14.3,42.5,14.3,42.5
			c0.1,0.1,0.1,0.1,0.2,0.2c0.3,0.3,0.5,0.5,0.7,0.6C14.7,43,14.4,42.7,14.3,42.5C14.2,42.5,14.2,42.5,14.3,42.5z"/>
		<g>
			<g>
				<path fill="#2A6400" d="M18.2,46.8c0,0-1.1-0.4-1.5-0.2s-0.8,0.4-1.2,0.6c-0.4,0.2-1.1,0.5-1,0.9s1.5,0.8,2.2,0.5
					c1.5-0.5,1.7-1.2,1.7-1.2L18.2,46.8z"/>
				<path fill="#2A6400" d="M18.2,46.8c0,0-1.1,2.5,0,3.5c1.5,0.2,2.3-1.3,2.2-2.3c1.3,0.4,1.5-1,1.5-1s2.9-0.4,2.1-3.5
					c-0.8-0.1-2,0.5-2,0.5L18.2,46.8z"/>
				<path fill="#519B10" d="M20.3,47.8c-0.3-0.1-1.5,0.3-1.7,0.8s-0.2,1.2-0.1,1.3s1.1,0.1,1.6-0.7C20.6,48.4,20.3,47.8,20.3,47.8z"
					/>
				<path fill="#519B10" d="M23.2,43.6c0,0-0.1,2.7-0.4,2.9c1-0.6,1.7-1.1,1.3-2.8C24,43.1,23.2,43.6,23.2,43.6z"/>
			</g>
			<g>
				<g>
					<path fill="#A12D00" d="M21.8,37.5c0,0,1.2,0.5,1.4,2c0.3,2.1-1.1,3.5-1.1,3.5L21,42.1L21.8,37.5z"/>
					<path fill="#FF994D" d="M21.8,37c0,0,2.8,1.1,2.6,3.4c-0.2,2.4-2.1,2.9-2.1,2.9L22,42.5c0,0,0.9-0.7,0.9-2.2
						c-0.1-2-1-2.6-1-2.6L21.8,37z"/>
					<path fill="#FF994D" d="M22.1,37.2c0,0,2.2,1.1,2.2,3c0.1,1.8-1.6,2.7-1.6,2.7s-0.5-0.3-0.2-0.7C23.3,41.1,23.3,39.1,22.1,37.2
						z"/>
				</g>
				<g>
					<path fill="#FFC116" d="M14,42.7c0,0-2.3,0.6-2.9-1.6c-0.7-2.6,2.6-5.5,5.1-5.6c2-0.1,1.3,1.7,1.3,1.7L14,42.7z"/>
					<path fill="#D94F0A" d="M17.6,37c-0.6-1.2-4.8-0.2-5.5,2.5c-0.8,3,1.9,3.2,1.9,3.2S18.4,38.5,17.6,37z"/>
					<path fill="#A12D00" d="M15.1,37.1c0,0-2.5,1.3-2.6,2.8c-0.1,2.8,1.8,2.5,1.8,2.5L15.1,37.1z"/>
				</g>
				<path fill="#D94F0A" d="M17.1,37.4c0,0,1.3-2,2.7-1.5c1.4,0.5,1,2.9,1,2.9L17.1,37.4z"/>
				<g>
					<path fill="#A12D00" d="M17.1,37.4l-0.2-0.7c0,0-2.1,0.9-2.5,1.8c-0.4,0.8-0.3,4.6,1.6,5.4c1.1,0.4,2.5,0.2,2.5,0.2L17.1,37.4z
						"/>
					<path fill="#F98130" d="M13.5,40.6c0,0,0.2,1.2,1,2c0.8,0.8,1.6,1.1,1.6,1.1s-1.4-1.3-1.7-2.8C14.2,40,13.5,40.6,13.5,40.6z"/>
					<path fill="#FFC116" d="M16.8,36.6c0,0-2.3,0.2-3.1,2.2c-0.8,1.9,0.6,3.5,0.8,3.5c0.4-0.1-0.5-1.4,0.1-3
						c0.4-1.3,1.9-2.1,2.1-2.2S17,36.5,16.8,36.6z"/>
				</g>
				<path fill="#FFC116" d="M17,37c0,0,1.1-1.9,3.1-1.6c2.5,0.4,1.8,3.1,1.8,3.1s-0.6,1.7-0.2,4.2c0,0.1-0.2,0-0.2,0
					s-0.8-2.8-0.6-4.4c0.2-1.1-0.1-1.8-1.3-1.9c-1-0.1-2.1,1-2.1,1S16.5,37.7,17,37z"/>
				<g>
					<path fill="#D94F0A" d="M15,40.6c0,0,0.1,0.8,0.6,1.2c0.6,0.4,2.2,1.8,2.3,2.1s3.2-1.7,3.2-1.7s-0.5-1-1.3-1.2
						C19.1,40.8,15.3,41.6,15,40.6z"/>
					<path fill="#A12D00" d="M16.2,38.8c0,0-0.8,1.8-0.2,2.1c0.7,0.3,3.2-0.2,3.6,0.1s-0.2-1.5-0.2-1.5s0.8-1.1,0.2-1.7
						S17,37.4,16.2,38.8z"/>
					<path fill="#D94F0A" d="M19.3,37.1c0,0,1.4,0,1.5,1.3c0.1,0.9,0.5,4.2,0.7,4.5c-0.6-1.7-1.9-1.9-1.9-1.9l-0.5-1.2
						c0,0,1.3-0.7,0.9-1.4S19.3,37.1,19.3,37.1z"/>
					<path fill="#F98130" d="M17.5,39.4c0,0-0.1,1.4,1.7,0.8c1.4-0.5,1.6-1.6,1.2-2.3c-0.4-0.7-1.8-1.4-3.8-0.1
						c-1.5,0.9-1.9,2.8-1.2,3.4c0.8,0.5,3.1,0,3.7,0c-1.3-0.1-2.4-0.2-2.7-1.1c-0.3-0.9,0.6-1.6,1.2-1.9c0.7-0.3,1.6-0.4,1.9,0.2
						c0.2,0.5-0.3,1.2-1,1.3S17.5,39.4,17.5,39.4z"/>
					<path fill="#FFC116" d="M15.3,41.2c1,0.9,3.4-0.2,4.4,0.1c1.3,0.3,1.3,1.3,1.3,1.3l0.2-0.1c0,0-0.3-1.5-1.5-1.7
						c-1.2-0.1-3.7,0.8-4.3,0C14.9,40.2,14.9,40.8,15.3,41.2z"/>
				</g>
				<g>
					<path fill="#C9531F" d="M16,46.1c0,0,2.6,1.6,4.7,0.8c3.4-1.3,2.1-3.7,2.1-3.7S18.9,42.4,16,46.1z"/>
					<path fill="#A12D00" d="M16.6,46c0,0,2.8,1.4,3.9,0.6c1-0.8-0.7-1.9,0.2-2.9C21.3,43.1,18.7,43.2,16.6,46z"/>
					<path fill="#D94F0A" d="M14.1,42.4c0,0-1.3,0.9-1.1,1.9c0.2,1,1,2,2.7,1.9c2.8-0.1,3.4-2.2,5.2-3c-0.9-0.2-3.1,0.9-4.4,0.6
						C15.1,43.6,14.1,42.4,14.1,42.4z"/>
					<path fill="#FF994D" d="M13.5,45.1c0,0,0.3,0.9,1.9,1.1c2.7,0.4,4.1-2.1,5.4-2.3c1.7-0.3,2.2-0.1,2.2,0.5
						c0.1-1.1-0.2-1.7-1.1-2C20.8,42,19.2,42.9,18,44C15.4,46.3,13.5,45.1,13.5,45.1z"/>
				</g>
			</g>
		</g>
		<path fill="none" stroke="#4D3617" stroke-width="0.75" stroke-miterlimit="10" d="M16.4,46.5c0,0,2.8,1.7,5,0.2
			c2.4-1.6,1.6-3.5,1.6-3.5"/>
	</g>
</g>
</svg>
