<?xml version="1.0" encoding="UTF-8" standalone="no"?><!DOCTYPE svg PUBLIC "-//W3C//DTD SVG 1.1//EN" "http://www.w3.org/Graphics/SVG/1.1/DTD/svg11.dtd"><svg width="100%" height="100%" viewBox="0 0 10 12" version="1.1" xmlns="http://www.w3.org/2000/svg" xmlns:xlink="http://www.w3.org/1999/xlink" xml:space="preserve" xmlns:serif="http://www.serif.com/" style="fill-rule:evenodd;clip-rule:evenodd;stroke-linejoin:round;stroke-miterlimit:1.41421;"><path d="M9.465,7.893c-0.18,-1.813 -1.784,-2.24 -2.5,-2.339c-0.086,-0.011 -0.201,-0.022 -0.337,-0.029c0.01,-0.049 -0.07,-0.119 -0.07,-0.119c-0.051,-0.201 -0.065,-0.446 -0.058,-0.68c0.185,-0.32 1.231,-2.397 0.069,-3.982c-0.657,-0.896 -2.465,-1.039 -3.342,-0.117c-1.453,1.526 -0.207,3.627 -0.027,3.913c0.036,0.614 -0.058,0.886 -0.105,0.979l-0.041,0c0,0 0.004,0.012 0.004,0.017c-0.433,0.017 -1.151,0.097 -1.896,0.427c-1.193,0.527 -1.132,2.707 -1.162,4.159c-0.02,0.792 0.688,1.198 1.888,1.403c0.006,0.001 0.012,0.003 0.014,0.003c1.013,0.172 2.376,0.199 3.961,0.181c0.777,-0.008 1.385,-0.045 1.87,-0.099c0.013,-0.003 0.024,-0.004 0.036,-0.004c0.154,-0.018 0.298,-0.039 0.433,-0.062c0.001,-0.001 0.006,-0.001 0.006,-0.001l0.004,0c1.253,-0.207 1.376,-0.566 1.422,-0.789c0,0 0.017,-0.953 -0.169,-2.861" style="fill:#8a5111;fill-rule:nonzero;"/></svg>