<?xml version="1.0" encoding="utf-8"?>
<!-- Generator: Adobe Illustrator 18.0.0, SVG Export Plug-In . SVG Version: 6.00 Build 0)  -->
<!DOCTYPE svg PUBLIC "-//W3C//DTD SVG 1.1//EN" "http://www.w3.org/Graphics/SVG/1.1/DTD/svg11.dtd">
<svg version="1.1" id="subscription" xmlns="http://www.w3.org/2000/svg" xmlns:xlink="http://www.w3.org/1999/xlink" x="0px"
	 y="0px" viewBox="0 0 62 64.5" enable-background="new 0 0 62 64.5" xml:space="preserve">
<symbol  id="spin_x5F_coin_x5F_reduce_x5F_big" viewBox="-29.1 -22.3 58.2 44.7">
	<g>
		<g>
			<path fill="#A57302" d="M25.7-1.2c0-9.1-12.2-16.5-27.2-16.5s-27.2,7.4-27.2,16.5c0,9.1,12.2,14.8,27.2,14.8S25.7,7.9,25.7-1.2z"
				/>
			<g>
				<path fill="#A57302" d="M14.5,1.3v-15.8c1.5,0.6,2.8,1.4,4,2.2V1.3H14.5z"/>
				<linearGradient id="SVGID_1_" gradientUnits="userSpaceOnUse" x1="14.501" y1="-6.571" x2="18.5357" y2="-6.571">
					<stop  offset="3.763440e-002" style="stop-color:#EFCC00;stop-opacity:0.5"/>
					<stop  offset="0.1129" style="stop-color:#EFCC00;stop-opacity:0.5"/>
				</linearGradient>
				<path fill="url(#SVGID_1_)" d="M14.5,1.3v-15.8c1.5,0.6,2.8,1.4,4,2.2V1.3H14.5z"/>
				<path fill="#A57302" d="M14.5-14.5V1.3h-3.4v-17.1C12.3-15.4,13.4-14.9,14.5-14.5z"/>
				<path opacity="0.5" fill="#75AD35" d="M14.5-14.5V1.3h-3.4v-17.1C12.3-15.4,13.4-14.9,14.5-14.5z"/>
				<path fill="#EFCC00" d="M14.5-14.5V1.3h-3.4v-17.1C12.3-15.4,13.4-14.9,14.5-14.5z"/>
				<path fill="#A57302" d="M-4.9,1.3h-10.7v-16.5c3.2-1.2,6.8-2,10.7-2.3V1.3z"/>
				<linearGradient id="SVGID_2_" gradientUnits="userSpaceOnUse" x1="-15.5203" y1="-8.0767" x2="-4.8689" y2="-8.0767">
					<stop  offset="3.763440e-002" style="stop-color:#EFCC00;stop-opacity:0.5"/>
					<stop  offset="0.1129" style="stop-color:#EFCC00;stop-opacity:0.5"/>
				</linearGradient>
				<path fill="url(#SVGID_2_)" d="M-4.9,1.3h-10.7v-16.5c3.2-1.2,6.8-2,10.7-2.3V1.3z"/>
				<polygon fill="#75AD35" points="-2.4,-17.6 -2.4,1.3 -2.4,1.3 -2.4,-17.6 				"/>
			</g>
			<path fill="#EFCC00" d="M-4.9,1.3v-18.8c0,0,0,0,0,0c0.5,0,1-0.1,1.6-0.1v0c0.6,0,1.2-0.1,1.9-0.1c0.3,0,0.5,0,0.8,0v0
				c2.1,0,4.1,0.2,6.1,0.5c0,0,0.1,0,0.1,0c0.9,0.1,1.8,0.3,2.7,0.5c0.1,0,0.2,0,0.2,0.1c0.9,0.2,1.8,0.5,2.6,0.7V1.3H-4.9z"/>
		</g>
		<path fill="#007A25" d="M25.8,4.7h-54.3V0.7h0c0,0,0,0,0,0c0-9.1,12.2-16.5,27.2-16.5S25.8-8.4,25.8,0.7c0,0,0,0,0,0h0V4.7z"/>
		<linearGradient id="SVGID_3_" gradientUnits="userSpaceOnUse" x1="-2.4481" y1="-5.5582" x2="18.5357" y2="-5.5582">
			<stop  offset="6.989250e-002" style="stop-color:#75AD35;stop-opacity:0.5"/>
			<stop  offset="0.1129" style="stop-color:#75AD35;stop-opacity:0.5"/>
		</linearGradient>
		<path fill="url(#SVGID_3_)" d="M-2.4-15.7c0.4,0,0.7,0,1.1,0c7.9,0,14.9,2,19.9,5.3V4.7h-21V-15.7z"/>
		<linearGradient id="SVGID_4_" gradientUnits="userSpaceOnUse" x1="-2.4465" y1="-5.5582" x2="14.501" y2="-5.5582">
			<stop  offset="0.1129" style="stop-color:#ACE561;stop-opacity:0.5"/>
			<stop  offset="0.2419" style="stop-color:#ACE561;stop-opacity:0.5"/>
		</linearGradient>
		<path fill="url(#SVGID_4_)" d="M-2.4-15.7c0.4,0,0.7,0,1.1,0c5.9,0,11.4,1.2,15.8,3.1V4.7H-2.4V-15.7z"/>
		<linearGradient id="SVGID_5_" gradientUnits="userSpaceOnUse" x1="-15.5203" y1="-5.5509" x2="-1.8006" y2="-5.5509">
			<stop  offset="6.989250e-002" style="stop-color:#75AD35;stop-opacity:0.5"/>
			<stop  offset="0.1129" style="stop-color:#75AD35;stop-opacity:0.5"/>
		</linearGradient>
		<path fill="url(#SVGID_5_)" d="M-15.5-13.3c4-1.5,8.7-2.4,13.7-2.4V4.7h-13.7V-13.3z"/>
		<linearGradient id="SVGID_6_" gradientUnits="userSpaceOnUse" x1="-4.8689" y1="-5.5582" x2="11.1105" y2="-5.5582">
			<stop  offset="0.1129" style="stop-color:#ACE561;stop-opacity:0.5"/>
			<stop  offset="0.2742" style="stop-color:#ACE561;stop-opacity:0.5"/>
		</linearGradient>
		<path fill="url(#SVGID_6_)" d="M-4.9-15.6c1.2-0.1,2.3-0.2,3.5-0.2c4.5,0,8.7,0.7,12.5,1.8V4.7h-16V-15.6z"/>
		<g>
			<path fill="#A57302" d="M-28.5,3.7c0-9.1,12.2-16.5,27.2-16.5S25.8-5.4,25.8,3.7c0,9.1-12.2,16.5-27.2,16.5S-28.5,12.8-28.5,3.7z
				"/>
			<g>
				<path fill="#A57302" d="M14.5,1.3v-11c1.5,0.6,2.8,1.4,4,2.2v8.8H14.5z"/>
				<linearGradient id="SVGID_7_" gradientUnits="userSpaceOnUse" x1="14.501" y1="-4.1664" x2="18.5357" y2="-4.1664">
					<stop  offset="3.763440e-002" style="stop-color:#EFCC00;stop-opacity:0.5"/>
					<stop  offset="0.1129" style="stop-color:#EFCC00;stop-opacity:0.5"/>
				</linearGradient>
				<path fill="url(#SVGID_7_)" d="M14.5,1.3v-11c1.5,0.6,2.8,1.4,4,2.2v8.8H14.5z"/>
				<path fill="#EFCC00" d="M14.5-9.7v11h-3.4v-12.2C12.3-10.6,13.4-10.1,14.5-9.7z"/>
				<path fill="#A57302" d="M-4.9,1.3h-10.7v-11.7c3.2-1.2,6.8-2,10.7-2.3V1.3z"/>
				<linearGradient id="SVGID_8_" gradientUnits="userSpaceOnUse" x1="-15.5203" y1="-5.6444" x2="-4.8689" y2="-5.6444">
					<stop  offset="3.763440e-002" style="stop-color:#EFCC00;stop-opacity:0.5"/>
					<stop  offset="0.1129" style="stop-color:#EFCC00;stop-opacity:0.5"/>
				</linearGradient>
				<path fill="url(#SVGID_8_)" d="M-4.9,1.3h-10.7v-11.7c3.2-1.2,6.8-2,10.7-2.3V1.3z"/>
				<path fill="#EFCC00" d="M-1.3-12.8c4.5,0,8.7,0.7,12.5,1.8V1.3h-16v-13.9C-3.7-12.7-2.5-12.8-1.3-12.8z"/>
			</g>
			<g>
				<path fill="#F7D73D" d="M-28.5,5.4c0-9.1,12.2-16.5,27.2-16.5S25.8-3.7,25.8,5.4c0,9.1-12.2,16.5-27.2,16.5S-28.5,14.5-28.5,5.4
					z"/>
				<path fill="#75AD35" d="M-1.3-9.4c14,0,25.5,6.6,25.5,14.8c0,8.1-11.4,14.8-25.5,14.8s-25.5-6.6-25.5-14.8
					C-26.8-2.8-15.4-9.4-1.3-9.4z"/>
			</g>
			<g>
				<linearGradient id="SVGID_9_" gradientUnits="userSpaceOnUse" x1="-22.459" y1="2.8415" x2="-6.9709" y2="2.8415">
					<stop  offset="0.1129" style="stop-color:#ACE561;stop-opacity:0.5"/>
					<stop  offset="0.2742" style="stop-color:#ACE561;stop-opacity:0.5"/>
				</linearGradient>
				<path fill="url(#SVGID_9_)" d="M-21,14.7L-7-9c-0.8,0.1-1.5,0.2-2.3,0.4l-13.2,22.2C-22,14-21.5,14.3-21,14.7z"/>
				<linearGradient id="SVGID_10_" gradientUnits="userSpaceOnUse" x1="4.6371" y1="4.2886" x2="17.4717" y2="4.2886">
					<stop  offset="0.1129" style="stop-color:#ACE561;stop-opacity:0.5"/>
					<stop  offset="0.2742" style="stop-color:#ACE561;stop-opacity:0.5"/>
				</linearGradient>
				<path fill="url(#SVGID_10_)" d="M17.5-4.5c-0.7-0.4-1.4-0.8-2.1-1.2L4.6,14.3L17.5-4.5z"/>
				<linearGradient id="SVGID_11_" gradientUnits="userSpaceOnUse" x1="-17.8939" y1="5.0899" x2="8.361" y2="5.0899">
					<stop  offset="0.1129" style="stop-color:#ACE561;stop-opacity:0.5"/>
					<stop  offset="0.2742" style="stop-color:#ACE561;stop-opacity:0.5"/>
				</linearGradient>
				<path fill="url(#SVGID_11_)" d="M-8.2,19.6L8.4-8.3C5.4-9,2.1-9.4-1.3-9.4c-0.4,0-0.8,0-1.2,0l-15.4,25.9
					C-15.1,17.9-11.8,19-8.2,19.6z"/>
			</g>
		</g>
		<path fill="#007A25" d="M-1.3,20.1c-10.1,0-18.8-3.4-22.9-8.4c4.6,3.8,12.2,6.3,20.9,6.3C10.6,18,22,11.4,22,3.3
			c0-2.3-0.9-4.4-2.5-6.3c2.9,2.4,4.6,5.3,4.6,8.4C24.1,13.5,12.7,20.1-1.3,20.1z"/>
		<path fill="#A57302" d="M-1.3,20.1c-10.2,0-19-3.5-23.1-8.6c4.3,4.5,12.7,7.6,22.3,7.6c14,0,25.5-6.6,25.5-14.8
			c0-2.2-0.9-4.3-2.4-6.2c2,2.1,3.2,4.6,3.2,7.1C24.1,13.5,12.7,20.1-1.3,20.1z"/>
		<path fill="#FFF8B3" d="M21.2,12.2c1.9-2.1,2.9-4.4,2.9-6.9c0-8.1-11.4-14.8-25.5-14.8c-9.2,0-17.3,2.9-21.8,7.1
			c4.3-4.7,12.8-7.9,22.5-7.9c14,0,25.5,6.6,25.5,14.8C24.9,7.4,23.5,10,21.2,12.2z"/>
		<path fill="#A57302" d="M25.7,6.3c0-0.3,0.1-0.6,0.1-1c0-9.1-12.2-16.5-27.2-16.5c-14,0-25.6,6.5-27,14.7
			C-27.5-5-15.7-11.9-1.3-11.9c15,0,27.2,7.4,27.2,16.5C25.9,5.2,25.8,5.8,25.7,6.3z"/>
		<g>
			<g>
				<g>
					<path fill="#A57302" d="M12.1,4.5C10.7,4.7,8,5,5.5,5.2c2.8,1.6,7.4,4.2,6.1,6.1c-1.5,2.1-3.4,1.9-4.8,1.6
						c-1.4-0.2-1.7-0.2-2.2-0.1c-1.4,0.5-2.4,1.6-3.8,1.4c-1.4-0.1-4-0.7-4.3-2.5C-3.8,11-4,9.7-4.1,8.3c-2.4,1.8-5.9,4-8.8,3.3
						c-3.5-0.8-3.3-2-3-2.8c0.3-0.9,0.3-1,0-1.3c-0.9-0.8-2.8-1.4-2.6-2.2c0.2-0.8,0.9-2.5,3.9-2.8C-13.3,2.4-11,2.1-8.7,2
						c-2.9-1.5-7.7-4.1-6.5-6c1.4-2.1,3.3-1.9,4.8-1.7c1.4,0.2,1.7,0.2,2.2,0c1.4-0.5,2.3-1.6,3.7-1.5c1.4,0.1,4,0.6,4.5,2.4
						c0.2,0.8,0.5,2,0.7,3.3c1.2-1.1,4.5-2.1,4.5-2.1c1.6-0.8,3.3-1.3,4.8-1c3.6,0.7,3.4,1.9,3.1,2.8c-0.3,0.9-0.2,1,0.1,1.3
						c0.9,0.8,2.8,1.3,2.7,2.2C15.8,2.5,15.1,4.1,12.1,4.5z M2.4,11.5c0.3,0.7,3.8,0.2,3.4-0.5c-0.4-0.6-4.5-6.1-6-5.8
						C-1.6,5.6,2.2,11.1,2.4,11.5z M-12.9,8.1c1-0.3,10.1-3,9.3-4c-0.7-0.8-10.1,1.2-10.9,1.4C-15.6,5.8-14,8.4-12.9,8.1z M-5.8-4.5
						c-0.5-0.7-3.7,0.2-3,0.9c0.5,0.6,4.4,5.7,6,5.3C-0.5,1.1-5.4-4.1-5.8-4.5z M10.2-1c-1,0.3-9,2.8-8.6,3.7c0.4,0.9,9-1.4,9.7-1.5
						C12.5,1,11.3-1.3,10.2-1z"/>
				</g>
				<g>
					<path fill="#EFCC00" d="M11.8,6c-1.5,0.2-4.1,0.5-6.6,0.7c2.8,1.6,7.4,4.2,6.1,6.1c-1.5,2.1-3.4,1.9-4.8,1.6
						c-1.4-0.2-1.7-0.2-2.2-0.1c-1.4,0.5-2.4,1.6-3.8,1.4c-1.4-0.1-4-0.7-4.3-2.5c-0.2-0.8-0.4-2.1-0.5-3.5c-2.4,1.8-5.9,4-8.8,3.3
						c-3.5-0.8-3.3-2-3-2.8c0.3-0.9,0.3-1,0-1.3c-0.9-0.8-2.8-1.4-2.6-2.2c0.2-0.8,0.9-2.5,3.9-2.8c1.3-0.1,3.6-0.4,5.9-0.5
						c-2.9-1.5-7.7-4.1-6.5-6c1.4-2.1,3.3-1.9,4.8-1.7c1.4,0.2,1.7,0.2,2.2,0c1.4-0.5,2.3-1.6,3.7-1.5c1.4,0.1,4,0.6,4.5,2.4
						c0.2,0.8,0.5,2,0.7,3.4c1.2-1.1,4.5-2.1,4.5-2.1c1.6-0.8,3.3-1.3,4.8-1c3.6,0.7,3.4,1.9,3.1,2.8c-0.3,0.9-0.2,1,0.1,1.3
						c0.9,0.8,2.8,1.3,2.7,2.2C15.5,4,14.7,5.6,11.8,6z M2.1,13c0.3,0.7,3.8,0.2,3.4-0.5c-0.4-0.6-4.5-6.1-6-5.8
						C-1.9,7,1.9,12.6,2.1,13z M-13.2,9.6c1-0.3,10.1-3,9.3-4C-4.6,4.9-14,6.9-14.8,7C-15.9,7.2-14.4,9.9-13.2,9.6z M-6.1-3.1
						c-0.5-0.7-3.7,0.2-3.1,0.9c0.5,0.6,4.4,5.7,6,5.3C-0.8,2.6-5.7-2.6-6.1-3.1z M9.9,0.5c-1,0.3-9,2.8-8.6,3.7
						c0.4,0.9,9-1.3,9.7-1.5C12.2,2.4,11,0.1,9.9,0.5z"/>
				</g>
			</g>
			<g>
				<path fill="#FFF8B3" d="M10.6-0.1c1.2-0.3,2.3,2,1.2,2.2c0,0-0.1,0-0.2,0.1c0.1-0.7-0.8-2-1.6-1.7C9.1,0.7,4,2.3,2,3.4
					C2.7,2.3,9.7,0.2,10.6-0.1z"/>
				<path fill="#FFF8B3" d="M-5.4-3.6c0.3,0.4,5.2,5.6,3,6.2c0,0-0.1,0-0.1,0c0.3-1.5-3.2-5.3-3.5-5.6C-6.4-3.5-7.7-3.3-8.5-3
					C-8.4-3.6-5.8-4.2-5.4-3.6z"/>
				<path fill="#FFF8B3" d="M-3.2,5.1C-3,5.3-3.3,5.6-3.9,5.9c0.1-0.1,0.1-0.2,0-0.3c-0.6-0.7-8.8,0.9-10.6,1.3
					c0-0.2,0.1-0.4,0.4-0.5C-13.3,6.3-3.9,4.3-3.2,5.1z"/>
				<path fill="#FFF8B3" d="M-14.8-3.1c-1.2,2,3.6,4.5,6.5,6c-0.5,0-1,0.1-1.6,0.1c-2.9-1.5-6.7-3.8-5.6-5.6c0.4-0.6,0.8-1,1.3-1.3
					C-14.4-3.7-14.6-3.4-14.8-3.1z"/>
				<path fill="#FFF8B3" d="M-18.1,6.2c-0.1,0.8,1.8,1.4,2.6,2.2c0.3,0.3,0.3,0.5,0,1.3c-0.3,0.9-0.6,2.1,3,2.8
					c2.9,0.6,6.3-1.6,8.8-3.3c0.1,1.4,0.3,2.7,0.5,3.5c0.3,1.8,3,2.4,4.3,2.5c1.4,0.1,2.3-1,3.8-1.4c0.5-0.2,0.8-0.2,2.2,0.1
					c1.1,0.2,2.4,0.3,3.6-0.4c-1.4,1.4-3,1.2-4.3,1c-1.4-0.2-1.7-0.2-2.2-0.1c-1.4,0.5-2.4,1.6-3.8,1.4c-1.4-0.1-4-0.7-4.3-2.5
					c-0.2-0.8-0.4-2.1-0.5-3.5c-2.4,1.8-5.9,4-8.8,3.3c-3.5-0.8-3.3-2-3-2.8c0.3-0.9,0.3-1,0-1.3c-0.9-0.8-2.8-1.4-2.6-2.2
					c0.1-0.5,0.5-1.4,1.5-2C-17.8,5.3-18,5.8-18.1,6.2z"/>
				<path fill="#FFF8B3" d="M5.5,12.6C5.5,12.5,5.5,12.5,5.5,12.6c-0.3-0.6-3.9-5.4-5.6-5.8c0-0.3,0.1-0.5,0.3-0.6
					c1.5-0.3,5.6,5.2,6,5.8C6.4,12.2,6,12.4,5.5,12.6z"/>
				<path fill="#FFF8B3" d="M6.7,6.6C6.4,6.4,6.1,6.2,5.9,6.1C8.4,6,11,5.6,12.5,5.4c1-0.1,1.7-0.4,2.3-0.8c-0.6,0.6-1.5,1.1-3,1.3
					C10.6,6.1,8.7,6.4,6.7,6.6z"/>
			</g>
		</g>
		<g>
			<path fill="#4D3617" d="M-1.3,21.8c14.5,0,26.3-6.9,27.1-15.6c0.1-0.5,0.1-1.1,0.1-1.6c0-0.3,0-0.6-0.1-0.8V0.7h0c0,0,0,0,0,0
				c0-0.5-0.1-1-0.1-1.5c0-0.1,0-0.2,0-0.3c0-4.3-2.7-8.2-7.2-11.1c0,0,0,0,0,0c-0.6-0.4-1.2-0.8-1.9-1.1c0,0,0,0,0,0
				c-3.1-1.7-6.9-2.9-11-3.6c0,0,0,0,0,0c0,0-0.1,0-0.1,0c-1.9-0.3-4-0.5-6.1-0.5c-0.3,0-0.5,0-0.8,0c-0.6,0-1.2,0-1.9,0.1
				c-0.5,0-1,0-1.6,0.1c0,0,0,0,0,0c0,0,0,0,0,0c-1,0.1-1.9,0.2-2.8,0.3c0,0-0.1,0-0.1,0c-0.9,0.1-1.8,0.3-2.6,0.5c0,0-0.1,0-0.1,0
				c-0.9,0.2-1.7,0.4-2.5,0.6c0,0,0,0,0,0c-9.2,2.6-15.5,8.3-15.5,14.9c0,0.5,0.1,1,0.1,1.5c0,0.1,0,0.2,0,0.3c0,0,0,0,0,0h0v3.9
				h0.1c0,0.2-0.1,0.5-0.1,0.7C-28.5,14.5-16.3,21.8-1.3,21.8 M-1.3,22.3c-15.3,0-27.7-7.6-27.7-17c0-0.2,0-0.3,0-0.5c0,0,0,0,0,0
				c0-0.1,0-0.1,0-0.2V0.7c0,0,0,0,0,0c0,0,0,0,0,0c0-0.1,0-0.2,0-0.2c0,0,0,0,0-0.1c-0.1-0.6-0.1-1.1-0.1-1.5
				c0-6.6,6.1-12.5,15.9-15.3c0.9-0.3,1.7-0.5,2.6-0.7l0.1,0c0.9-0.2,1.8-0.3,2.7-0.5c0,0,0.1,0,0.1,0c1-0.1,1.9-0.2,2.8-0.3
				c0,0,0,0,0.1,0c0.5,0,1-0.1,1.5-0.1l0.3,0c0.5,0,1.1,0,1.6,0c0.2,0,0.3,0,0.5,0c0.1,0,0.2,0,0.3,0c2.1,0,4.1,0.2,6.1,0.5l0.1,0
				c0,0,0,0,0.1,0l0,0c0,0,0,0,0,0c4.1,0.7,8,1.9,11.2,3.7c0,0,0,0,0,0c0.7,0.4,1.3,0.8,2,1.2c0,0,0,0,0,0c4.8,3.2,7.4,7.3,7.4,11.5
				c0,0.1,0,0.2,0,0.2c0,0,0,0,0,0.1c0.1,0.6,0.1,1.1,0.1,1.6c0,0,0,0,0,0c0,0,0,0,0,0v3.1c0,0,0,0.1,0,0.2c0,0.2,0,0.4,0,0.6
				c0,0.5,0,1.1-0.1,1.7C25.5,15.3,13.4,22.3-1.3,22.3L-1.3,22.3z"/>
		</g>
	</g>
	<g>
		
			<linearGradient id="SVGID_12_" gradientUnits="userSpaceOnUse" x1="8445.3301" y1="-30785.2148" x2="8445.3301" y2="-30750.3145" gradientTransform="matrix(-0.695 0 0 -0.695 5884.6826 -21392.7402)">
			<stop  offset="0" style="stop-color:#42B22F"/>
			<stop  offset="0.7455" style="stop-color:#5BF541"/>
		</linearGradient>
		<path fill="url(#SVGID_12_)" d="M21,5.2c0-0.3,0-12.7,0-13h7.9l-14-14.3L0.6-7.8h8c0,0.3,0,12.6,0,12.8C9.5,5.3,21,5.2,21,5.2"/>
		
			<linearGradient id="SVGID_13_" gradientUnits="userSpaceOnUse" x1="8445.3525" y1="-30756.1895" x2="8444.624" y2="-30763.0371" gradientTransform="matrix(-0.695 0 0 -0.695 5884.6826 -21392.7402)">
			<stop  offset="0.3152" style="stop-color:#FFFFFF;stop-opacity:0.58"/>
			<stop  offset="1" style="stop-color:#FFFFFF;stop-opacity:0"/>
		</linearGradient>
		<path fill="url(#SVGID_13_)" d="M12.9-14.2c0,0.9,0.9,1.6,2,1.6c1.1,0,2-0.7,2-1.6c0-0.9-0.9-1.6-2-1.6
			C13.8-15.8,12.9-15.1,12.9-14.2z"/>
		<g>
			<path fill="#2C8915" d="M14.9-19L6-10l2.6,0l2.1,0l0,2.1l0.1,11h8.1L18.8-7.8l0-2.1h2.1h2.9L14.9-19 M14.9-22L28.7-7.8h-7.8
				L21,5.1H8.7L8.6-8L0.9-7.9L14.9-22L14.9-22z"/>
		</g>
		
			<path fill="none" stroke="#4D3617" stroke-width="0.3475" stroke-linecap="round" stroke-linejoin="round" stroke-miterlimit="10" d="
			M8.7,5.1c0-0.3,0-12.7,0-12.9h-8l14.2-14.3l14,14.3H21c0,0.3,0,12.7,0,13L8.7,5.1z"/>
	</g>
</symbol>
<use xlink:href="#spin_x5F_coin_x5F_reduce_x5F_big"  width="58.2" height="44.7" x="-29.1" y="-22.3" transform="matrix(1 0 0 -1 30.4452 34.3149)" overflow="visible"/>
</svg>
