<?xml version="1.0" encoding="utf-8"?>
<!-- Generator: Adobe Illustrator 18.0.0, SVG Export Plug-In . SVG Version: 6.00 Build 0)  -->
<!DOCTYPE svg PUBLIC "-//W3C//DTD SVG 1.1//EN" "http://www.w3.org/Graphics/SVG/1.1/DTD/svg11.dtd">
<svg version="1.1" id="subscription" xmlns="http://www.w3.org/2000/svg" xmlns:xlink="http://www.w3.org/1999/xlink" x="0px"
	 y="0px" viewBox="0 0 62 64.5" enable-background="new 0 0 62 64.5" xml:space="preserve">
<symbol  id="gold_x5F_plus_x5F_big" viewBox="-26.2 -18.8 52.3 37.7">
	<g id="GoldPellet_3_">
		<g>
			<g>
				<g>
					<path fill="#C78E00" d="M12.5,6.3c0,0,0-9.5,0-10.5c-0.1-4.6-8.7-8.3-19.2-8.2c-10.5,0.1-19,3.9-18.9,8.5
						c0,1.1,0.1,10.5,0.1,10.5s11.1,1.6,19.1,1.5C1.7,8,12.5,6.3,12.5,6.3z"/>
					<path fill="#9E7000" d="M-6.4-7.1h-0.4C-17-7-24.8-3.7-25.6-0.3c0-0.3,0-0.6,0-0.9C-23.7-5-16-8-6.8-8.1l0.4,0
						c9.2,0,17,2.9,18.9,6.8c0,0.2,0,0.4,0,0.7C11.8-3.8,3.7-7.1-6.4-7.1z"/>
					<path fill="#DCB416" d="M7.5-9.8c-0.8-0.4-1.6-0.7-2.6-1L4.6,0l2.7,1L7.5-9.8z M-12.4-1.1c0,0-0.1-9.7-0.1-10.9
						c1.8-0.3,3.7-0.4,5.7-0.4c0.7,0,1.3,0,2,0l0.1,11C-4.7-1.4-11.4-1.3-12.4-1.1z"/>
					<path fill="#F7D73D" d="M5.2,0.1C5.1,0-5.5-1.7-5.5-1.7l-0.1-10.8c4,0.1,7.7,0.7,10.7,1.7C5.1-10.7,5.2,0.2,5.2,0.1z"/>
					<path fill="#C78E00" d="M7.4-4.7c-5.8-2.3-13.3-2.8-19.8-2c0-0.3,0-0.6,0-0.9c0.7-0.1,1.4-0.2,2.1-0.2C-9.1-8-7.8-8.1-6.6-8.1
						c2,0,4,0.1,5.9,0.4C1.3-7.4,3.2-6.9,5-6.4c0.6,0.2,1.3,0.4,1.9,0.7C7.6-5.4,7.4-5.2,7.4-4.7C6.6-5,7.4-4.7,7.4-4.7z"/>
					<path fill="#FFF8B3" d="M5.2,0.1L3.3-0.6l0.3-10.6c0.5,0.2,1.1,0.3,1.6,0.5C5.1-10.7,5.2-0.3,5.2,0.1z"/>
					<path fill="#DCB416" d="M5-6.4c0.1,0,0.1,0,0.2,0.1c0,0.3,0,0.5,0,0.8C4.6-5.7,4-5.8,3.4-6l0-0.8C4-6.7,4.5-6.5,5-6.4z"/>
					<g>
						<path fill="#F7D73D" d="M-6.4-8.1l-0.4,0C-17-8-24.8-4.3-25.6-0.9c0-0.3,0-0.6,0-0.9C-23.7-5.7-16-8.9-6.8-9h0.4
							c9.2,0,17.3,3.2,18.9,7c0,0.2,0,0.4,0,0.7C11.8-4.4,3.7-8.1-6.4-8.1z"/>
						<path fill="#FFF8B3" d="M-5.6-9c4,0.1,7.7,0.8,10.7,1.8c0,0.2,0,0.6,0,0.8C2.2-7.3-1.5-8-5.6-8L-5.6-9z"/>
						<path fill="#C78E00" d="M-25.6-1.6C-25.6-1.7-25.6-1.7-25.6-1.6c0,0,0,0.1,0,0.1C-25.6-1.6-25.7-1.6-25.6-1.6z"/>
						<path fill="#C78E00" d="M12.5-2C12.5-2,12.5-2,12.5-2C12.5-2,12.5-2,12.5-2C12.5-2,12.5-2,12.5-2z"/>
					</g>
				</g>
				<g>
					<path fill="#9E7000" d="M12.5,4.1C12.5-0.5,3.8-4.2-6.7-4.1c-10.5,0.1-19,3.9-18.9,8.5c0.1,4.6,8.7,8.3,19.2,8.2
						C4.2,12.6,12.6,8.7,12.5,4.1z"/>
					<path fill="#F7D73D" d="M12.5,5.8C12.5,1.2,3.8-2.5-6.7-2.4c-10.5,0.1-19,3.9-18.9,8.5c0.1,4.6,8.7,8.3,19.2,8.2
						C4.2,14.3,12.6,10.4,12.5,5.8z"/>
					<path fill="#FFF8B3" d="M9.8,6.2C9.8,3.3,6.4,0.3-5.6-0.3c-8.2-0.4-15.5,3.1-15.5,6c0.1,2.9,6.8,5.8,15,5.7
						C2.1,11.3,9.9,9.1,9.8,6.2z"/>
					<path fill="#C78E00" d="M8,6.3C8,3.6,1.5,1.4-6.3,1.5c-7.9,0.1-14.2,2.3-14.1,5.1c0.1,2.7,6.5,4.9,14.4,4.9
						C1.8,11.3,8.1,9.1,8,6.3z"/>
					<path fill="#F7D73D" d="M-7.9,9c-5.5,0-10.3-1-12.7-2.6c0.1-2.7,6.4-4.9,14.1-4.9c5.3,0,9.9,0.9,12.4,2.4
						C6,4.1,6.1,4.2,6.1,4.4C5.5,7-0.5,9-7.9,9z"/>
					<g>
						<path fill="#FFF8B3" d="M-15.4,6.2l4.7-4.5c0.7-0.1,1.5-0.1,2.2-0.2L-15.4,6.2z"/>
						<path fill="#FFF8B3" d="M3.1,2.7C3.4,2.8,3.7,2.9,4,3l-7.1,5.7C-3.6,8.7-4,8.8-4.5,8.8L3.1,2.7z"/>
						<path fill="#FFF8B3" d="M-13.5,8.7l8.6-7.2c1.6,0.1,3.1,0.2,4.5,0.4L-9,9C-10.6,9-12.1,8.9-13.5,8.7z"/>
					</g>
				</g>
			</g>
			<g>
				<g>
					<path fill="#4D3617" d="M-6.7,14.4c0.1,0,0.3,0,0.4,0C3.8,14.3,12,10.7,12.5,6.3c0,0,0,0,0,0s0-0.1,0-0.2c0-0.1,0-0.2,0-0.2
						c0-0.1,0-0.1,0-0.2c0-1.5,0-9.1,0-9.9C12.4-8.8,4-12.4-6.4-12.4c-0.1,0-0.2,0-0.4,0c-10.5,0.1-19,3.9-18.9,8.5
						c0,0.9,0.1,8.4,0.1,9.9c0,0.1,0,0.2,0,0.2c0,0.1,0,0.1,0,0.2c0,0.1,0,0.2,0,0.2l0,0C-25,11-16.8,14.4-6.7,14.4 M-6.7,14.9
						c-10.3,0-18.5-3.5-19.3-8.1c0-0.1,0-0.1,0-0.2l0-0.2l0,0c0-0.1,0-0.1,0-0.2c0-0.1,0-0.1,0-0.2l0-0.1c0-0.7,0-3-0.1-5.2
						c0-2.1,0-4.1,0-4.6c0-1.3,0.5-2.6,1.7-3.7c3.1-3.2,10-5.2,17.7-5.3l0.4,0c10.8,0,19.3,3.8,19.4,8.7c0,0.5,0,3.3,0,5.9
						c0,1.8,0,3.4,0,4c0,0.1,0,0.1,0,0.2c0,0.1,0,0.2,0,0.2c0,0,0,0,0,0.1l0,0.2c0,0.1,0,0.1,0,0.2c-0.6,4.7-8.9,8.3-19.3,8.4
						L-6.7,14.9L-6.7,14.9z"/>
				</g>
			</g>
			<g>
				<g>
					<path fill="#8C6300" d="M-4.3,12.4c0,0-4.2-2.5-6.4-6.1c-2.1-3.6-1.3-7.1,0.1-10.2l2.8-7l-1.8-1.5c0,0,5.2-0.2,8.6,0
						C2.5-12.2-4.3,12.4-4.3,12.4z"/>
					<path fill="#C78E00" d="M23.8-8c0,0-5.5-5.6-6.5-6.6C12.7-19,3.7-17.2-3-10.5C-9.7-3.8-11.4,5.3-6.9,9.7
						c1.1,1.1,6.5,6.5,6.5,6.5s8.7-5.4,13.7-10.5C18.5,0.6,23.8-8,23.8-8z"/>
					<path fill="#9E7000" d="M0.6-7.3L0.3-7.1C-6.1-0.6-8,7.6-5.2,11.5c-0.3-0.3-0.6-0.6-0.9-0.9c-2.5-5-0.4-12.7,5.5-18.6l0.2-0.2
						c5.9-5.8,13.7-7.8,18.6-5.2c0.2,0.2,0.4,0.4,0.7,0.7C15.4-15.6,7-13.7,0.6-7.3z"/>
					<path fill="#DCB416" d="M8.7-16.9c-0.9,0.1-1.7,0.3-2.6,0.6l6.6,7.1l2.6-0.7L8.7-16.9z M0.6,0.4c0,0-5.8-5.7-6.9-7
						c0.9-1.4,2-2.7,3.2-4c0.4-0.4,0.9-0.8,1.3-1.2l7,7C5.3-4.7,1.1-0.4,0.6,0.4z"/>
					<path fill="#F7D73D" d="M13.1-9.4C13-9.4,4.5-4.4,4.5-4.4l-6.8-6.8c2.7-2.5,5.6-4.2,8.5-5.1C6.4-16.2,13.2-9.3,13.1-9.4z"/>
					<path fill="#C78E00" d="M11.7-13.7C5.7-12.3,0.4-8.1-2.9-3.1c-0.3-0.3-0.6-0.6-0.9-0.9c0.3-0.5,0.7-1,1.1-1.5
						c0.7-0.9,1.4-1.8,2.3-2.6c1.3-1.3,2.7-2.4,4.2-3.3c1.5-1,3.2-1.8,4.8-2.3c0.6-0.2,1.3-0.4,1.9-0.5
						C11.2-14.5,11.2-14.2,11.7-13.7C10.9-13.5,11.7-13.7,11.7-13.7z"/>
					<path fill="#FFF8B3" d="M13.1-9.4l-1.9,0.6l-6.4-6.9c0.5-0.2,1-0.4,1.5-0.5C6.4-16.2,12.7-9.9,13.1-9.4z"/>
					<path fill="#DCB416" d="M8.5-13.8c0.1,0,0.1,0,0.2,0c0.2,0.3,0.5,0.5,0.8,0.8c-0.5,0.2-1,0.4-1.5,0.6l-0.8-0.8
						C7.6-13.4,8.1-13.6,8.5-13.8z"/>
					<g>
						<path fill="#F7D73D" d="M-0.4-8.3l-0.2,0.2C-7.1-1.5-8.6,7-5.8,10.9c-0.3-0.3-0.6-0.6-0.9-0.9C-9.2,5-7.3-3-1.5-8.9l0.2-0.2
							c5.9-5.8,14.2-7.7,18.9-5c0.2,0.2,0.4,0.4,0.7,0.7C14.8-16.2,6.1-14.6-0.4-8.3z"/>
						<path fill="#FFF8B3" d="M-0.7-9.7c2.6-2.5,5.7-4.1,8.6-5c0.2,0.2,0.6,0.6,0.8,0.8c-2.9,0.9-5.9,2.6-8.5,5.1L-0.7-9.7z"/>
						<path fill="#C78E00" d="M-4.7,12C-4.7,12-4.7,12-4.7,12c0,0,0.1,0.1,0.1,0.1C-4.6,12.1-4.7,12-4.7,12z"/>
						<path fill="#C78E00" d="M19.5-12.3C19.5-12.4,19.5-12.4,19.5-12.3C19.4-12.4,19.4-12.4,19.5-12.3
							C19.5-12.4,19.5-12.4,19.5-12.3z"/>
					</g>
				</g>
				<g>
					<path fill="#9E7000" d="M22.4-9.4c-4.5-4.5-13.6-2.7-20.2,4c-6.7,6.7-8.4,15.8-3.9,20.3c4.5,4.5,13.6,2.7,20.2-4
						C25.2,4.2,26.9-4.9,22.4-9.4z"/>
					<path fill="#F7D73D" d="M23.3-8.4c-4.5-4.5-13.6-2.7-20.2,4c-6.7,6.7-8.4,15.8-3.9,20.3c4.5,4.5,13.6,2.7,20.2-4
						C26.1,5.1,27.8-3.9,23.3-8.4z"/>
					<path fill="#FFF8B3" d="M20.6-7C17.1-10.5,9.7-8.9,4.2-3.3C-1.4,2.2-3,9.6,0.6,13.1C4.1,16.7,11.5,15,17,9.5
						C22.6,3.9,24.2-3.5,20.6-7z"/>
					<path fill="#C78E00" d="M21.3-5.6C17.9-8.9,10.8-7.4,5.5-2C0.2,3.3-1.4,10.4,2,13.8c3.4,3.4,10.5,1.8,15.8-3.5
						C23.1,4.9,24.7-2.2,21.3-5.6z"/>
					<path fill="#F7D73D" d="M14.8,9.4c-5,5-11.5,6.7-15.1,4.1c-2.6-3.6-1-10.1,4-15.2c5-5,11.5-6.7,15.1-4.1
						C21.4-2.2,19.8,4.4,14.8,9.4z"/>
					<path fill="#FFF8B3" d="M13.8-7c0.3,0,0.6,0,0.9,0l2.4,13.4c-0.2,0.3-0.5,0.7-0.7,1L13.8-7z"/>
					<path fill="#FFF8B3" d="M10.3-6.1l3.2,16.6c-1.1,1-2.3,1.7-3.5,2.4c0,0,0-0.1,0-0.1L6.6-4.1C7.8-5,9-5.6,10.3-6.1z"/>
					<path fill="#FFF8B3" d="M2.6-0.6l2.9,11L4.3-2.3C4.3-2.3,2.4-0.5,2.6-0.6z"/>
				</g>
			</g>
			<g>
				<g>
					<path fill="#4D3617" d="M5.6,18.3c4.3,0,9.5-2.3,13.7-6.5c6.5-6.5,8.3-15.2,4.3-19.8c0,0,0,0,0,0S23.5-8,23.4-8.2
						c-0.1-0.1-0.1-0.2-0.2-0.3C23.1-8.5,23-8.5,23-8.6c-1.5-1.5-5.1-5.1-5.9-6c-1.7-1.7-4-2.5-6.6-2.5C6.2-17,1-14.7-3.2-10.5
						C-9.8-3.8-11.6,5.3-7.1,9.8c0.9,0.9,4.4,4.4,5.9,5.9c0.1,0.1,0.1,0.2,0.2,0.2c0.1,0.1,0.2,0.1,0.2,0.2c0.1,0.1,0.2,0.2,0.2,0.2
						s0,0,0,0C1.1,17.7,3.2,18.3,5.6,18.3 M5.6,18.8c-2.5,0-4.7-0.7-6.4-2.1c0,0-0.1,0-0.1-0.1c0,0-0.1-0.1-0.2-0.2l0,0
						c-0.1-0.1-0.1-0.1-0.2-0.2c-0.1-0.1-0.1-0.1-0.2-0.2c0,0,0-0.1-0.1-0.1L-2,15.5c-1.6-1.6-4.6-4.6-5.4-5.4
						c-4.7-4.7-2.9-14.1,3.9-21c4.1-4.2,9.4-6.6,14.1-6.6c2.8,0,5.2,0.9,6.9,2.6c0.8,0.8,4.3,4.3,5.8,5.8l0.1,0.1c0,0,0,0,0.1,0
						c0,0,0.1,0.1,0.1,0.1c0.1,0.1,0.1,0.1,0.2,0.2c0,0,0,0.1,0.1,0.1L24-8.3c0,0,0.1,0.1,0.1,0.2c4,4.9,2.1,13.8-4.5,20.4
						C15.5,16.4,10.2,18.8,5.6,18.8L5.6,18.8z"/>
				</g>
			</g>
		</g>
	</g>
	<g>
		<linearGradient id="SVGID_1_" gradientUnits="userSpaceOnUse" x1="3.4068" y1="-7.6569" x2="24.769" y2="-7.6569">
			<stop  offset="0" style="stop-color:#42B22F"/>
			<stop  offset="0.7455" style="stop-color:#5BF541"/>
		</linearGradient>
		<path fill="url(#SVGID_1_)" d="M24-4.3h-6.6v6.6c0,0.4-0.3,0.8-0.8,0.8h-5.1c-0.4,0-0.8-0.3-0.8-0.8v-6.6H4.2
			c-0.4,0-0.8-0.3-0.8-0.8v-5.1c0-0.4,0.3-0.8,0.8-0.8h6.6v-6.6c0-0.4,0.3-0.8,0.8-0.8h5.1c0.4,0,0.8,0.3,0.8,0.8v6.6H24
			c0.4,0,0.8,0.3,0.8,0.8v5.1C24.8-4.7,24.4-4.3,24-4.3z"/>
		<path fill="#2C8915" d="M24-10.2h-7.3v-6.6c0-0.4-0.3-0.8-0.8-0.8h-3.6c-0.4,0-0.8,0.3-0.8,0.8v6.6H4.2c-0.4,0-0.8,0.3-0.8,0.8
			v-0.8c0-0.4,0.3-0.8,0.8-0.8h6.6v-6.6c0-0.4,0.3-0.8,0.8-0.8h5.1c0.4,0,0.8,0.3,0.8,0.8v6.6H24c0.4,0,0.8,0.3,0.8,0.8v0.8
			C24.8-9.9,24.4-10.2,24-10.2z"/>
		<linearGradient id="SVGID_2_" gradientUnits="userSpaceOnUse" x1="4.1813" y1="-4.4553" x2="24.001" y2="-4.4553">
			<stop  offset="0.3152" style="stop-color:#FFFFFF;stop-opacity:0.58"/>
			<stop  offset="1" style="stop-color:#FFFFFF;stop-opacity:0"/>
		</linearGradient>
		<path fill="url(#SVGID_2_)" d="M24-5.1h-7.3V1c0,0.7-1.3,1-2.6,1c-1.3,0-2.6-0.3-2.6-1v-6.1H4.2c0.4-2.9,3-5.8,9.9-5.8
			C21-10.9,23.6-8,24-5.1z"/>
		<linearGradient id="SVGID_3_" gradientUnits="userSpaceOnUse" x1="15.0663" y1="-0.5906" x2="16.7185" y2="-0.5906">
			<stop  offset="0.3152" style="stop-color:#FFFFFF;stop-opacity:0.58"/>
			<stop  offset="1" style="stop-color:#FFFFFF;stop-opacity:0"/>
		</linearGradient>
		<path fill="url(#SVGID_3_)" d="M16.5-3.6c-0.4,0-0.7,1.3-1.1,3c-0.3,1.6-0.6,2.9-0.2,3c0.4,0,0.7-1.3,1-3
			C16.7-2.2,16.9-3.5,16.5-3.6z"/>
		<linearGradient id="SVGID_4_" gradientUnits="userSpaceOnUse" x1="21.9082" y1="-6.4879" x2="23.8365" y2="-6.4879">
			<stop  offset="0.3152" style="stop-color:#FFFFFF;stop-opacity:0.58"/>
			<stop  offset="1" style="stop-color:#FFFFFF;stop-opacity:0"/>
		</linearGradient>
		<path fill="url(#SVGID_4_)" d="M23.7-8.5c-0.2-0.1-0.7,0.5-1.3,1.8c-0.6,1.4-0.7,2.1-0.4,2.2c0.2,0.1,0.7-0.5,1.3-1.9
			C23.9-7.7,23.9-8.4,23.7-8.5z"/>
		<g>
			<path fill="#4D3617" d="M16.7,3c0.4,0,0.8-0.3,0.8-0.8v-6.6H24c0.4,0,0.8-0.3,0.8-0.8v-5.1c0-0.4-0.3-0.8-0.8-0.8h-6.6v-6.6
				c0-0.4-0.3-0.8-0.8-0.8h-5.1c-0.4,0-0.8,0.3-0.8,0.8v6.6H4.2c-0.4,0-0.8,0.3-0.8,0.8v5.1c0,0.4,0.3,0.8,0.8,0.8h6.6v6.6
				c0,0.4,0.3,0.8,0.8,0.8H16.7 M16.7,3.5h-5.1c-0.7,0-1.3-0.6-1.3-1.3v-6.1H4.2c-0.7,0-1.3-0.6-1.3-1.3v-5.1c0-0.7,0.6-1.3,1.3-1.3
				h6.1v-6.1c0-0.7,0.6-1.3,1.3-1.3h5.1c0.7,0,1.3,0.6,1.3,1.3v6.1H24c0.7,0,1.3,0.6,1.3,1.3v5.1c0,0.7-0.6,1.3-1.3,1.3h-6.1v6.1
				C17.9,3,17.4,3.5,16.7,3.5L16.7,3.5z"/>
		</g>
	</g>
</symbol>
<use xlink:href="#gold_x5F_plus_x5F_big"  width="52.3" height="37.7" x="-26.2" y="-18.8" transform="matrix(1 0 0 -1 30.9005 34.4341)" overflow="visible"/>
</svg>
