<!-- Generator: Adobe Illustrator 23.0.0, SVG Export Plug-In  -->
<svg version="1.1" xmlns="http://www.w3.org/2000/svg" xmlns:xlink="http://www.w3.org/1999/xlink" x="0px" y="0px" width="65px"
	 height="65px" viewBox="0 0 65 65" style="enable-background:new 0 0 65 65;" xml:space="preserve">
<style type="text/css">
	.st0{fill:url(#SVGID_1_);}
	.st1{fill:url(#SVGID_2_);}
	.st2{fill:url(#SVGID_3_);}
	.st3{fill:url(#SVGID_4_);}
	.st4{fill:#BAEB9D;}
	.st5{fill:#4D3617;}
	.st6{fill:url(#SVGID_5_);}
	.st7{fill:url(#SVGID_6_);}
	.st8{fill:url(#SVGID_7_);}
	.st9{fill:url(#SVGID_8_);}
	.st10{fill:url(#SVGID_9_);}
	.st11{fill:#FFFFFF;}
	.st12{fill:url(#SVGID_10_);}
	.st13{fill:url(#SVGID_11_);}
	.st14{fill:url(#SVGID_12_);}
	.st15{fill:url(#SVGID_13_);}
	.st16{fill:url(#SVGID_14_);}
	.st17{fill:url(#SVGID_15_);}
	.st18{fill:url(#SVGID_16_);}
	.st19{fill:url(#SVGID_17_);}
	.st20{fill:url(#SVGID_18_);}
	.st21{fill:url(#SVGID_19_);}
	.st22{fill:url(#SVGID_20_);}
	.st23{fill:url(#SVGID_21_);}
	.st24{fill:url(#SVGID_22_);}
</style>
<defs>
</defs>
<g id="repeat_x5F_poduction_x5F_green_x5F_big_Kopie">
	<g>
		<g>

				<linearGradient id="SVGID_1_" gradientUnits="userSpaceOnUse" x1="3542.67236" y1="-4112.06006" x2="3606.67236" y2="-4112.06006" gradientTransform="matrix(0 -1 1 0 4144.56006 3607.17236)">
				<stop  offset="0" style="stop-color:#B1DB55"/>
				<stop  offset="0.10831" style="stop-color:#96D249"/>
				<stop  offset="0.25417" style="stop-color:#78C73B"/>
				<stop  offset="0.40857" style="stop-color:#60BF31"/>
				<stop  offset="0.57333" style="stop-color:#50B92A"/>
				<stop  offset="0.75558" style="stop-color:#46B625"/>
				<stop  offset="0.9898" style="stop-color:#43B524"/>
			</linearGradient>
			<circle class="st0" cx="32.50001" cy="32.5" r="32.00001"/>

				<linearGradient id="SVGID_2_" gradientUnits="userSpaceOnUse" x1="4291.91113" y1="-3879.59253" x2="4320.67822" y2="-3879.59253" gradientTransform="matrix(-0.1849 -0.9828 1.0445 -0.1965 4877.40576 3487.15137)">
				<stop  offset="0" style="stop-color:#39A110;stop-opacity:0"/>
				<stop  offset="1" style="stop-color:#C8DE68"/>
			</linearGradient>
			<path class="st1" d="M31.59626,31.4013C19.12665,33.74834,7.8247,29.32003,6.35576,21.51302
				C4.88693,13.70601,13.80649,5.47368,26.27802,3.12858c12.47157-2.34701,23.77155,2.07925,25.24048,9.88626
				C52.98734,20.82195,44.06783,29.05429,31.59626,31.4013z"/>

				<linearGradient id="SVGID_3_" gradientUnits="userSpaceOnUse" x1="4287.43359" y1="-3898.8833" x2="4293.90674" y2="-3898.8833" gradientTransform="matrix(-0.1849 -0.9828 1.0445 -0.1965 4877.40576 3487.15137)">
				<stop  offset="0.00448" style="stop-color:#B7FF80;stop-opacity:0.1"/>
				<stop  offset="0.99556" style="stop-color:#B7FF80;stop-opacity:0.4"/>
			</linearGradient>
			<path class="st2" d="M12.27656,39.5923c-2.8058,0.52573-5.34778-0.46862-5.68056-2.22692
				c-0.32875-1.75634,1.67762-3.6072,4.48342-4.13488c2.8058-0.52769,5.34778,0.46862,5.67855,2.22496
				C17.08873,37.21179,15.08237,39.06264,12.27656,39.5923z"/>
			<linearGradient id="SVGID_4_" gradientUnits="userSpaceOnUse" x1="0.49999" y1="32.5" x2="64.49998" y2="32.5">
				<stop  offset="0" style="stop-color:#218F0E;stop-opacity:0.7"/>
				<stop  offset="1" style="stop-color:#218F0E;stop-opacity:0.7"/>
			</linearGradient>
			<path class="st3" d="M32.50003,0.5c-17.67362,0-32.00004,14.32432-32.00004,32c0,17.67168,14.32642,32,32.00004,32
				c17.67163,0,31.99996-14.32832,31.99996-32C64.49998,14.82432,50.17165,0.5,32.50003,0.5z M31.82467,60.83577
				c-16.52374,0-29.91684-13.39507-29.91684-29.91888c0-16.52375,13.3931-29.91878,29.91684-29.91878
				c16.5237,0,29.91881,13.39503,29.91881,29.91878C61.74348,47.4407,48.34837,60.83577,31.82467,60.83577z"/>
			<path class="st4" d="M46.15691,6.35972c-0.21463,0.37603-1.42356,0.09446-2.70734-0.63209
				c-1.27985-0.72454-2.14423-1.61854-1.92567-1.99457c0.20675-0.37805,1.41767-0.09849,2.69948,0.63008
				C45.50516,5.08767,46.36761,5.98167,46.15691,6.35972z"/>
			<g>
				<path class="st5" d="M32.5,0.5c17.67163,0,32,14.32431,32,32c0,17.67169-14.32837,32-32,32c-17.67358,0-32-14.32831-32-32
					C0.5,14.82431,14.82642,0.5,32.5,0.5 M32.5,0C14.57935,0,0,14.57944,0,32.5S14.57935,65,32.5,65S65,50.42056,65,32.5
					S50.42065,0,32.5,0L32.5,0z"/>
			</g>
		</g>
	</g>
	<g>
		<linearGradient id="SVGID_5_" gradientUnits="userSpaceOnUse" x1="29.57998" y1="56.86019" x2="29.57998" y2="22.30989">
			<stop  offset="0" style="stop-color:#FFFFB3;stop-opacity:0.6"/>
			<stop  offset="0.46004" style="stop-color:#FEFEA8;stop-opacity:0.55375"/>
			<stop  offset="0.99468" style="stop-color:#FCFC95;stop-opacity:0.5"/>
		</linearGradient>
		<path class="st6" d="M16.22479,47.63352c4.44972,4.44959,10.29331,6.67535,16.13883,6.67535
			c5.84539,0,11.68898-2.22577,16.13857-6.67535c1.45587-1.45587,1.45587-3.81447,0-5.27034
			c-1.45587-1.45594-3.81434-1.45594-5.27034,0c-5.99466,5.99105-15.74192,5.99105-21.73659,0
			c-2.90271-2.90272-4.50064-6.76269-4.50064-10.8683c0-1.02603,0.09977-2.03672,0.29494-3.02099
			c-1.8868-2.582-3.539-5.31249-4.72287-8.28997C7.59244,28.89768,8.79591,40.20464,16.22479,47.63352z"/>
		<linearGradient id="SVGID_6_" gradientUnits="userSpaceOnUse" x1="33.39282" y1="29.99736" x2="33.39282" y2="9.36642">
			<stop  offset="0.00532" style="stop-color:#FCFCA1;stop-opacity:0.6"/>
			<stop  offset="0.6328" style="stop-color:#FEFEBE;stop-opacity:0.72617"/>
			<stop  offset="1" style="stop-color:#FFFFC9;stop-opacity:0.8"/>
		</linearGradient>
		<path class="st7" d="M54.07146,24.79555c1.05214-1.32316-3.869-16.6986-3.869-16.6986l-4.1241,5.18616
			c-8.93579-6.73594-21.71906-6.06118-29.85357,2.07307c-1.47031,1.47031-2.67378,3.10316-3.65811,4.82774
			c1.18388,2.97748,2.83607,5.70798,4.72287,8.28997c0.58523-2.95415,2.02847-5.67008,4.2057-7.84737
			c5.43186-5.42844,13.93569-5.92074,19.94582-1.51162l-4.51056,5.67266C36.93051,24.78756,53.06741,26.05806,54.07146,24.79555z"/>
		<g>
			<linearGradient id="SVGID_7_" gradientUnits="userSpaceOnUse" x1="7.74046" y1="36.68719" x2="47.34295" y2="36.68719">
				<stop  offset="0" style="stop-color:#135208;stop-opacity:0.7"/>
				<stop  offset="0.72129" style="stop-color:#165D09;stop-opacity:0.7"/>
				<stop  offset="1" style="stop-color:#17630A;stop-opacity:0.7"/>
			</linearGradient>
			<path class="st8" d="M32.36359,54.30883c-5.84547,0-11.68917-2.22567-16.13876-6.67532
				c-8.33775-8.33775-8.86289-21.57298-1.57693-30.52879c-0.07585,0.07377-0.15787,0.13721-0.23296,0.2123
				c-8.8993,8.89917-8.8993,23.37809,0,32.27733c4.44959,4.44959,10.29329,6.67533,16.13863,6.67533
				c5.84547,0,11.68917-2.22574,16.13876-6.67533c0.27416-0.27422,0.47978-0.58707,0.65063-0.91326
				C43.06081,52.4171,37.7197,54.30883,32.36359,54.30883z"/>
			<linearGradient id="SVGID_8_" gradientUnits="userSpaceOnUse" x1="20.20446" y1="21.68451" x2="52.40862" y2="21.68451">
				<stop  offset="0" style="stop-color:#135208;stop-opacity:0.7"/>
				<stop  offset="0.72129" style="stop-color:#165D09;stop-opacity:0.7"/>
				<stop  offset="1" style="stop-color:#17630A;stop-opacity:0.7"/>
			</linearGradient>
			<path class="st9" d="M36.9306,24.78761l4.51057-5.67267c-6.01014-4.40914-14.51407-3.91689-19.94591,1.51161
				c-0.46907,0.46914-0.89103,0.97135-1.2908,1.48748c5.44292-4.96635,12.62883-5.72576,18.45376-1.45256l-4.51057,5.67267
				c0,0,17.10979,1.68477,18.11383,0.42225c0.16278-0.20474,0.18206-0.74733,0.09916-1.51608
				C47.98375,25.65703,36.9306,24.78761,36.9306,24.78761z"/>
			<linearGradient id="SVGID_9_" gradientUnits="userSpaceOnUse" x1="45.06432" y1="10.69003" x2="50.20246" y2="10.69003">
				<stop  offset="0" style="stop-color:#135208;stop-opacity:0.7"/>
				<stop  offset="0.72129" style="stop-color:#165D09;stop-opacity:0.7"/>
				<stop  offset="1" style="stop-color:#17630A;stop-opacity:0.7"/>
			</linearGradient>
			<polygon class="st10" points="46.07835,13.28311 50.20246,8.09695 48.56432,8.58413 45.06432,12.45913 			"/>
		</g>

			<ellipse transform="matrix(0.98331 -0.18192 0.18192 0.98331 -2.51124 9.3815)" class="st11" cx="49.88251" cy="18.37943" rx="0.968" ry="5.28001"/>

			<ellipse transform="matrix(0.01673 -0.99986 0.99986 0.01673 20.23607 43.59657)" class="st11" cx="32.28406" cy="11.50956" rx="1.39808" ry="6.15473"/>

			<linearGradient id="SVGID_10_" gradientUnits="userSpaceOnUse" x1="203.82701" y1="1292.67993" x2="208.9388" y2="1292.67993" gradientTransform="matrix(0.9566 0.29148 -0.31546 1.02651 256.55151 -1343.38586)">
			<stop  offset="0" style="stop-color:#FFFFFF;stop-opacity:0.6"/>
			<stop  offset="1" style="stop-color:#FAFBFC;stop-opacity:0.5"/>
		</linearGradient>
		<path class="st12" d="M45.57678,45.60275c1.34277,0.43566,2.70428-0.05256,3.04102-1.09046
			c0.33674-1.03791-0.47881-2.23246-1.82157-2.66812c-1.34277-0.43566-2.70428,0.05256-3.04102,1.09046
			S44.23402,45.1671,45.57678,45.60275z"/>
		<linearGradient id="SVGID_11_" gradientUnits="userSpaceOnUse" x1="10.41278" y1="42.28572" x2="46.84651" y2="42.28572">
			<stop  offset="0.00532" style="stop-color:#007820;stop-opacity:0.2"/>
			<stop  offset="0.98936" style="stop-color:#00821C;stop-opacity:0.3"/>
		</linearGradient>
		<path class="st13" d="M10.81046,31.18344c1.584,9.24001,14.12402,27.32404,36.03605,16.89602
			C23.74648,64.31549,7.64245,38.83945,10.81046,31.18344z"/>
	</g>
</g>
</svg>
