<!-- Generator: Adobe Illustrator 23.0.0, SVG Export Plug-In  -->
<svg version="1.1" xmlns="http://www.w3.org/2000/svg" xmlns:xlink="http://www.w3.org/1999/xlink" x="0px" y="0px"
	 width="20.14962px" height="20.14956px" viewBox="0 0 20.14962 20.14956" style="enable-background:new 0 0 20.14962 20.14956;"
	 xml:space="preserve">
<style type="text/css">
	.st0{fill:#8A5111;}
</style>
<defs>
</defs>
<g>
	<path class="st0" d="M10.07481,0C4.51065,0,0,4.51065,0,10.07481s4.51065,10.07475,10.07481,10.07475
		s10.07481-4.51058,10.07481-10.07475S15.63898,0,10.07481,0z M10.07481,18.47178c-4.63752,0-8.39704-3.75943-8.39704-8.39696
		s3.75951-8.39704,8.39704-8.39704s8.39704,3.75951,8.39704,8.39704S14.71234,18.47178,10.07481,18.47178z"/>
	<g>
		<path class="st0" d="M13.19769,4.51535l-2.8989,2.8989L7.39991,4.51537c-0.18509-0.18509-0.4857-0.18509-0.67079,0
			L4.46347,6.78103c-0.18649,0.18649-0.18649,0.48709-0.0014,0.67218l2.89888,2.89888l-2.89748,2.89748
			c-0.18649,0.18649-0.18649,0.48709-0.0007,0.67288l2.26636,2.26636c0.18509,0.18509,0.4857,0.18509,0.67218-0.0014
			l2.89748-2.89748l2.89957,2.89957c0.18439,0.18439,0.485,0.18439,0.67148-0.0021l2.26566-2.26566
			c0.18509-0.18509,0.18509-0.4857,0.0007-0.67009l-2.89957-2.89957l2.8989-2.8989c0.18505-0.18505,0.18509-0.4857,0-0.67079
			l-2.26636-2.26636C13.68339,4.33026,13.38274,4.3303,13.19769,4.51535z"/>
	</g>
</g>
</svg>
