<?xml version="1.0" encoding="utf-8"?>
<!-- Generator: Adobe Illustrator 22.1.0, SVG Export Plug-In . SVG Version: 6.00 Build 0)  -->
<svg version="1.1" id="Ebene_1" xmlns="http://www.w3.org/2000/svg" xmlns:xlink="http://www.w3.org/1999/xlink" x="0px" y="0px"
	 viewBox="0 0 780 510" style="enable-background:new 0 0 780 510;" xml:space="preserve">
<style type="text/css">
	.st0{fill:url(#SVGID_1_);}
	.st1{fill:url(#SVGID_2_);}
	.st2{fill:url(#SVGID_3_);}
	.st3{fill:url(#SVGID_4_);}
	.st4{fill:url(#SVGID_5_);}
	.st5{fill:url(#SVGID_6_);}
	.st6{fill:url(#SVGID_7_);}
	.st7{fill:url(#SVGID_8_);}
	.st8{fill:url(#SVGID_9_);}
	.st9{fill:url(#SVGID_10_);}
	.st10{fill:url(#SVGID_11_);}
	.st11{fill:url(#SVGID_12_);}
	.st12{fill:url(#SVGID_13_);}
	.st13{fill:url(#SVGID_14_);}
	.st14{fill:url(#SVGID_15_);}
	.st15{fill:url(#SVGID_16_);}
	.st16{fill:url(#SVGID_17_);}
	.st17{fill:url(#SVGID_18_);}
	.st18{fill:url(#SVGID_19_);}
	.st19{fill:url(#SVGID_20_);}
	.st20{fill:url(#SVGID_21_);}
	.st21{fill:url(#SVGID_22_);}
	.st22{fill:url(#SVGID_23_);}
	.st23{fill:url(#SVGID_24_);}
	.st24{fill:url(#SVGID_25_);}
	.st25{fill:url(#SVGID_26_);}
	.st26{fill:url(#SVGID_27_);}
	.st27{fill:url(#SVGID_28_);}
	.st28{fill:url(#SVGID_29_);}
	.st29{fill:url(#SVGID_30_);}
</style>
<g id="Holzmas._trans_white_1_">
	
		<linearGradient id="SVGID_1_" gradientUnits="userSpaceOnUse" x1="478.90692" y1="500.82831" x2="640.11194" y2="500.82831" gradientTransform="matrix(-1 0 0 -1 779.06836 540.78796)">
		<stop  offset="0" style="stop-color:#FFFFFF;stop-opacity:0.15"/>
		<stop  offset="1" style="stop-color:#FFFFFF;stop-opacity:0.15"/>
	</linearGradient>
	<path class="st0" d="M152.71785,38.73842c-8.69206,0.29456-13.76233,0.6599-13.7614,1.06454
		c0.00095,1.07468,36.09656,2.01874,80.61488,2.10708c44.50725,0.08575,80.59105-0.71632,80.5901-1.7906
		c-0.00919-1.0797-36.10208-2.0231-80.60934-2.10992c-3.97633-0.00805-7.8748-0.00849-11.6908-0.0024
		c0.38213,0.00173,0.60382,0.0024,0.60382,0.0024S179.39308,38.20944,152.71785,38.73842z"/>
	
		<linearGradient id="SVGID_2_" gradientUnits="userSpaceOnUse" x1="303.06143" y1="501.71671" x2="784.92035" y2="501.71671" gradientTransform="matrix(-1 0 0 -1 779.06836 540.78796)">
		<stop  offset="0" style="stop-color:#FFFFFF;stop-opacity:0.15"/>
		<stop  offset="1" style="stop-color:#FFFFFF;stop-opacity:0.15"/>
	</linearGradient>
	<path class="st1" d="M205.91989,34.78211c100.57434,1.03498,229.65912,1.76437,232.20612,5.4823
		c2.17877,3.171-178.84091,3.90599-218.51894,3.45623c-39.68166-0.44981-109.40657-0.60758-110.37404-2.81433
		c-0.44901-1.01937,20.63928-1.71444,43.48482-2.16789c26.67523-0.52898,55.74727-0.7289,55.74727-0.7289
		s-0.22169-0.00067-0.60382-0.0024c-9.49367-0.03214-132.17323-0.39526-133.35608,2.45704
		c-0.99402,2.40707,55.82429,4.1953,145.10919,4.55846c77.62251,0.31106,219.19096-1.62326,254.83315-3.84282
		c-7.85556-0.5661-9.25272-0.93882-9.25272-0.93882l-34.85056-3.18985c0,0,20.04288,0.99572,45.66266,2.12055
		c-32.18121-2.56337-172.74597-5.87107-277.53122-6.07641C96.65076,32.89598,11.23794,36.29792-5.85197,37.28622v2.1983
		C12.81664,38.27324,108.58981,33.77687,205.91989,34.78211z"/>
	
		<linearGradient id="SVGID_3_" gradientUnits="userSpaceOnUse" x1="-4.63313" y1="494.98755" x2="784.92035" y2="494.98755" gradientTransform="matrix(-1 0 0 -1 779.06836 540.78796)">
		<stop  offset="0" style="stop-color:#FFFFFF;stop-opacity:0.15"/>
		<stop  offset="1" style="stop-color:#FFFFFF;stop-opacity:0.15"/>
	</linearGradient>
	<path class="st2" d="M608.43805,45.05387c-88.32513,1.13852-201.7785,2.3539-309.2377,2.77783
		C107.36857,48.59234,11.32594,43.51743-5.85197,42.14624v3.49023c23.96057,0.72045,174.61617,4.45516,305.0614,3.72363
		c135.02365-0.75779,447.72342-3.20394,484.49203-3.5122v-2.75569C774.15649,43.89082,714.40289,46.44659,608.43805,45.05387z"/>
	
		<linearGradient id="SVGID_4_" gradientUnits="userSpaceOnUse" x1="-4.63313" y1="505.98099" x2="784.92035" y2="505.98099" gradientTransform="matrix(-1 0 0 -1 779.06836 540.78796)">
		<stop  offset="0" style="stop-color:#FFFFFF;stop-opacity:0.15"/>
		<stop  offset="1" style="stop-color:#FFFFFF;stop-opacity:0.15"/>
	</linearGradient>
	<path class="st3" d="M619.93091,35.54097c-74.24084-2.90653-231.54462-5.48186-387.93585-6.13719
		C99.6981,28.85044,11.47437,31.4805-5.85197,32.25737v3.72447c16.72074-1.48301,106.96561-6.46474,289.33762-4.02966
		c126.23492,1.68599,265.92004,4.3425,369.97412,6.59979c49.17133,1.06472,116.72815,1.59526,130.2417,1.73396v-2.63134
		C767.67291,37.76555,683.21716,38.01775,619.93091,35.54097z"/>
	
		<linearGradient id="SVGID_5_" gradientUnits="userSpaceOnUse" x1="-4.63313" y1="490.62885" x2="784.92035" y2="490.62885" gradientTransform="matrix(-1 0 0 -1 779.06836 540.78796)">
		<stop  offset="0" style="stop-color:#FFFFFF;stop-opacity:0.15"/>
		<stop  offset="1" style="stop-color:#FFFFFF;stop-opacity:0.15"/>
	</linearGradient>
	<path class="st4" d="M621.13068,51.02199c27.18097,0.22879,137.12189,0.05622,162.2561,0.72197l0.3147-1.3721v-0.44434
		c-16.3313-0.28024-102.6319-1.29308-177.14111-0.68248c-85.95404,0.70397-506.8942,1.75263-577.40149-0.0814
		C8.92455,48.63596-1.03089,48.42021-5.85197,48.33183v2.06543c6.28793,0.25766,12.57121,0.50686,18.84452,0.74824
		c20.31401,0.40158,75.98688,0.83116,140.08078,0.84072C273.99106,52.00293,554.11823,50.45174,621.13068,51.02199z"/>
	
		<linearGradient id="SVGID_6_" gradientUnits="userSpaceOnUse" x1="-4.63313" y1="499.53146" x2="348.72409" y2="499.53146" gradientTransform="matrix(-1 0 0 -1 779.06836 540.78796)">
		<stop  offset="0" style="stop-color:#FFFFFF;stop-opacity:0.15"/>
		<stop  offset="1" style="stop-color:#FFFFFF;stop-opacity:0.15"/>
	</linearGradient>
	<path class="st5" d="M465.19482,40.24099c0,0,1.39716,0.37272,9.25272,0.93882c11.55423,0.83355,37.08926,2.08605,92.74899,3.18922
		c14.75,0.29261,28.47467,0.51702,41.24152,0.68484c105.96484,1.39272,165.71844-1.16306,175.26343-1.96166v-0.31977
		c-18.36298-0.4146-109.39758,2.4846-233.99933-0.83724c-21.76398-0.5802-50.09518-1.72654-73.69522-2.76352
		c-25.61978-1.12482-45.66266-2.12055-45.66266-2.12055L465.19482,40.24099z"/>
	
		<linearGradient id="SVGID_7_" gradientUnits="userSpaceOnUse" x1="478.90692" y1="572.72498" x2="640.11194" y2="572.72498" gradientTransform="matrix(-1 0 0 -1 779.06836 540.78796)">
		<stop  offset="0" style="stop-color:#FFFFFF;stop-opacity:0.15"/>
		<stop  offset="1" style="stop-color:#FFFFFF;stop-opacity:0.15"/>
	</linearGradient>
	<path class="st6" d="M152.71785-33.15752c-8.69206,0.2939-13.76233,0.6599-13.7614,1.06365
		c0.00095,1.07495,36.09656,2.01919,80.61488,2.10686c44.50725,0.08642,80.59105-0.71587,80.5901-1.79082
		c-0.00919-1.07881-36.10208-2.02221-80.60934-2.10948c-3.97633-0.00738-7.8748-0.00822-11.6908-0.00174
		c0.38213,0.00129,0.60382,0.00174,0.60382,0.00174S179.39308-33.68717,152.71785-33.15752z"/>
	
		<linearGradient id="SVGID_8_" gradientUnits="userSpaceOnUse" x1="303.06143" y1="573.61322" x2="784.92035" y2="573.61322" gradientTransform="matrix(-1 0 0 -1 779.06836 540.78796)">
		<stop  offset="0" style="stop-color:#FFFFFF;stop-opacity:0.15"/>
		<stop  offset="1" style="stop-color:#FFFFFF;stop-opacity:0.15"/>
	</linearGradient>
	<path class="st7" d="M430.34427-34.84547c0,0,20.04288,0.99594,45.66266,2.12077
		c-32.18121-2.56359-172.74597-5.87085-277.53122-6.07663C96.65076-39.00059,11.23794-35.59913-5.85197-34.61016v2.19893
		c18.66861-1.21169,114.44179-5.70805,211.77187-4.70304c100.57434,1.03498,229.65912,1.76437,232.20612,5.4819
		c2.17877,3.17095-178.84091,3.90683-218.51894,3.45703c-39.68166-0.44976-109.40657-0.60776-110.37404-2.81495
		c-0.44901-1.01937,20.63928-1.7144,43.48482-2.16723c26.67523-0.52965,55.74727-0.72979,55.74727-0.72979
		s-0.22169-0.00045-0.60382-0.00174c-9.49367-0.03254-132.17323-0.39637-133.35608,2.45681
		c-0.99402,2.40685,55.82429,4.19553,145.10919,4.55847c77.62251,0.31084,219.18871-1.62371,254.83083-3.84259
		c-7.85324-0.56655-9.2504-0.93904-9.2504-0.93904L430.34427-34.84547z"/>
	
		<linearGradient id="SVGID_9_" gradientUnits="userSpaceOnUse" x1="-4.63313" y1="566.88385" x2="784.92035" y2="566.88385" gradientTransform="matrix(-1 0 0 -1 779.06836 540.78796)">
		<stop  offset="0" style="stop-color:#FFFFFF;stop-opacity:0.15"/>
		<stop  offset="1" style="stop-color:#FFFFFF;stop-opacity:0.15"/>
	</linearGradient>
	<path class="st8" d="M608.43805-26.84251c-88.32513,1.13829-201.7785,2.3539-309.2377,2.77761
		C107.36857-23.30427,11.32594-28.37936-5.85197-29.75038v3.49046c23.96057,0.72028,174.61617,4.45515,305.0614,3.72407
		c135.02365-0.75846,447.72342-3.20394,484.49203-3.51264l-10-2.75636C774.61761-28.88151,724.40118-25.31839,608.43805-26.84251z"
		/>
	
		<linearGradient id="SVGID_10_" gradientUnits="userSpaceOnUse" x1="704.84619" y1="578.27234" x2="784.92035" y2="578.27234" gradientTransform="matrix(-1 0 0 -1 779.06836 540.78796)">
		<stop  offset="0" style="stop-color:#FFFFFF;stop-opacity:0.15"/>
		<stop  offset="1" style="stop-color:#FFFFFF;stop-opacity:0.15"/>
	</linearGradient>
	<path class="st9" d="M-5.85197-35.91472c7.54034-0.66858,45.16767-2.04831,80.07413-3.1393H-5.85197V-35.91472z"/>
	
		<linearGradient id="SVGID_11_" gradientUnits="userSpaceOnUse" x1="5.36687" y1="576.12006" x2="433.38904" y2="576.12006" gradientTransform="matrix(-1 0 0 -1 779.06836 540.78796)">
		<stop  offset="0" style="stop-color:#FFFFFF;stop-opacity:0.15"/>
		<stop  offset="1" style="stop-color:#FFFFFF;stop-opacity:0.15"/>
	</linearGradient>
	<path class="st10" d="M653.45978-33.34419c49.17133,1.0645,106.72815,1.59588,120.2417,1.73396v-2.63135
		c-16.02856,0.11074-90.48431,0.36294-153.77057-2.11423c-24.36554-0.95296-57.67816-1.87159-96.96637-2.69821H345.67932
		C454.03906-37.40773,566.26068-35.23619,653.45978-33.34419z"/>
	
		<linearGradient id="SVGID_12_" gradientUnits="userSpaceOnUse" x1="-4.63313" y1="561.30005" x2="784.92035" y2="561.30005" gradientTransform="matrix(-1 0 0 -1 779.06836 540.78796)">
		<stop  offset="0" style="stop-color:#FFFFFF;stop-opacity:0.15"/>
		<stop  offset="1" style="stop-color:#FFFFFF;stop-opacity:0.15"/>
	</linearGradient>
	<path class="st11" d="M606.56036-22.65134c-85.95404,0.70418-506.8942,1.75263-577.40149-0.08162
		C8.92455-23.25999-1.03089-23.47618-5.85197-23.56433v2.31615c10.9624,0.40806,64.99523,1.32412,158.92531,1.33799
		c120.91772,0.01694,401.04489-1.53511,468.05734-0.9642c58.27509,0.49013,145.90137,2.81584,162.5708,3.41453v-4.50854
		C767.37018-22.24933,681.06958-23.26172,606.56036-22.65134z"/>
	
		<linearGradient id="SVGID_13_" gradientUnits="userSpaceOnUse" x1="5.35457" y1="571.44214" x2="348.72409" y2="571.44214" gradientTransform="matrix(-1 0 0 -1 779.06836 540.78796)">
		<stop  offset="0" style="stop-color:#FFFFFF;stop-opacity:0.15"/>
		<stop  offset="1" style="stop-color:#FFFFFF;stop-opacity:0.15"/>
	</linearGradient>
	<path class="st12" d="M549.70215-29.96052c-21.76398-0.58086-50.09518-1.72742-73.69522-2.76418
		c-25.61978-1.12482-45.66266-2.12077-45.66266-2.12077l34.85056,3.19007c0,0,1.39716,0.3725,9.2504,0.93904
		c11.55383,0.83311,37.09113,2.08561,92.75131,3.18918c14.75,0.29221,28.47467,0.51707,41.24152,0.68467
		c115.96313,1.52412,166.17957-2.039,165.26343-1.96233v-0.3195C755.3385-29.53854,674.30389-26.63935,549.70215-29.96052z"/>
	
		<linearGradient id="SVGID_14_" gradientUnits="userSpaceOnUse" x1="-4.63313" y1="557.05853" x2="784.92035" y2="557.05853" gradientTransform="matrix(-1 0 0 -1 779.06836 540.78796)">
		<stop  offset="0" style="stop-color:#FFFFFF;stop-opacity:0.15"/>
		<stop  offset="1" style="stop-color:#FFFFFF;stop-opacity:0.15"/>
	</linearGradient>
	<path class="st13" d="M631.3573-15.84096c-81.5874,0.05944-371.97418-1.88724-449.146-2.48549
		C86.21337-19.06575,9.69049-17.7078-5.85197-17.268v3.26951c17.11009-0.50706,102.75567-2.28272,186.61658-1.93019
		c68.52921,0.28785,316.57062,0.91561,405.43726,1.52902c78.14471,0.53618,179.09998,0.06473,197.49963-0.05641v-1.34195
		C769.89478-15.82056,700.22699-15.88831,631.3573-15.84096z"/>
	
		<linearGradient id="SVGID_15_" gradientUnits="userSpaceOnUse" x1="-4.63313" y1="551.0777" x2="784.92035" y2="551.0777" gradientTransform="matrix(-1 0 0 -1 779.06836 540.78796)">
		<stop  offset="0" style="stop-color:#FFFFFF;stop-opacity:0.15"/>
		<stop  offset="1" style="stop-color:#FFFFFF;stop-opacity:0.15"/>
	</linearGradient>
	<path class="st14" d="M441.97729-13.59429C318.69711-14.03712,31.18925-12.00451-5.85197-11.71794v1.31065
		c38.63633-0.29434,348.81653-2.46201,450.75238-1.65145c100.54959,0.79705,309.3168,4.54326,338.80106,5.1363v-4.75252
		C755.77057-11.88381,563.48236-13.15409,441.97729-13.59429z"/>
	
		<linearGradient id="SVGID_16_" gradientUnits="userSpaceOnUse" x1="-4.63313" y1="546.77808" x2="784.92035" y2="546.77808" gradientTransform="matrix(-1 0 0 -1 779.06836 540.78796)">
		<stop  offset="0" style="stop-color:#FFFFFF;stop-opacity:0.15"/>
		<stop  offset="1" style="stop-color:#FFFFFF;stop-opacity:0.15"/>
	</linearGradient>
	<path class="st15" d="M297.36337-6.86731C162.07312-7.61795,18.36416-7.91229-5.85197-7.96524v3.91506
		c28.79348-0.00956,216.40878-0.07771,298.84869-0.31475c84.96869-0.24442,450.04001,0.28612,490.70474,0.34991v-1.09619
		C746.02948-5.22582,426.94699-6.14272,297.36337-6.86731z"/>
	
		<linearGradient id="SVGID_17_" gradientUnits="userSpaceOnUse" x1="-4.63313" y1="540.08154" x2="784.92035" y2="540.08154" gradientTransform="matrix(-1 0 0 -1 779.06836 540.78796)">
		<stop  offset="0" style="stop-color:#FFFFFF;stop-opacity:0.15"/>
		<stop  offset="1" style="stop-color:#FFFFFF;stop-opacity:0.15"/>
	</linearGradient>
	<path class="st16" d="M557.12286-2.67614C471.16885-3.0638,125.4736-2.51028,73.03197-1.73968
		C36.82086-1.20829,1.05985-0.53497-5.85197-0.1694v2.75898c23.6884-0.69809,162.22633-4.05487,253.70464-3.55216
		C530.81091,0.59817,753.2868,3.72765,783.70148,4.21586v-4.57847C761.88391-0.70167,634.04779-2.32925,557.12286-2.67614z"/>
	
		<linearGradient id="SVGID_18_" gradientUnits="userSpaceOnUse" x1="-4.63313" y1="536.88055" x2="784.92035" y2="536.88055" gradientTransform="matrix(-1 0 0 -1 779.06836 540.78796)">
		<stop  offset="0" style="stop-color:#FFFFFF;stop-opacity:0.15"/>
		<stop  offset="1" style="stop-color:#FFFFFF;stop-opacity:0.15"/>
	</linearGradient>
	<path class="st17" d="M576.10571,5.87033c64.94,1.0982,186.35181,1.05476,207.59576,1.0324V5.3839
		c-10.7049,0.02823-62.90021,0.07273-114.36426-0.20512c-64.099-0.34427-304.92709-3.94893-350.09399-4.25457
		C277.44238,0.63854,28.11168,3.53858-5.85197,3.97033v2.18154c18.35891-0.23704,113.97729-1.20253,202.74271-1.97749
		C298.86505,3.28309,503.25201,4.63499,576.10571,5.87033z"/>
	
		<linearGradient id="SVGID_19_" gradientUnits="userSpaceOnUse" x1="181.15466" y1="531.74481" x2="432.8934" y2="531.74481" gradientTransform="matrix(-1 0 0 -1 779.06836 540.78796)">
		<stop  offset="0" style="stop-color:#FFFFFF;stop-opacity:0.15"/>
		<stop  offset="1" style="stop-color:#FFFFFF;stop-opacity:0.15"/>
	</linearGradient>
	<path class="st18" d="M548.37549,8.75979l-3.04913-1.17155c0,0,2.59418,0.00911,7.04883,0.02952
		c-8.25861-0.10874-17.72217-0.16911-28.51685-0.1552c-32.97687,0.04668-177.68515,0.21228-177.68338,0.87716
		c0.00366,0.66013,130.10132,1.97015,175.621,2.1666c32.9856,0.14368,76.12592,0.36858,76.11774-0.77736
		c0-0.22597-2.50085-0.5689-7.8739-0.92037C567.93323,8.72591,548.37549,8.75979,548.37549,8.75979z"/>
	
		<linearGradient id="SVGID_20_" gradientUnits="userSpaceOnUse" x1="92.28769" y1="530.17078" x2="784.92035" y2="530.17078" gradientTransform="matrix(-1 0 0 -1 779.06836 540.78796)">
		<stop  offset="0" style="stop-color:#FFFFFF;stop-opacity:0.15"/>
		<stop  offset="1" style="stop-color:#FFFFFF;stop-opacity:0.15"/>
	</linearGradient>
	<path class="st19" d="M128.38528,9.60352c97.12302,0.11612,234.50769,3.08306,351.06012,3.84517
		c110.67502,0.72437,206.87033-0.56481,207.33493-3.5454c0.01147-0.08184-0.27722-0.16151-0.82965-0.23811
		c-10.08234-0.09878-18.20587-0.09442-18.20587-0.09442l-88.68756-1.80211c-11.19366-0.0738-20.65295-0.12265-26.68207-0.15088
		c-4.45465-0.02041-7.04883-0.02952-7.04883-0.02952l3.04913,1.17155c0,0,19.55774-0.03388,41.66431,0.04881
		c28.79761,0.10723,61.92114,0.41202,61.77686,1.24534c-0.24597,1.47216-98.63342,2.50585-171.4111,1.55333
		c-92.32709-1.20733-229.64665-2.41925-305.40387-3.22217C109.64256,7.69116,13.97831,9.60983-5.85197,10.15011v1.32719
		C12.35204,11.04398,96.01305,9.56511,128.38528,9.60352z"/>
	
		<linearGradient id="SVGID_21_" gradientUnits="userSpaceOnUse" x1="153.19225" y1="532.80426" x2="196.39212" y2="532.80426" gradientTransform="matrix(-1 0 0 -1 779.06836 540.78796)">
		<stop  offset="0" style="stop-color:#FFFFFF;stop-opacity:0.15"/>
		<stop  offset="1" style="stop-color:#FFFFFF;stop-opacity:0.15"/>
	</linearGradient>
	<path class="st20" d="M582.67621,7.79274c7.01721,0.05188,23.31927,0.17862,43.19989,0.38183
		C611.18158,8.00893,595.91956,7.8841,582.67621,7.79274z"/>
	
		<linearGradient id="SVGID_22_" gradientUnits="userSpaceOnUse" x1="5.71028" y1="528.90833" x2="784.92035" y2="528.90833" gradientTransform="matrix(-1 0 0 -1 779.06836 540.78796)">
		<stop  offset="0" style="stop-color:#FFFFFF;stop-opacity:0.15"/>
		<stop  offset="1" style="stop-color:#FFFFFF;stop-opacity:0.15"/>
	</linearGradient>
	<path class="st21" d="M685.95068,9.66518c17.05096,0.16693,59.69904,0.62905,58.13422,1.90654
		c-2.48657,2.03586-105.44879,2.88786-185.09387,3.02247c-79.64368,0.13501-343.27417-1.62477-433.60355-1.94561
		C75.64042,12.47017-2.13401,12.95639-5.85197,13.12981v1.52688l0.00826,1.33563
		c61.20697-1.67883,463.04788-0.41588,572.60687-0.80118c120.95026-0.42398,218.1225-1.93952,205.48755-4.1452
		c-8.15088-1.42375-97.89325-2.37492-146.37463-2.87136c-19.88062-0.20321-36.18268-0.32995-43.19989-0.38183
		c-2.39807-0.01738-3.71924-0.02583-3.71924-0.02583l0.10028,0.00173l88.68756,1.80211
		C667.74481,9.57076,675.86835,9.5664,685.95068,9.66518z"/>
	
		<linearGradient id="SVGID_23_" gradientUnits="userSpaceOnUse" x1="-4.63313" y1="521.24921" x2="784.92035" y2="521.24921" gradientTransform="matrix(-1 0 0 -1 779.06836 540.78796)">
		<stop  offset="0" style="stop-color:#FFFFFF;stop-opacity:0.15"/>
		<stop  offset="1" style="stop-color:#FFFFFF;stop-opacity:0.15"/>
	</linearGradient>
	<path class="st22" d="M606.74817,17.405C520.8056,18.10812,99.854,19.15763,29.35405,17.32102
		C8.8357,16.7868-1.11063,16.57279-5.85197,16.48747v2.31242c10.74434,0.40419,64.63975,1.33132,159.11032,1.34564
		c120.92232,0.01823,401.05182-1.53533,468.06659-0.96705c58.04095,0.49101,145.37543,2.80152,162.37653,3.41146v-4.50659
		C767.03571,17.79835,680.96198,16.79635,606.74817,17.405z"/>
	
		<linearGradient id="SVGID_24_" gradientUnits="userSpaceOnUse" x1="-4.63313" y1="517.00012" x2="784.92035" y2="517.00012" gradientTransform="matrix(-1 0 0 -1 779.06836 540.78796)">
		<stop  offset="0" style="stop-color:#FFFFFF;stop-opacity:0.15"/>
		<stop  offset="1" style="stop-color:#FFFFFF;stop-opacity:0.15"/>
	</linearGradient>
	<path class="st23" d="M631.55389,24.21623c-81.58746,0.05797-371.97656-1.89156-449.14746-2.48629
		C85.98164,20.98495,9.38818,22.35899-5.85197,22.7927v3.27036c16.78575-0.49902,102.61635-2.29006,186.81635-1.93712
		c68.52092,0.28848,316.55914,0.91908,405.42761,1.52862c77.87036,0.53551,178.52185,0.07055,197.30951-0.05299v-1.3443
		C769.63129,24.23428,700.10968,24.1663,631.55389,24.21623z"/>
	
		<linearGradient id="SVGID_25_" gradientUnits="userSpaceOnUse" x1="-4.63313" y1="511.02472" x2="784.92035" y2="511.02472" gradientTransform="matrix(-1 0 0 -1 779.06836 540.78796)">
		<stop  offset="0" style="stop-color:#FFFFFF;stop-opacity:0.15"/>
		<stop  offset="1" style="stop-color:#FFFFFF;stop-opacity:0.15"/>
	</linearGradient>
	<path class="st24" d="M442.17291,26.46401C318.66879,26.01834,30.40407,28.05753-5.85197,28.33885v1.31043
		c37.83182-0.28892,348.83493-2.46419,450.94479-1.65363c100.33063,0.7986,308.50037,4.52592,338.60864,5.13021v-4.74687
		C755.14758,28.16498,563.38562,26.89968,442.17291,26.46401z"/>
</g>
<linearGradient id="SVGID_26_" gradientUnits="userSpaceOnUse" x1="478.90692" y1="29.22497" x2="640.11194" y2="29.22497" gradientTransform="matrix(-1 0 0 -1 779.06836 540.78796)">
	<stop  offset="0" style="stop-color:#FFFFFF;stop-opacity:0.15"/>
	<stop  offset="1" style="stop-color:#FFFFFF;stop-opacity:0.15"/>
</linearGradient>
<path class="st25" d="M152.71785,510.34247c-8.69206,0.29391-13.76233,0.65991-13.7614,1.06366
	c0.00095,1.07495,36.09656,2.01917,80.61488,2.10687c44.50725,0.08643,80.59105-0.71588,80.5901-1.79083
	c-0.00919-1.07883-36.10208-2.02222-80.60934-2.10947c-3.97633-0.00739-7.8748-0.00824-11.6908-0.00174
	c0.38213,0.00128,0.60382,0.00174,0.60382,0.00174S179.39308,509.81284,152.71785,510.34247z"/>
<linearGradient id="SVGID_27_" gradientUnits="userSpaceOnUse" x1="303.06143" y1="30.11321" x2="784.92035" y2="30.11321" gradientTransform="matrix(-1 0 0 -1 779.06836 540.78796)">
	<stop  offset="0" style="stop-color:#FFFFFF;stop-opacity:0.15"/>
	<stop  offset="1" style="stop-color:#FFFFFF;stop-opacity:0.15"/>
</linearGradient>
<path class="st26" d="M430.34427,508.65454c0,0,20.04288,0.99594,45.66266,2.12076
	c-32.18121-2.5636-172.74597-5.87085-277.53122-6.07663c-101.82495-0.19925-187.23776,3.20221-204.32768,4.19116v2.19891
	c18.66861-1.21167,114.44179-5.70804,211.77187-4.70303c100.57434,1.035,229.65912,1.76437,232.20612,5.4819
	c2.17877,3.17096-178.84091,3.90686-218.51894,3.45703c-39.68166-0.44977-109.40657-0.60773-110.37404-2.81494
	c-0.44901-1.01938,20.63928-1.71439,43.48482-2.16724c26.67523-0.52963,55.74727-0.72977,55.74727-0.72977
	s-0.22169-0.00046-0.60382-0.00174c-9.49367-0.03256-132.17323-0.39636-133.35608,2.45679
	c-0.99402,2.40686,55.82429,4.19556,145.10919,4.55847c77.62251,0.31085,219.18871-1.62372,254.83083-3.84259
	c-7.85324-0.56653-9.2504-0.93903-9.2504-0.93903L430.34427,508.65454z"/>
<linearGradient id="SVGID_28_" gradientUnits="userSpaceOnUse" x1="704.84619" y1="34.77231" x2="784.92035" y2="34.77231" gradientTransform="matrix(-1 0 0 -1 779.06836 540.78796)">
	<stop  offset="0" style="stop-color:#FFFFFF;stop-opacity:0.15"/>
	<stop  offset="1" style="stop-color:#FFFFFF;stop-opacity:0.15"/>
</linearGradient>
<path class="st27" d="M-5.85197,507.58527c7.54034-0.66855,45.16767-2.04831,80.07413-3.13928H-5.85197V507.58527z"/>
<linearGradient id="SVGID_29_" gradientUnits="userSpaceOnUse" x1="5.36687" y1="32.62007" x2="433.38904" y2="32.62007" gradientTransform="matrix(-1 0 0 -1 779.06836 540.78796)">
	<stop  offset="0" style="stop-color:#FFFFFF;stop-opacity:0.15"/>
	<stop  offset="1" style="stop-color:#FFFFFF;stop-opacity:0.15"/>
</linearGradient>
<path class="st28" d="M653.45978,510.15579c49.17133,1.06451,106.72815,1.59589,120.2417,1.73398v-2.63135
	c-16.02856,0.11075-90.48431,0.36295-153.77057-2.11423c-24.36554-0.95297-57.67816-1.87161-96.96637-2.69821H345.67932
	C454.03906,506.09225,566.26068,508.26379,653.45978,510.15579z"/>
<linearGradient id="SVGID_30_" gradientUnits="userSpaceOnUse" x1="5.35457" y1="27.94215" x2="348.72409" y2="27.94215" gradientTransform="matrix(-1 0 0 -1 779.06836 540.78796)">
	<stop  offset="0" style="stop-color:#FFFFFF;stop-opacity:0.15"/>
	<stop  offset="1" style="stop-color:#FFFFFF;stop-opacity:0.15"/>
</linearGradient>
<path class="st29" d="M549.70215,513.53949c-21.76398-0.58087-50.09518-1.72745-73.69522-2.76419
	c-25.61978-1.12482-45.66266-2.12076-45.66266-2.12076l34.85056,3.19006c0,0,1.39716,0.3725,9.2504,0.93903
	c11.55383,0.83313,37.09113,2.08563,92.75131,3.18921c14.75,0.29218,28.47467,0.51703,41.24152,0.68463
	c115.96313,1.52417,166.17957-2.039,165.26343-1.96234v-0.31946C755.3385,513.96143,674.30389,516.86066,549.70215,513.53949z"/>
</svg>
