<!-- Generator: Adobe Illustrator 23.0.0, SVG Export Plug-In  -->
<svg version="1.1" xmlns="http://www.w3.org/2000/svg" xmlns:xlink="http://www.w3.org/1999/xlink" x="0px" y="0px"
	 width="20.14962px" height="20.14956px" viewBox="0 0 20.14962 20.14956" style="enable-background:new 0 0 20.14962 20.14956;"
	 xml:space="preserve">
<style type="text/css">
	.st0{fill:#8A5111;}
</style>
<defs>
</defs>
<g>
	<path class="st0" d="M10.07481,0C4.51065,0,0,4.51065,0,10.07481s4.51065,10.07475,10.07481,10.07475
		s10.07481-4.51058,10.07481-10.07475S15.63898,0,10.07481,0z M10.07481,18.47178c-4.63752,0-8.39704-3.75943-8.39704-8.39696
		s3.75951-8.39704,8.39704-8.39704s8.39704,3.75951,8.39704,8.39704S14.71234,18.47178,10.07481,18.47178z"/>
	<g>
		<path class="st0" d="M5.21905,10.20737c0,0,1.44761,0.5745,2.88765,2.31011c0,0,1.27542-4.12192,4.96913-7.03317l4.2347,1.92306
			c0,0-4.46174,1.33713-7.91929,7.74935c-0.31543,0.5844-0.6476,0.92344-1.12914,0.92344
			c-0.40761,0-0.80383-0.30248-1.23048-0.70475c-1.10553-1.0423-2.26287-2.32537-4.36572-3.20917L5.21905,10.20737z"/>
	</g>
</g>
</svg>
