<?xml version="1.0" encoding="utf-8"?>
<!-- Generator: Adobe Illustrator 22.1.0, SVG Export Plug-In . SVG Version: 6.00 Build 0)  -->
<svg version="1.1" id="Ebene_1" xmlns="http://www.w3.org/2000/svg" xmlns:xlink="http://www.w3.org/1999/xlink" x="0px" y="0px"
	 viewBox="0 0 770 470" style="enable-background:new 0 0 770 470;" xml:space="preserve">
<style type="text/css">
	.st0{fill:url(#SVGID_1_);}
	.st1{fill:url(#SVGID_2_);}
	.st2{fill:url(#SVGID_3_);}
	.st3{fill:url(#SVGID_4_);}
	.st4{fill:url(#SVGID_5_);}
	.st5{fill:url(#SVGID_6_);}
	.st6{fill:url(#SVGID_7_);}
	.st7{fill:url(#SVGID_8_);}
	.st8{fill:url(#SVGID_9_);}
	.st9{fill:url(#SVGID_10_);}
	.st10{fill:url(#SVGID_11_);}
	.st11{fill:url(#SVGID_12_);}
	.st12{fill:url(#SVGID_13_);}
	.st13{fill:url(#SVGID_14_);}
	.st14{fill:url(#SVGID_15_);}
	.st15{fill:url(#SVGID_16_);}
	.st16{fill:url(#SVGID_17_);}
	.st17{fill:url(#SVGID_18_);}
	.st18{fill:url(#SVGID_19_);}
	.st19{fill:url(#SVGID_20_);}
	.st20{fill:url(#SVGID_21_);}
	.st21{fill:url(#SVGID_22_);}
	.st22{fill:url(#SVGID_23_);}
	.st23{fill:url(#SVGID_24_);}
	.st24{fill:url(#SVGID_25_);}
	.st25{fill:url(#SVGID_26_);}
	.st26{fill:url(#SVGID_27_);}
	.st27{fill:url(#SVGID_28_);}
	.st28{fill:url(#SVGID_29_);}
	.st29{fill:url(#SVGID_30_);}
	.st30{fill:url(#SVGID_31_);}
	.st31{fill:url(#SVGID_32_);}
	.st32{fill:url(#SVGID_33_);}
	.st33{fill:url(#SVGID_34_);}
	.st34{fill:url(#SVGID_35_);}
	.st35{fill:url(#SVGID_36_);}
	.st36{fill:url(#SVGID_37_);}
	.st37{fill:url(#SVGID_38_);}
	.st38{fill:url(#SVGID_39_);}
	.st39{fill:url(#SVGID_40_);}
	.st40{fill:url(#SVGID_41_);}
	.st41{fill:url(#SVGID_42_);}
	.st42{fill:url(#SVGID_43_);}
	.st43{fill:url(#SVGID_44_);}
	.st44{fill:url(#SVGID_45_);}
	.st45{fill:url(#SVGID_46_);}
	.st46{fill:url(#SVGID_47_);}
	.st47{fill:url(#SVGID_48_);}
	.st48{fill:url(#SVGID_49_);}
	.st49{fill:url(#SVGID_50_);}
</style>
<g id="texture_4_">
	<g id="Holzmas._trans_white_4_">
		<linearGradient id="SVGID_1_" gradientUnits="userSpaceOnUse" x1="477.43024" y1="30.47168" x2="645.16034" y2="30.47168">
			<stop  offset="0" style="stop-color:#FFFFFF;stop-opacity:0.15"/>
			<stop  offset="1" style="stop-color:#FFFFFF;stop-opacity:0.15"/>
		</linearGradient>
		<path class="st0" d="M630.84192,33.63225c9.04388-0.76234,14.3194-1.70786,14.31842-2.75507
			c-0.00098-2.78131-37.55768-5.22458-83.87793-5.4532c-46.30878-0.22194-83.85315,1.85386-83.85217,4.63413
			c0.00958,2.79431,37.56342,5.23586,83.87219,5.46056c4.13727,0.02082,8.19354,0.02197,12.164,0.00621
			c-0.39758-0.00449-0.6283-0.00621-0.6283-0.00621S603.08691,35.00127,630.84192,33.63225z"/>
		<linearGradient id="SVGID_2_" gradientUnits="userSpaceOnUse" x1="294.4671" y1="32.77088" x2="776.0611" y2="32.77088">
			<stop  offset="0" style="stop-color:#FFFFFF;stop-opacity:0.15"/>
			<stop  offset="1" style="stop-color:#FFFFFF;stop-opacity:0.15"/>
		</linearGradient>
		<path class="st1" d="M575.48639,43.87133c-104.64526-2.67856-238.95499-4.56625-241.6051-14.18841
			c-2.26694-8.20666,186.0799-10.10884,227.36389-8.94484c41.2879,1.16411,113.83502,1.57244,114.84167,7.28358
			c0.46716,2.63818-21.47473,4.43704-45.24493,5.61059c-27.755,1.36902-58.00378,1.88642-58.00378,1.88642
			s0.23071,0.00172,0.6283,0.00621c9.87793,0.08319,137.52319,1.02294,138.75391-6.3589
			c1.03424-6.22958-58.08386-10.85761-150.98273-11.79748c-80.76447-0.80503-228.06317,4.20107-265.14804,9.94535
			c8.17355,1.46509,9.62726,2.4297,9.62726,2.4297l36.2612,8.25544c0,0-20.85416-2.57697-47.51093-5.48806
			c33.4838,6.63411,179.73819,15.19455,288.76477,15.72599c105.94653,0.51579,175.04755-8.28858,192.82922-10.84633v-5.68929
			C756.63684,34.83617,676.7561,46.47292,575.48639,43.87133z"/>
		<linearGradient id="SVGID_3_" gradientUnits="userSpaceOnUse" x1="-4.87245" y1="15.35559" x2="776.0611" y2="15.35559">
			<stop  offset="0" style="stop-color:#FFFFFF;stop-opacity:0.15"/>
			<stop  offset="1" style="stop-color:#FFFFFF;stop-opacity:0.15"/>
		</linearGradient>
		<path class="st2" d="M156.67557,17.28762c91.90025-2.94652,209.94586-6.09197,321.75467-7.18912
			C678.02679,8.12993,758.18787,21.26399,776.0611,24.8127v-9.03286c-24.93042-1.86456-161.91504-11.53012-297.64032-9.63689
			C337.93182,8.10416,33.38443,14.43486-4.87245,15.23265v7.13183C5.0589,20.29765,46.42162,13.68322,156.67557,17.28762z"/>
		<linearGradient id="SVGID_4_" gradientUnits="userSpaceOnUse" x1="-4.87245" y1="43.80707" x2="776.0611" y2="43.80707">
			<stop  offset="0" style="stop-color:#FFFFFF;stop-opacity:0.15"/>
			<stop  offset="1" style="stop-color:#FFFFFF;stop-opacity:0.15"/>
		</linearGradient>
		<path class="st3" d="M144.71753,41.90736c77.24583,7.52221,240.91681,14.18726,403.63824,15.88327
			c137.65198,1.43207,209.67767-5.37461,227.70532-7.38518v-9.63908c-17.39758,3.83807-91.52618,16.73098-281.28006,10.42892
			c-131.34454-4.36341-276.68365-11.23855-384.94955-17.08051C58.66988,31.35925,9.18808,29.9862-4.87245,29.62723v6.81002
			C11.80489,36.15008,78.86961,35.49738,144.71753,41.90736z"/>
		<linearGradient id="SVGID_5_" gradientUnits="userSpaceOnUse" x1="-4.87245" y1="4.07513" x2="776.0611" y2="4.07513">
			<stop  offset="0" style="stop-color:#FFFFFF;stop-opacity:0.15"/>
			<stop  offset="1" style="stop-color:#FFFFFF;stop-opacity:0.15"/>
		</linearGradient>
		<path class="st4" d="M143.46921,1.84191C115.18799,1.24979,21.60658,1.69642-4.545-0.02658l-0.32745,3.55104v1.14997
			C12.1199,5.3997,81.10415,8.02097,158.62927,6.44071c89.43318-1.8219,507.64258-4.53587,581.00378,0.21066
			c21.05341,1.36569,31.4118,1.92404,36.42804,2.15277V3.45873c-6.54248-0.66684-13.08008-1.31176-19.6073-1.93647
			c-21.13629-1.0393-59.29352-2.15108-125.98175-2.1758C504.65994-0.69679,213.19408,3.31773,143.46921,1.84191z"/>
		<linearGradient id="SVGID_6_" gradientUnits="userSpaceOnUse" x1="-4.87245" y1="27.11545" x2="341.97803" y2="27.11545">
			<stop  offset="0" style="stop-color:#FFFFFF;stop-opacity:0.15"/>
			<stop  offset="1" style="stop-color:#FFFFFF;stop-opacity:0.15"/>
		</linearGradient>
		<path class="st5" d="M305.71683,29.74355c0,0-1.4537-0.96461-9.62726-2.4297c-12.02188-2.15726-38.59052-5.39878-96.50316-8.25383
			c-15.34702-0.75728-29.62726-1.33807-42.91084-1.7724C46.42162,13.68322,5.0589,20.29765-4.87245,22.36448v0.82758
			c19.10624,1.07299,93.01614-6.43023,222.66135,2.16681c22.64491,1.50156,52.12291,4.46834,76.67821,7.15208
			c26.65677,2.91109,47.51093,5.48806,47.51093,5.48806L305.71683,29.74355z"/>
		<linearGradient id="SVGID_7_" gradientUnits="userSpaceOnUse" x1="477.43024" y1="216.54298" x2="645.16034" y2="216.54298">
			<stop  offset="0" style="stop-color:#FFFFFF;stop-opacity:0.15"/>
			<stop  offset="1" style="stop-color:#FFFFFF;stop-opacity:0.15"/>
		</linearGradient>
		<path class="st6" d="M630.84192,219.70166c9.04388-0.76062,14.3194-1.70786,14.31842-2.75278
			c-0.00098-2.782-37.55768-5.22574-83.87793-5.45262c-46.30878-0.22366-83.85315,1.85271-83.85217,4.6347
			c0.00958,2.79201,37.56342,5.23357,83.87219,5.45941c4.13727,0.0191,8.19354,0.02129,12.164,0.00449
			c-0.39758-0.00334-0.6283-0.00449-0.6283-0.00449S603.08691,221.0724,630.84192,219.70166z"/>
		<linearGradient id="SVGID_8_" gradientUnits="userSpaceOnUse" x1="294.4671" y1="218.84178" x2="776.0611" y2="218.84178">
			<stop  offset="0" style="stop-color:#FFFFFF;stop-opacity:0.15"/>
			<stop  offset="1" style="stop-color:#FFFFFF;stop-opacity:0.15"/>
		</linearGradient>
		<path class="st7" d="M341.97803,224.07013c0,0-20.85416-2.57755-47.51093-5.48863
			c33.4838,6.63467,179.73819,15.19398,288.76477,15.72656c105.94653,0.51567,175.04755-8.28743,192.82922-10.84691v-5.6909
			c-19.42426,3.13591-99.30499,14.77266-200.57471,12.17165c-104.64526-2.67857-238.95499-4.56625-241.6051-14.18738
			c-2.26694-8.20654,186.0799-10.11102,227.36389-8.94691c41.2879,1.164,113.83502,1.57289,114.84167,7.28519
			c0.46716,2.63818-21.47473,4.43694-45.24493,5.60887c-27.755,1.37074-58.00378,1.88872-58.00378,1.88872
			s0.23071,0.00114,0.6283,0.00449c9.87793,0.08421,137.52319,1.02582,138.75391-6.35832
			c1.03424-6.229-58.08386-10.85818-150.98273-11.79749c-80.76447-0.80444-228.06082,4.20222-265.1456,9.94478
			c8.17111,1.46625,9.62482,2.43028,9.62482,2.43028L341.97803,224.07013z"/>
		<linearGradient id="SVGID_9_" gradientUnits="userSpaceOnUse" x1="-4.87245" y1="201.42601" x2="776.0611" y2="201.42601">
			<stop  offset="0" style="stop-color:#FFFFFF;stop-opacity:0.15"/>
			<stop  offset="1" style="stop-color:#FFFFFF;stop-opacity:0.15"/>
		</linearGradient>
		<path class="st8" d="M156.67557,203.35818c91.90025-2.94595,209.94586-6.09198,321.75467-7.18855
			c199.59656-1.96857,279.75763,11.16595,297.63086,14.7142v-9.03343c-24.93042-1.86411-161.91504-11.53011-297.64032-9.63805
			c-140.48895,1.96294-445.03635,8.29192-483.29324,9.09085v7.13354C5.0589,206.36935,46.42162,199.75378,156.67557,203.35818z"/>
		<linearGradient id="SVGID_10_" gradientUnits="userSpaceOnUse" x1="712.51483" y1="230.8997" x2="776.0611" y2="230.8997">
			<stop  offset="0" style="stop-color:#FFFFFF;stop-opacity:0.15"/>
			<stop  offset="1" style="stop-color:#FFFFFF;stop-opacity:0.15"/>
		</linearGradient>
		<path class="st9" d="M776.0611,226.8374c-7.84558,1.73029-27.22687,5.30109-63.54626,8.12462h63.54626V226.8374z"/>
		<linearGradient id="SVGID_11_" gradientUnits="userSpaceOnUse" x1="-4.87245" y1="225.32962" x2="430.06995" y2="225.32962">
			<stop  offset="0" style="stop-color:#FFFFFF;stop-opacity:0.15"/>
			<stop  offset="1" style="stop-color:#FFFFFF;stop-opacity:0.15"/>
		</linearGradient>
		<path class="st10" d="M109.83147,220.18477c-51.16159-2.75496-100.64339-4.13019-114.70393-4.48755v6.81001
			c16.67734-0.28659,83.74206-0.93929,149.58998,5.47173c25.35173,2.46629,60.01279,4.84377,100.89124,6.98306h184.46118
			C317.32413,230.70135,200.56013,225.08133,109.83147,220.18477z"/>
		<linearGradient id="SVGID_12_" gradientUnits="userSpaceOnUse" x1="-4.87245" y1="186.97484" x2="776.0611" y2="186.97484">
			<stop  offset="0" style="stop-color:#FFFFFF;stop-opacity:0.15"/>
			<stop  offset="1" style="stop-color:#FFFFFF;stop-opacity:0.15"/>
		</linearGradient>
		<path class="st11" d="M158.62927,192.51128c89.43318-1.82246,507.64258-4.53587,581.00378,0.21123
			c21.05341,1.36397,31.4118,1.92348,36.42804,2.15163v-5.99429c-11.40613-1.05608-47.85699-3.42688-145.58905-3.46277
			c-125.8121-0.04384-417.27795,3.97292-487.00284,2.49539c-60.63393-1.26846-130.9975-7.28749-148.34166-8.83691v11.66827
			C12.1199,191.47084,81.10415,194.09096,158.62927,192.51128z"/>
		<linearGradient id="SVGID_13_" gradientUnits="userSpaceOnUse" x1="-4.87245" y1="213.18637" x2="341.97803" y2="213.18637">
			<stop  offset="0" style="stop-color:#FFFFFF;stop-opacity:0.15"/>
			<stop  offset="1" style="stop-color:#FFFFFF;stop-opacity:0.15"/>
		</linearGradient>
		<path class="st12" d="M217.78889,211.42769c22.64491,1.5033,52.12291,4.47064,76.67821,7.15381
			c26.65677,2.91109,47.51093,5.48863,47.51093,5.48863l-36.2612-8.25601c0,0-1.4537-0.96404-9.62482-2.43028
			c-12.02148-2.15611-38.59244-5.39763-96.5056-8.25372c-15.34702-0.75624-29.62726-1.33818-42.91084-1.77193
			c-110.25394-3.6044-151.61667,3.01117-161.54802,5.07857v0.8269C14.23379,210.3356,88.14368,202.83238,217.78889,211.42769z"/>
		<linearGradient id="SVGID_14_" gradientUnits="userSpaceOnUse" x1="-4.87245" y1="175.99765" x2="776.0611" y2="175.99765">
			<stop  offset="0" style="stop-color:#FFFFFF;stop-opacity:0.15"/>
			<stop  offset="1" style="stop-color:#FFFFFF;stop-opacity:0.15"/>
		</linearGradient>
		<path class="st13" d="M132.8286,174.88574c84.88982-0.15382,387.03052,4.88426,467.32605,6.43254
			c99.88361,1.91333,159.73486-1.60109,175.90643-2.73932v-8.46161c-17.80267,1.3123-87.14587,5.90776-174.40118,4.99539
			c-71.30304-0.74496-329.3844-2.36964-421.84811-3.95715c-81.30777-1.38766-165.53984-0.16751-184.68425,0.146v3.47302
			C9.49313,174.83293,61.17131,175.00829,132.8286,174.88574z"/>
		<linearGradient id="SVGID_15_" gradientUnits="userSpaceOnUse" x1="-4.87245" y1="160.51909" x2="776.0611" y2="160.51909">
			<stop  offset="0" style="stop-color:#FFFFFF;stop-opacity:0.15"/>
			<stop  offset="1" style="stop-color:#FFFFFF;stop-opacity:0.15"/>
		</linearGradient>
		<path class="st14" d="M329.87411,169.07129c128.2702,1.14604,407.64645-4.11444,446.18698-4.85608v-3.392
			c-40.20026,0.76176-343.1665,6.37178-449.22842,4.274c-104.61951-2.06279-301.0274-11.75813-331.70514-13.29295v12.2997
			C24.18903,164.64449,203.45096,167.93202,329.87411,169.07129z"/>
		<linearGradient id="SVGID_16_" gradientUnits="userSpaceOnUse" x1="-4.87245" y1="149.39142" x2="776.0611" y2="149.39142">
			<stop  offset="0" style="stop-color:#FFFFFF;stop-opacity:0.15"/>
			<stop  offset="1" style="stop-color:#FFFFFF;stop-opacity:0.15"/>
		</linearGradient>
		<path class="st15" d="M480.34155,151.66161c140.76642,1.94267,270.52319,2.70445,295.71954,2.84148v-10.13231
			c-29.95898,0.02473-205.39929,0.20111-291.17615,0.81458c-88.40793,0.63257-447.44669-0.74048-489.75742-0.90559v2.83701
			C34.32438,147.41336,345.51282,149.78635,480.34155,151.66161z"/>
		<linearGradient id="SVGID_17_" gradientUnits="userSpaceOnUse" x1="-4.87245" y1="132.06062" x2="776.0611" y2="132.06062">
			<stop  offset="0" style="stop-color:#FFFFFF;stop-opacity:0.15"/>
			<stop  offset="1" style="stop-color:#FFFFFF;stop-opacity:0.15"/>
		</linearGradient>
		<path class="st16" d="M210.06779,140.8147c89.43318,1.00327,449.12109-0.42928,503.68542-2.42361
			c37.67682-1.37523,55.11627-3.11783,62.30786-4.06392v-7.14034c-24.64728,1.80669-149.02368,10.49416-244.20477,9.19312
			c-294.41153-4.03929-505.08298-12.1385-536.72876-13.40201v11.84926C17.82823,135.7047,130.02924,139.91693,210.06779,140.8147z"
			/>
		<linearGradient id="SVGID_18_" gradientUnits="userSpaceOnUse" x1="-4.87245" y1="123.77627" x2="776.0611" y2="123.77627">
			<stop  offset="0" style="stop-color:#FFFFFF;stop-opacity:0.15"/>
			<stop  offset="1" style="stop-color:#FFFFFF;stop-opacity:0.15"/>
		</linearGradient>
		<path class="st17" d="M190.31662,118.6961c-67.5686-2.84217-173.08522-2.72977-195.18907-2.67189v3.93081
			c11.13818-0.07306,44.63671-0.18823,98.18386,0.53085c66.69349,0.89098,317.26956,10.21999,364.26468,11.01097
			c43.49283,0.73933,283.14658-6.76607,318.48502-7.88347v-5.64591c-19.10205,0.61346-98.82172,3.11221-191.18005,5.11781
			C478.77911,125.39198,266.1192,121.8932,190.31662,118.6961z"/>
		<linearGradient id="SVGID_19_" gradientUnits="userSpaceOnUse" x1="167.62592" y1="110.48479" x2="429.55423" y2="110.48479">
			<stop  offset="0" style="stop-color:#FFFFFF;stop-opacity:0.15"/>
			<stop  offset="1" style="stop-color:#FFFFFF;stop-opacity:0.15"/>
		</linearGradient>
		<path class="st18" d="M219.16928,111.21807l3.17255,3.03201c0,0-2.69919-0.02359-7.33414-0.0764
			c8.59291,0.28143,18.4395,0.43767,29.67108,0.40166c34.31168-0.12081,184.87732-0.54939,184.87546-2.27013
			c-0.00378-1.70843-135.3674-5.09883-182.72955-5.60725c-34.32076-0.37185-79.20724-0.95391-79.19876,2.01183
			c0,0.58482,2.60208,1.47234,8.19258,2.38196C198.81992,111.30574,219.16928,111.21807,219.16928,111.21807z"/>
		<linearGradient id="SVGID_20_" gradientUnits="userSpaceOnUse" x1="75.16188" y1="106.41117" x2="776.0611" y2="106.41117">
			<stop  offset="0" style="stop-color:#FFFFFF;stop-opacity:0.15"/>
			<stop  offset="1" style="stop-color:#FFFFFF;stop-opacity:0.15"/>
		</linearGradient>
		<path class="st19" d="M656.15936,109.03447c-101.05426-0.30052-243.99982-7.97908-365.26993-9.95145
			c-115.15479-1.87468-215.2438,1.46175-215.7272,9.17564c-0.01191,0.21181,0.28846,0.41798,0.86322,0.61623
			c10.49048,0.25565,18.94281,0.24437,18.94281,0.24437l92.27735,4.66393c11.64674,0.19099,21.48895,0.31743,27.76208,0.39049
			c4.63495,0.05281,7.33414,0.0764,7.33414,0.0764l-3.17255-3.03201c0,0-20.34937,0.08767-43.35078-0.12633
			c-29.96324-0.27751-64.4275-1.06631-64.27737-3.223c0.25595-3.81,102.62579-6.48522,178.3493-4.02009
			c96.06418,3.12463,238.94202,6.26111,317.76562,8.33909c68.0047,1.79599,147.77203-3.16961,168.40503-4.56786v-3.43481
			C757.12024,105.3065,689.84192,109.13388,656.15936,109.03447z"/>
		<linearGradient id="SVGID_21_" gradientUnits="userSpaceOnUse" x1="138.53166" y1="113.22674" x2="183.48013" y2="113.22674">
			<stop  offset="0" style="stop-color:#FFFFFF;stop-opacity:0.15"/>
			<stop  offset="1" style="stop-color:#FFFFFF;stop-opacity:0.15"/>
		</linearGradient>
		<path class="st20" d="M183.48013,113.72083c-7.30124-0.13427-24.26311-0.46229-44.94847-0.9882
			C153.82097,113.16133,169.70076,113.4844,183.48013,113.72083z"/>
		<linearGradient id="SVGID_22_" gradientUnits="userSpaceOnUse" x1="5.63747" y1="103.14384" x2="776.0611" y2="103.14384">
			<stop  offset="0" style="stop-color:#FFFFFF;stop-opacity:0.15"/>
			<stop  offset="1" style="stop-color:#FFFFFF;stop-opacity:0.15"/>
		</linearGradient>
		<path class="st21" d="M76.02544,108.87489c-17.74115-0.43203-41.30592-1.62801-39.67776-4.93419
			c2.58723-5.26888,88.90752-7.47388,171.7764-7.82227c82.86739-0.34942,357.16882,4.20498,451.15442,5.03532
			c51.76068,0.46172,112.91412-0.79663,116.78259-1.24545v-3.95163L776.05249,92.5
			c-63.68445,4.34489-462.02155,1.07633-576.0152,2.0735C74.19133,95.67076-6.10458,99.59306,7.04178,105.30145
			c8.48084,3.6847,81.04617,6.14639,131.48988,7.43119c20.68536,0.52591,37.64723,0.85393,44.94847,0.9882
			c2.49519,0.04499,3.86983,0.06685,3.86983,0.06685l-0.10435-0.00449l-92.27735-4.66393
			C94.96825,109.11926,86.51592,109.13054,76.02544,108.87489z"/>
		<linearGradient id="SVGID_23_" gradientUnits="userSpaceOnUse" x1="-4.87245" y1="83.32183" x2="776.0611" y2="83.32183">
			<stop  offset="0" style="stop-color:#FFFFFF;stop-opacity:0.15"/>
			<stop  offset="1" style="stop-color:#FFFFFF;stop-opacity:0.15"/>
		</linearGradient>
		<path class="st22" d="M158.43384,88.84394c89.42128-1.81969,507.64264-4.53587,580.99622,0.21734
			c21.34882,1.3826,31.69775,1.93647,36.63104,2.15726v-5.98463c-11.17926-1.04607-47.48712-3.44551-145.78156-3.48256
			c-125.81689-0.04717-417.28519,3.97349-487.01251,2.50276c-60.39027-1.27077-130.45026-7.25045-148.1395-8.82899v11.66322
			C12.4679,87.82595,81.21612,90.41914,158.43384,88.84394z"/>
		<linearGradient id="SVGID_24_" gradientUnits="userSpaceOnUse" x1="-4.87245" y1="72.325" x2="776.0611" y2="72.325">
			<stop  offset="0" style="stop-color:#FFFFFF;stop-opacity:0.15"/>
			<stop  offset="1" style="stop-color:#FFFFFF;stop-opacity:0.15"/>
		</linearGradient>
		<path class="st23" d="M132.62408,71.21623c84.88982-0.15002,387.03302,4.89542,467.32751,6.43461
			c100.32776,1.92806,160.25244-1.62801,176.1095-2.75047v-8.46381c-17.46521,1.29148-87.00092,5.92676-174.60907,5.01334
			c-71.29443-0.74658-329.37244-2.37862-421.83801-3.95612C98.59169,66.10786,14.6757,67.3112-4.87245,67.63094v3.4791
			C9.76724,71.16953,61.29333,71.34544,132.62408,71.21623z"/>
		<linearGradient id="SVGID_25_" gradientUnits="userSpaceOnUse" x1="-4.87245" y1="56.8604" x2="776.0611" y2="56.8604">
			<stop  offset="0" style="stop-color:#FFFFFF;stop-opacity:0.15"/>
			<stop  offset="1" style="stop-color:#FFFFFF;stop-opacity:0.15"/>
		</linearGradient>
		<path class="st24" d="M329.67059,65.3989c128.5032,1.15341,408.66693-4.1241,446.3905-4.85216V57.1553
			c-39.36316,0.74773-343.18564,6.37742-449.42862,4.27965C222.2408,59.36813,26.45452,49.72169-4.87245,48.15777v12.28508
			C24.83721,60.99672,203.55159,64.27137,329.67059,65.3989z"/>
	</g>
	<g id="Holzmas._trans_white_2_">
		
			<linearGradient id="SVGID_26_" gradientUnits="userSpaceOnUse" x1="475.31" y1="57.64132" x2="643.04004" y2="57.64132" gradientTransform="matrix(-1 0 0 -1 769.06836 500.78793)">
			<stop  offset="0" style="stop-color:#FFFFFF;stop-opacity:0.15"/>
			<stop  offset="1" style="stop-color:#FFFFFF;stop-opacity:0.15"/>
		</linearGradient>
		<path class="st25" d="M140.34673,439.98605c-9.0439,0.76233-14.3194,1.70786-14.31842,2.75507
			c0.00098,2.78131,37.55763,5.22458,83.87791,5.45319c46.30878,0.22195,83.85312-1.85385,83.85214-4.63412
			c-0.00955-2.79431-37.56339-5.23584-83.87215-5.46054c-4.13728-0.02084-8.19356-0.02197-12.16402-0.00623
			c0.3976,0.00449,0.62827,0.00623,0.62827,0.00623S168.10168,438.61703,140.34673,439.98605z"/>
		
			<linearGradient id="SVGID_27_" gradientUnits="userSpaceOnUse" x1="292.34683" y1="59.94052" x2="773.9408" y2="59.94052" gradientTransform="matrix(-1 0 0 -1 769.06836 500.78793)">
			<stop  offset="0" style="stop-color:#FFFFFF;stop-opacity:0.15"/>
			<stop  offset="1" style="stop-color:#FFFFFF;stop-opacity:0.15"/>
		</linearGradient>
		<path class="st26" d="M195.70221,429.74698c104.64529,2.67856,238.95502,4.56625,241.60513,14.18842
			c2.26694,8.20663-186.07988,10.10883-227.36392,8.94482c-41.28786-1.16409-113.83502-1.57242-114.84164-7.28357
			c-0.46719-2.63818,21.47469-4.43704,45.24495-5.6106c27.75496-1.36902,58.00374-1.88641,58.00374-1.88641
			s-0.23067-0.00174-0.62827-0.00623c-9.87793-0.08319-137.52319-1.02295-138.75392,6.35892
			c-1.03425,6.22955,58.08388,10.8576,150.98276,11.79745c80.76442,0.80505,228.06313-4.20105,265.14801-9.94534
			c-8.17352-1.46509-9.62723-2.42969-9.62723-2.42969l-36.2612-8.25546c0,0,20.85416,2.577,47.51093,5.48807
			c-33.4838-6.63409-179.73819-15.19455-288.7648-15.72598C82.01021,424.8656,12.90921,433.66995-4.87245,436.22772v5.68927
			C14.5518,438.78214,94.43252,427.14539,195.70221,429.74698z"/>
		
			<linearGradient id="SVGID_28_" gradientUnits="userSpaceOnUse" x1="-6.99272" y1="42.52523" x2="773.9408" y2="42.52523" gradientTransform="matrix(-1 0 0 -1 769.06836 500.78793)">
			<stop  offset="0" style="stop-color:#FFFFFF;stop-opacity:0.15"/>
			<stop  offset="1" style="stop-color:#FFFFFF;stop-opacity:0.15"/>
		</linearGradient>
		<path class="st27" d="M614.51306,456.33069c-91.90027,2.9465-209.94589,6.09198-321.75467,7.18912
			c-199.59656,1.96857-279.75763-11.1655-297.63086-14.7142v9.03287c24.93042,1.86453,161.91502,11.53012,297.64032,9.63687
			c140.48895-1.96121,445.03635-8.2919,483.29324-9.08969v-7.13184C766.1297,453.32065,724.76703,459.93509,614.51306,456.33069z"/>
		
			<linearGradient id="SVGID_29_" gradientUnits="userSpaceOnUse" x1="-6.99272" y1="70.97671" x2="773.9408" y2="70.97671" gradientTransform="matrix(-1 0 0 -1 769.06836 500.78793)">
			<stop  offset="0" style="stop-color:#FFFFFF;stop-opacity:0.15"/>
			<stop  offset="1" style="stop-color:#FFFFFF;stop-opacity:0.15"/>
		</linearGradient>
		<path class="st28" d="M626.47107,431.71094c-77.24579-7.52222-240.91678-14.18726-403.63824-15.88327
			c-137.65193-1.43207-209.67763,5.3746-227.70528,7.38519v9.63907c17.39754-3.83807,91.52618-16.73099,281.28006-10.42892
			c131.34451,4.3634,276.68365,11.23856,384.94958,17.08051c51.16156,2.75555,100.64337,4.1286,114.70392,4.48755v-6.81003
			C759.38373,437.46823,692.31903,438.12091,626.47107,431.71094z"/>
		
			<linearGradient id="SVGID_30_" gradientUnits="userSpaceOnUse" x1="-6.99272" y1="31.24477" x2="773.9408" y2="31.24477" gradientTransform="matrix(-1 0 0 -1 769.06836 500.78793)">
			<stop  offset="0" style="stop-color:#FFFFFF;stop-opacity:0.15"/>
			<stop  offset="1" style="stop-color:#FFFFFF;stop-opacity:0.15"/>
		</linearGradient>
		<path class="st29" d="M627.71942,471.7764c28.28119,0.5921,121.86261,0.14548,148.01422,1.86847l0.32745-3.55103v-1.14996
			c-16.99237-0.72528-85.97662-3.34656-163.50177-1.7663c-89.43317,1.8219-507.64258,4.53589-581.00378-0.21066
			c-21.05338-1.36569-31.41178-1.92404-36.42801-2.15277v5.34543c6.54245,0.66684,13.08005,1.31177,19.60729,1.93646
			c21.13626,1.03931,59.29353,2.15106,125.98175,2.17581C266.52869,474.31509,557.99457,470.30057,627.71942,471.7764z"/>
		
			<linearGradient id="SVGID_31_" gradientUnits="userSpaceOnUse" x1="-6.99272" y1="54.28509" x2="339.85776" y2="54.28509" gradientTransform="matrix(-1 0 0 -1 769.06836 500.78793)">
			<stop  offset="0" style="stop-color:#FFFFFF;stop-opacity:0.15"/>
			<stop  offset="1" style="stop-color:#FFFFFF;stop-opacity:0.15"/>
		</linearGradient>
		<path class="st30" d="M465.4718,443.87476c0,0,1.4537,0.9646,9.62723,2.42969c12.02191,2.15726,38.59055,5.39877,96.5032,8.25385
			c15.34698,0.75726,29.62726,1.33807,42.91083,1.7724c110.25397,3.6044,151.61664-3.01004,161.54803-5.07687v-0.82758
			c-19.10626-1.073-93.01617,6.43024-222.66138-2.16681c-22.6449-1.50156-52.12289-4.46832-76.67819-7.15207
			c-26.65677-2.91107-47.51093-5.48807-47.51093-5.48807L465.4718,443.87476z"/>
		
			<linearGradient id="SVGID_32_" gradientUnits="userSpaceOnUse" x1="475.31" y1="243.71262" x2="643.04004" y2="243.71262" gradientTransform="matrix(-1 0 0 -1 769.06836 500.78793)">
			<stop  offset="0" style="stop-color:#FFFFFF;stop-opacity:0.15"/>
			<stop  offset="1" style="stop-color:#FFFFFF;stop-opacity:0.15"/>
		</linearGradient>
		<path class="st31" d="M140.34673,253.91664c-9.0439,0.76062-14.3194,1.70786-14.31842,2.75276
			c0.00098,2.78201,37.55763,5.22574,83.87791,5.45264c46.30878,0.22366,83.85312-1.85272,83.85214-4.6347
			c-0.00955-2.79201-37.56339-5.23357-83.87215-5.45941c-4.13728-0.0191-8.19356-0.02129-12.16402-0.00449
			c0.3976,0.00334,0.62827,0.00449,0.62827,0.00449S168.10168,252.5459,140.34673,253.91664z"/>
		
			<linearGradient id="SVGID_33_" gradientUnits="userSpaceOnUse" x1="292.34683" y1="246.01143" x2="773.9408" y2="246.01143" gradientTransform="matrix(-1 0 0 -1 769.06836 500.78793)">
			<stop  offset="0" style="stop-color:#FFFFFF;stop-opacity:0.15"/>
			<stop  offset="1" style="stop-color:#FFFFFF;stop-opacity:0.15"/>
		</linearGradient>
		<path class="st32" d="M429.2106,249.54817c0,0,20.85416,2.57755,47.51093,5.48863
			c-33.4838-6.63467-179.73819-15.19398-288.7648-15.72656c-105.94652-0.51567-175.04752,8.28743-192.82918,10.84691v5.6909
			c19.42426-3.13591,99.30497-14.77266,200.57466-12.17165c104.64529,2.67857,238.95502,4.56625,241.60513,14.18739
			c2.26694,8.20654-186.07988,10.11102-227.36392,8.9469c-41.28786-1.164-113.83502-1.57291-114.84164-7.28519
			c-0.46719-2.63818,21.47469-4.43694,45.24495-5.60887c27.75496-1.37074,58.00374-1.88872,58.00374-1.88872
			s-0.23067-0.00114-0.62827-0.00449c-9.87793-0.08423-137.52319-1.02582-138.75392,6.35831
			c-1.03425,6.229,58.08388,10.85818,150.98276,11.79749c80.76442,0.80447,228.06081-4.20221,265.14557-9.94476
			c-8.17108-1.46625-9.62479-2.43027-9.62479-2.43027L429.2106,249.54817z"/>
		
			<linearGradient id="SVGID_34_" gradientUnits="userSpaceOnUse" x1="-6.99272" y1="228.59564" x2="773.9408" y2="228.59564" gradientTransform="matrix(-1 0 0 -1 769.06836 500.78793)">
			<stop  offset="0" style="stop-color:#FFFFFF;stop-opacity:0.15"/>
			<stop  offset="1" style="stop-color:#FFFFFF;stop-opacity:0.15"/>
		</linearGradient>
		<path class="st33" d="M614.51306,270.26013c-91.90027,2.94592-209.94589,6.09195-321.75467,7.18854
			c-199.59656,1.96857-279.75763-11.16595-297.63086-14.7142v9.03345c24.93042,1.86407,161.91502,11.53009,297.64032,9.63803
			c140.48895-1.96292,445.03635-8.29193,483.29324-9.09085v-7.13354C766.1297,267.24893,724.76703,273.86453,614.51306,270.26013z"
			/>
		
			<linearGradient id="SVGID_35_" gradientUnits="userSpaceOnUse" x1="710.39459" y1="258.06934" x2="773.9408" y2="258.06934" gradientTransform="matrix(-1 0 0 -1 769.06836 500.78793)">
			<stop  offset="0" style="stop-color:#FFFFFF;stop-opacity:0.15"/>
			<stop  offset="1" style="stop-color:#FFFFFF;stop-opacity:0.15"/>
		</linearGradient>
		<path class="st34" d="M-4.87245,246.7809c7.84555-1.73029,27.22686-5.30109,63.54622-8.12462H-4.87245V246.7809z"/>
		
			<linearGradient id="SVGID_36_" gradientUnits="userSpaceOnUse" x1="-6.99272" y1="252.49925" x2="427.94968" y2="252.49925" gradientTransform="matrix(-1 0 0 -1 769.06836 500.78793)">
			<stop  offset="0" style="stop-color:#FFFFFF;stop-opacity:0.15"/>
			<stop  offset="1" style="stop-color:#FFFFFF;stop-opacity:0.15"/>
		</linearGradient>
		<path class="st35" d="M661.35718,253.43353c51.16156,2.75494,100.64337,4.13019,114.70392,4.48755v-6.81003
			c-16.67737,0.28661-83.74207,0.9393-149.59003-5.47171c-25.35168-2.46629-60.01276-4.84377-100.89124-6.98306H341.11868
			C453.86447,242.91695,570.62848,248.53697,661.35718,253.43353z"/>
		
			<linearGradient id="SVGID_37_" gradientUnits="userSpaceOnUse" x1="-6.99272" y1="214.14447" x2="773.9408" y2="214.14447" gradientTransform="matrix(-1 0 0 -1 769.06836 500.78793)">
			<stop  offset="0" style="stop-color:#FFFFFF;stop-opacity:0.15"/>
			<stop  offset="1" style="stop-color:#FFFFFF;stop-opacity:0.15"/>
		</linearGradient>
		<path class="st36" d="M612.55933,281.10703c-89.43317,1.82245-507.64258,4.53589-581.00378-0.21124
			c-21.05338-1.36395-31.41178-1.92346-36.42801-2.15161v5.99429c11.40612,1.05609,47.85697,3.42688,145.58904,3.46277
			c125.8121,0.04385,417.27798-3.9729,487.00284-2.49539c60.63391,1.26846,130.9975,7.28751,148.34167,8.83691v-11.66827
			C759.06873,282.14746,690.08447,279.52734,612.55933,281.10703z"/>
		
			<linearGradient id="SVGID_38_" gradientUnits="userSpaceOnUse" x1="-6.99272" y1="240.356" x2="339.85776" y2="240.356" gradientTransform="matrix(-1 0 0 -1 769.06836 500.78793)">
			<stop  offset="0" style="stop-color:#FFFFFF;stop-opacity:0.15"/>
			<stop  offset="1" style="stop-color:#FFFFFF;stop-opacity:0.15"/>
		</linearGradient>
		<path class="st37" d="M553.39972,262.19061c-22.6449-1.5033-52.12289-4.47064-76.67819-7.15381
			c-26.65677-2.91109-47.51093-5.48863-47.51093-5.48863l36.2612,8.25603c0,0,1.4537,0.96402,9.62479,2.43027
			c12.02151,2.1561,38.5925,5.39761,96.50565,8.25372c15.34698,0.75623,29.62726,1.33817,42.91083,1.77194
			c110.25397,3.6044,151.61664-3.0112,161.54803-5.07858v-0.8269C756.95483,263.28268,683.04492,270.78592,553.39972,262.19061z"/>
		
			<linearGradient id="SVGID_39_" gradientUnits="userSpaceOnUse" x1="-6.99272" y1="203.1673" x2="773.9408" y2="203.1673" gradientTransform="matrix(-1 0 0 -1 769.06836 500.78793)">
			<stop  offset="0" style="stop-color:#FFFFFF;stop-opacity:0.15"/>
			<stop  offset="1" style="stop-color:#FFFFFF;stop-opacity:0.15"/>
		</linearGradient>
		<path class="st38" d="M638.36005,298.73254c-84.88983,0.15384-387.03058-4.88425-467.32605-6.43253
			c-99.88363-1.91333-159.73486,1.60107-175.90643,2.73932v8.46161c17.80265-1.31229,87.14584-5.90778,174.40118-4.99539
			c71.30304,0.74496,329.3844,2.36963,421.84808,3.95715c81.30774,1.38766,165.53986,0.16751,184.68427-0.146v-3.47302
			C761.6955,298.78537,710.01733,298.61002,638.36005,298.73254z"/>
		
			<linearGradient id="SVGID_40_" gradientUnits="userSpaceOnUse" x1="-6.99272" y1="187.68874" x2="773.9408" y2="187.68874" gradientTransform="matrix(-1 0 0 -1 769.06836 500.78793)">
			<stop  offset="0" style="stop-color:#FFFFFF;stop-opacity:0.15"/>
			<stop  offset="1" style="stop-color:#FFFFFF;stop-opacity:0.15"/>
		</linearGradient>
		<path class="st39" d="M441.31448,304.54703c-128.27017-1.14606-407.64639,4.11441-446.18695,4.85605v3.39203
			c40.20021-0.76178,343.1665-6.3718,449.22839-4.27402c104.61954,2.06281,301.02744,11.75812,331.70517,13.29294v-12.29968
			C746.99957,308.97382,567.73767,305.68628,441.31448,304.54703z"/>
		
			<linearGradient id="SVGID_41_" gradientUnits="userSpaceOnUse" x1="-6.99272" y1="176.56107" x2="773.9408" y2="176.56107" gradientTransform="matrix(-1 0 0 -1 769.06836 500.78793)">
			<stop  offset="0" style="stop-color:#FFFFFF;stop-opacity:0.15"/>
			<stop  offset="1" style="stop-color:#FFFFFF;stop-opacity:0.15"/>
		</linearGradient>
		<path class="st40" d="M290.84705,321.9567c-140.76637-1.94269-270.52316-2.70444-295.71951-2.84146v10.13229
			c29.95895-0.02472,205.39928-0.20111,291.17615-0.81458c88.40793-0.63257,447.44669,0.74048,489.75742,0.90558v-2.83698
			C736.86426,326.20493,425.67581,323.83197,290.84705,321.9567z"/>
		
			<linearGradient id="SVGID_42_" gradientUnits="userSpaceOnUse" x1="-6.99272" y1="159.23026" x2="773.9408" y2="159.23026" gradientTransform="matrix(-1 0 0 -1 769.06836 500.78793)">
			<stop  offset="0" style="stop-color:#FFFFFF;stop-opacity:0.15"/>
			<stop  offset="1" style="stop-color:#FFFFFF;stop-opacity:0.15"/>
		</linearGradient>
		<path class="st41" d="M561.12085,332.80362c-89.43323-1.00327-449.12115,0.42926-503.68546,2.42358
			c-37.67682,1.37524-55.11626,3.11786-62.30785,4.06393v7.14035c24.64724-1.8067,149.02368-10.49417,244.20474-9.19315
			c294.41156,4.03931,505.08301,12.13852,536.72882,13.40204v-11.84927C753.36041,337.9136,641.15936,333.70139,561.12085,332.80362
			z"/>
		
			<linearGradient id="SVGID_43_" gradientUnits="userSpaceOnUse" x1="-6.99272" y1="150.94591" x2="773.9408" y2="150.94591" gradientTransform="matrix(-1 0 0 -1 769.06836 500.78793)">
			<stop  offset="0" style="stop-color:#FFFFFF;stop-opacity:0.15"/>
			<stop  offset="1" style="stop-color:#FFFFFF;stop-opacity:0.15"/>
		</linearGradient>
		<path class="st42" d="M580.87201,354.92221c67.5686,2.84216,173.08521,2.72977,195.18909,2.67188v-3.93079
			c-11.13818,0.07306-44.63672,0.1882-98.1839-0.53088c-66.69348-0.89096-317.26953-10.21997-364.26465-11.01096
			c-43.49283-0.73935-283.14661,6.76605-318.48502,7.88345v5.64594c19.10202-0.61346,98.82167-3.11221,191.18004-5.11783
			C292.40952,348.22632,505.06943,351.7251,580.87201,354.92221z"/>
		
			<linearGradient id="SVGID_44_" gradientUnits="userSpaceOnUse" x1="165.50566" y1="137.65443" x2="427.43399" y2="137.65443" gradientTransform="matrix(-1 0 0 -1 769.06836 500.78793)">
			<stop  offset="0" style="stop-color:#FFFFFF;stop-opacity:0.15"/>
			<stop  offset="1" style="stop-color:#FFFFFF;stop-opacity:0.15"/>
		</linearGradient>
		<path class="st43" d="M552.01935,362.40024l-3.17255-3.03201c0,0,2.69922,0.02359,7.33411,0.07639
			c-8.5929-0.2814-18.43945-0.43765-29.67108-0.40164c-34.31165,0.12079-184.87729,0.54938-184.87546,2.27011
			c0.00381,1.70844,135.3674,5.09885,182.72958,5.60727c34.32074,0.37186,79.20721,0.95389,79.19873-2.01184
			c0-0.58481-2.60205-1.47235-8.19257-2.38196C572.36871,362.31256,552.01935,362.40024,552.01935,362.40024z"/>
		
			<linearGradient id="SVGID_45_" gradientUnits="userSpaceOnUse" x1="73.04162" y1="133.58081" x2="773.9408" y2="133.58081" gradientTransform="matrix(-1 0 0 -1 769.06836 500.78793)">
			<stop  offset="0" style="stop-color:#FFFFFF;stop-opacity:0.15"/>
			<stop  offset="1" style="stop-color:#FFFFFF;stop-opacity:0.15"/>
		</linearGradient>
		<path class="st44" d="M115.02924,364.58383c101.05427,0.30051,243.99985,7.97906,365.26996,9.95145
			c115.15479,1.87469,215.24384-1.46176,215.72723-9.17563c0.0119-0.21182-0.28851-0.418-0.86328-0.61624
			c-10.49042-0.25565-18.94281-0.24438-18.94281-0.24438l-92.27734-4.66391c-11.64673-0.19101-21.48895-0.31744-27.76208-0.3905
			c-4.63489-0.0528-7.33411-0.07639-7.33411-0.07639l3.17255,3.03201c0,0,20.34937-0.08768,43.35077,0.12631
			c29.96326,0.27753,64.42749,1.06631,64.27734,3.22299c-0.25592,3.81-102.62573,6.48523-178.34927,4.02011
			c-96.06418-3.12463-238.94203-6.26111-317.76562-8.33911c-68.00468-1.79596-147.77205,3.16962-168.405,4.56787v3.43481
			C14.06841,368.3118,81.34669,364.48444,115.02924,364.58383z"/>
		
			<linearGradient id="SVGID_46_" gradientUnits="userSpaceOnUse" x1="136.41139" y1="140.39638" x2="181.35988" y2="140.39638" gradientTransform="matrix(-1 0 0 -1 769.06836 500.78793)">
			<stop  offset="0" style="stop-color:#FFFFFF;stop-opacity:0.15"/>
			<stop  offset="1" style="stop-color:#FFFFFF;stop-opacity:0.15"/>
		</linearGradient>
		<path class="st45" d="M587.7085,359.89746c7.30121,0.13428,24.26312,0.46228,44.94849,0.98819
			C617.36768,360.45697,601.48785,360.13391,587.7085,359.89746z"/>
		
			<linearGradient id="SVGID_47_" gradientUnits="userSpaceOnUse" x1="3.51721" y1="130.31348" x2="773.9408" y2="130.31348" gradientTransform="matrix(-1 0 0 -1 769.06836 500.78793)">
			<stop  offset="0" style="stop-color:#FFFFFF;stop-opacity:0.15"/>
			<stop  offset="1" style="stop-color:#FFFFFF;stop-opacity:0.15"/>
		</linearGradient>
		<path class="st46" d="M695.16315,364.74341c17.74115,0.43204,41.30597,1.62802,39.6778,4.9342
			c-2.58722,5.26886-88.90753,7.47388-171.77637,7.82224c-82.8674,0.34943-357.16882-4.20496-451.15448-5.03531
			c-51.76067-0.4617-112.9141,0.79663-116.78255,1.24545v3.95163l0.00859,3.45667
			c63.68444-4.34488,462.02155-1.07632,576.0152-2.07349c125.84601-1.09726,206.14191-5.01956,192.99554-10.72794
			c-8.48083-3.68472-81.04614-6.14639-131.48987-7.43121c-20.68536-0.52591-37.64728-0.85391-44.94849-0.98819
			c-2.49518-0.04498-3.86981-0.06683-3.86981-0.06683l0.10431,0.00449l92.27734,4.66391
			C676.22034,364.49902,684.67273,364.48776,695.16315,364.74341z"/>
		
			<linearGradient id="SVGID_48_" gradientUnits="userSpaceOnUse" x1="-6.99272" y1="110.49147" x2="773.9408" y2="110.49147" gradientTransform="matrix(-1 0 0 -1 769.06836 500.78793)">
			<stop  offset="0" style="stop-color:#FFFFFF;stop-opacity:0.15"/>
			<stop  offset="1" style="stop-color:#FFFFFF;stop-opacity:0.15"/>
		</linearGradient>
		<path class="st47" d="M612.75476,384.77435c-89.42126,1.8197-507.64258,4.53589-580.99615-0.21735
			c-21.34887-1.3826-31.6978-1.93646-36.63105-2.15726v5.98465c11.17924,1.04605,47.4871,3.4455,145.78154,3.48254
			c125.81689,0.04718,417.28519-3.97348,487.01248-2.50275c60.39026,1.27075,130.45026,7.25043,148.13953,8.82898v-11.66321
			C758.7207,385.79236,689.97253,383.19916,612.75476,384.77435z"/>
		
			<linearGradient id="SVGID_49_" gradientUnits="userSpaceOnUse" x1="-6.99272" y1="99.49464" x2="773.9408" y2="99.49464" gradientTransform="matrix(-1 0 0 -1 769.06836 500.78793)">
			<stop  offset="0" style="stop-color:#FFFFFF;stop-opacity:0.15"/>
			<stop  offset="1" style="stop-color:#FFFFFF;stop-opacity:0.15"/>
		</linearGradient>
		<path class="st48" d="M638.56451,402.40207c-84.88977,0.15002-387.03296-4.89542-467.32751-6.4346
			c-100.32777-1.92807-160.25244,1.62799-176.10947,2.75046v8.46381c17.46519-1.29147,87.00087-5.92676,174.60902-5.01334
			c71.29443,0.74658,329.37247,2.3786,421.83801,3.95612c81.02234,1.38593,164.93835,0.18259,184.48651-0.13715v-3.4791
			C761.42139,402.44876,709.89526,402.27286,638.56451,402.40207z"/>
		
			<linearGradient id="SVGID_50_" gradientUnits="userSpaceOnUse" x1="-6.99272" y1="84.03004" x2="773.9408" y2="84.03004" gradientTransform="matrix(-1 0 0 -1 769.06836 500.78793)">
			<stop  offset="0" style="stop-color:#FFFFFF;stop-opacity:0.15"/>
			<stop  offset="1" style="stop-color:#FFFFFF;stop-opacity:0.15"/>
		</linearGradient>
		<path class="st49" d="M441.51804,408.21939c-128.5032-1.15341-408.6669,4.12411-446.3905,4.85217v3.39142
			c39.36313-0.74771,343.18564-6.37741,449.42862-4.27963c104.39166,2.06683,300.17798,11.71326,331.50494,13.27719v-12.2851
			C746.35144,412.62158,567.63702,409.34692,441.51804,408.21939z"/>
	</g>
</g>
</svg>
