<?xml version="1.0" encoding="utf-8"?>
<!-- Generator: Adobe Illustrator 22.1.0, SVG Export Plug-In . SVG Version: 6.00 Build 0)  -->
<svg version="1.1" id="Ebene_1" xmlns="http://www.w3.org/2000/svg" xmlns:xlink="http://www.w3.org/1999/xlink" x="0px" y="0px"
	 viewBox="0 0 32 32" style="enable-background:new 0 0 32 32;" xml:space="preserve">
<style type="text/css">
	.st0{fill:#FFEFD1;}
	.st1{fill:#E5D3B4;}
	.st2{fill:#976214;}
	.st3{fill:#FFFFFF;}
	.st4{fill:url(#SVGID_1_);}
	.st5{fill:url(#SVGID_2_);}
	.st6{fill:#4D3617;}
	.st7{fill:#EF7E66;}
	.st8{fill:url(#SVGID_3_);}
	.st9{fill:#F7B9AB;}
</style>
<g>
	<g>
		<g>
			<path class="st0" d="M31.5,16.10529c0,8.5625-6.9385,15.5-15.502,15.5c-8.5615,0-15.498-6.9375-15.498-15.5
				c0-8.5586,6.9365-15.5,15.498-15.5C24.5615,0.60529,31.5,7.54669,31.5,16.10529z"/>
		</g>
		<g>
			<path class="st1" d="M14.6767,4.51639c7.8154,0,14.4336,5.0596,16.7988,12.0743c0.0049-0.1631,0.0245-0.3213,0.0245-0.4854
				c0-8.5586-6.9385-15.5-15.502-15.5c-6.4834,0-12.0283,3.9844-14.3408,9.6348C4.8964,6.72829,9.5214,4.51639,14.6767,4.51639z"/>
		</g>
		<g>
			<path class="st2" d="M15.998,0.60529c-4.5352,0-8.6006,1.959-11.4346,5.0625c2.7549-2.5127,6.4073-4.0605,10.4317-4.0605
				c8.5635,0,15.5029,6.9414,15.5029,15.5c0,4.0253-1.5478,7.6806-4.0625,10.4355c3.1055-2.834,5.0645-6.9004,5.0645-11.4375
				C31.5,7.54669,24.5615,0.60529,15.998,0.60529z"/>
		</g>
		<g>
			<path class="st3" d="M16.0107,31.60529c4.5342,0,8.5996-1.959,11.4336-5.0625c-2.7549,2.5137-6.4072,4.0605-10.4316,4.0605
				c-8.5635,0-15.502-6.9414-15.502-15.5c0-4.0253,1.5469-7.6806,4.0615-10.4355c-3.1045,2.834-5.0635,6.9004-5.0635,11.4375
				C0.5087,24.66389,7.4472,31.60529,16.0107,31.60529z"/>
		</g>
	</g>
	<g id="esc_btn_5_">
		<g id="esc_btn_6_">
			<linearGradient id="SVGID_1_" gradientUnits="userSpaceOnUse" x1="4.2461" y1="17.06184" x2="27.1826" y2="17.06184">
				<stop  offset="0" style="stop-color:#302213;stop-opacity:0.4"/>
				<stop  offset="0.35714" style="stop-color:#302213;stop-opacity:0.4"/>
			</linearGradient>
			<path class="st4" d="M27.1826,17.06229c0,6.334-5.1348,11.4678-11.4678,11.4678c-6.335,0-11.4687-5.1338-11.4687-11.4678
				s5.1337-11.4687,11.4687-11.4687C22.0478,5.59359,27.1826,10.72829,27.1826,17.06229z"/>
			<g>
				<linearGradient id="SVGID_2_" gradientUnits="userSpaceOnUse" x1="15.6904" y1="5.52329" x2="15.6904" y2="26.64828">
					<stop  offset="0" style="stop-color:#E74122"/>
					<stop  offset="0.20767" style="stop-color:#E63A1C"/>
					<stop  offset="0.55411" style="stop-color:#E43215"/>
					<stop  offset="1" style="stop-color:#E43012"/>
				</linearGradient>
				<path class="st5" d="M26.2519,16.08578c0,5.8349-4.7295,10.5625-10.5635,10.5625c-5.833,0-10.5595-4.7276-10.5595-10.5625
					c0-5.8321,4.7265-10.5625,10.5595-10.5625C21.5224,5.52329,26.2519,10.25369,26.2519,16.08578z"/>
			</g>
			<g>
				<g>
					<path class="st6" d="M15.6884,5.52329c5.834,0,10.5635,4.7304,10.5635,10.5625c0,5.8349-4.7295,10.5625-10.5635,10.5625
						c-5.833,0-10.5595-4.7276-10.5595-10.5625C5.1289,10.25369,9.8554,5.52329,15.6884,5.52329 M15.6884,5.02329
						c-6.09823,0-11.0595,4.96262-11.0595,11.0625s4.96127,11.0625,11.0595,11.0625c6.10043,0,11.0635-4.96262,11.0635-11.0625
						S21.78883,5.02329,15.6884,5.02329L15.6884,5.02329z"/>
				</g>
			</g>
			<path class="st7" d="M15.7822,6.28009c-3.0479,0-5.7686,1.4072-7.5498,3.6065c1.6689-1.3497,3.791-2.1622,6.1054-2.1622
				c5.3653,0,9.712,4.3497,9.712,9.712c0,2.3154-0.8096,4.4384-2.1612,6.1064c2.1992-1.7812,3.6084-4.5,3.6084-7.5508
				C25.497,10.62869,21.1494,6.28009,15.7822,6.28009z"/>
			
				<linearGradient id="SVGID_3_" gradientUnits="userSpaceOnUse" x1="252.56595" y1="-282.70877" x2="252.56595" y2="-265.44318" gradientTransform="matrix(-1 0 0 -1 267.26559 -257)">
				<stop  offset="0" style="stop-color:#A62416"/>
				<stop  offset="0.23384" style="stop-color:#9C2115"/>
				<stop  offset="0.56885" style="stop-color:#951F14"/>
				<stop  offset="1" style="stop-color:#921F14"/>
			</linearGradient>
			<path class="st8" d="M15.7802,25.70879c3.0518,0,5.7715-1.4092,7.5508-3.6074c-1.668,1.3496-3.7881,2.1621-6.1035,2.1621
				c-5.3652,0-9.7148-4.3496-9.7148-9.7129c0-2.3135,0.8144-4.4365,2.165-6.1074c-2.2002,1.7812-3.6094,4.501-3.6094,7.5517
				C6.0683,21.35919,10.416,25.70879,15.7802,25.70879z"/>
			<g>
				<path class="st3" d="M21.0029,10.77519c-0.3936-0.3906-2.6924,1.2647-5.3145,3.7783c-2.624-2.5136-4.9209-4.1689-5.3105-3.7783
					c-0.3897,0.3897,1.2637,2.6865,3.7793,5.3086c-2.5156,2.6279-4.169,4.9238-3.7803,5.3145
					c0.3906,0.3877,2.6875-1.2666,5.3115-3.7823c2.627,2.5166,4.9219,4.1729,5.3145,3.7823
					c0.3857-0.3907-1.2666-2.6885-3.7832-5.3145C19.7363,13.46169,21.3886,11.16489,21.0029,10.77519z"/>
			</g>
			<path class="st9" d="M19.4492,8.96269c-0.1817,0.5293-1.1748,0.6699-2.2197,0.3155c-1.0469-0.3565-1.7461-1.0713-1.5635-1.6016
				c0.1748-0.5303,1.1679-0.6709,2.2138-0.3145C18.9267,7.71659,19.6269,8.43339,19.4492,8.96269z"/>
		</g>
	</g>
</g>
</svg>
