<?xml version="1.0" encoding="utf-8"?>
<!-- Generator: Adobe Illustrator 22.1.0, SVG Export Plug-In . SVG Version: 6.00 Build 0)  -->
<svg version="1.1" id="Ebene_1" xmlns="http://www.w3.org/2000/svg" xmlns:xlink="http://www.w3.org/1999/xlink" x="0px" y="0px"
	 viewBox="0 0 800 600" style="enable-background:new 0 0 800 600;" xml:space="preserve">
<style type="text/css">
	.st0{fill:url(#SVGID_1_);}
	.st1{fill:url(#SVGID_2_);}
	.st2{fill:url(#SVGID_3_);}
	.st3{fill:#C3E5F4;}
	.st4{fill:url(#SVGID_4_);}
	.st5{fill:#573512;}
	.st6{opacity:0.4;}
	.st7{fill:none;}
	.st8{fill:none;stroke:#302213;stroke-width:5;stroke-linejoin:round;}
	.st9{font-family:'ArialRoundedMTPro-Bold';}
	.st10{font-size:16.13592px;}
	.st11{fill:#302213;}
	.st12{fill:none;stroke:#FFFFFF;stroke-width:5;stroke-linejoin:round;}
	.st13{fill:#4B3414;}
</style>
<g id="Btn_x5F_big_x5F_blue_x5F_std_4_">
	<linearGradient id="SVGID_1_" gradientUnits="userSpaceOnUse" x1="295.4697" y1="323.12051" x2="510.92709" y2="323.12051">
		<stop  offset="0" style="stop-color:#302213;stop-opacity:0.4"/>
		<stop  offset="0.35714" style="stop-color:#302213;stop-opacity:0.4"/>
	</linearGradient>
	<path class="st0" d="M497.1965,301.43015H309.19727c-7.57117,0-13.72757,6.15958-13.72757,13.73059v15.91956
		c0,7.57117,6.1564,13.73059,13.72757,13.73059H497.1965c7.57101,0,13.73059-6.15942,13.73059-13.73059v-15.91956
		C510.92709,307.58972,504.76752,301.43015,497.1965,301.43015L497.1965,301.43015z"/>
	<g>
		<g>
			<linearGradient id="SVGID_2_" gradientUnits="userSpaceOnUse" x1="404.79034" y1="298.64423" x2="404.79034" y2="341.22897">
				<stop  offset="0.0102" style="stop-color:#1CA9DA"/>
				<stop  offset="0.33274" style="stop-color:#26ABDB"/>
				<stop  offset="0.5837" style="stop-color:#3EB1DE"/>
				<stop  offset="0.80979" style="stop-color:#5BBDE3"/>
				<stop  offset="1" style="stop-color:#79CBE9"/>
			</linearGradient>
			<path class="st1" d="M498.78845,298.64423H310.78925c-7.35037,0-13.32959,5.98239-13.32959,13.33261v15.91953
				c0,7.35358,5.97922,13.33261,13.32959,13.33261h187.99921c7.35022,0,13.33264-5.97903,13.33264-13.33261v-15.91953
				C512.12109,304.62662,506.13867,298.64423,498.78845,298.64423z"/>
		</g>
		<linearGradient id="SVGID_3_" gradientUnits="userSpaceOnUse" x1="404.79034" y1="327.1004" x2="404.79034" y2="340.83099">
			<stop  offset="0" style="stop-color:#045F8D"/>
			<stop  offset="0.10694" style="stop-color:#046596"/>
			<stop  offset="0.35948" style="stop-color:#0470A7"/>
			<stop  offset="0.63976" style="stop-color:#0576B1"/>
			<stop  offset="1" style="stop-color:#0578B5"/>
		</linearGradient>
		<path class="st2" d="M498.78845,339.23904H310.78925c-6.87167,0-12.4776-5.36664-12.89117-12.13864
			c-0.01559,0.2644-0.04044,0.52869-0.04044,0.79596c0,7.14517,5.78946,12.93463,12.93161,12.93463h187.99921
			c7.14502,0,12.93463-5.78946,12.93463-12.93463c0-0.26727-0.02182-0.53156-0.04044-0.79596
			C511.26904,333.87241,505.66617,339.23904,498.78845,339.23904z"/>
		<path class="st3" d="M507.20209,304.98721c-0.33893,0.59393-2.24799,0.14932-4.27518-0.99802
			c-2.02115-1.14429-3.38611-2.55588-3.04095-3.14984c0.32651-0.59698,2.23877-0.15536,4.26276,0.99496
			C506.17288,302.97864,507.53482,304.39023,507.20209,304.98721z"/>
		<g>
			<linearGradient id="SVGID_4_" gradientUnits="userSpaceOnUse" x1="404.74521" y1="300.19272" x2="404.74521" y2="320.99591">
				<stop  offset="0" style="stop-color:#BBE2F2"/>
				<stop  offset="1" style="stop-color:#00A4C6;stop-opacity:0"/>
			</linearGradient>
			<path class="st4" d="M507.48499,309.00751c0,4.87234-53.69577,12.1293-102.73816,11.9863
				c-52.00494-0.15161-102.74136-7.11395-102.74136-11.9863c0-4.86914,7.02386-8.81479,29.43713-8.81479
				c16.41031,0,130.03391,0.04123,162.30573,0.48944C505.3197,300.8429,507.48499,307.70392,507.48499,309.00751z"/>
		</g>
	</g>
	<g>
		<path class="st5" d="M498.78845,299.04221c7.14502,0,12.93463,5.79263,12.93463,12.93463v15.91953
			c0,7.14517-5.78961,12.93463-12.93463,12.93463H310.78925c-7.14215,0-12.93161-5.78946-12.93161-12.93463v-15.91953
			c0-7.142,5.78946-12.93463,12.93161-12.93463H498.78845 M498.78845,298.54221H310.78925
			c-7.40622,0-13.43161,6.02673-13.43161,13.43463v15.91953c0,7.4079,6.02539,13.43463,13.43161,13.43463h187.99921
			c7.4079,0,13.43463-6.02673,13.43463-13.43463v-15.91953C512.22308,304.56894,506.19635,298.54221,498.78845,298.54221
			L498.78845,298.54221z"/>
	</g>
</g>
<g>
	<g class="st6">
		<rect x="327.54276" y="317.13721" class="st7" width="158.87106" height="18.35328"/>
		<text transform="matrix(1 0 0 1 389.9635 328.59283)" class="st8 st9 st10">Book</text>
		<rect x="327.54276" y="317.13721" class="st7" width="158.87106" height="18.35328"/>
		<text transform="matrix(1 0 0 1 389.9635 328.59283)" class="st8 st9 st10">Book</text>
		<rect x="327.54276" y="317.13721" class="st7" width="158.87106" height="18.35328"/>
		<text transform="matrix(1 0 0 1 389.9635 328.59283)" class="st8 st9 st10">Book</text>
		<rect x="327.54276" y="317.13721" class="st7" width="158.87106" height="18.35328"/>
		<text transform="matrix(1 0 0 1 389.9635 328.59283)" class="st11 st9 st10">Book</text>
		<rect x="327.54276" y="317.13721" class="st7" width="158.87106" height="18.35328"/>
		<text transform="matrix(1 0 0 1 389.9635 328.59283)" class="st11 st9 st10">Book</text>
		<rect x="327.54276" y="317.13721" class="st7" width="158.87106" height="18.35328"/>
		<text transform="matrix(1 0 0 1 389.9635 328.59283)" class="st11 st9 st10">Book</text>
		<rect x="327.54276" y="317.13721" class="st7" width="158.87106" height="18.35328"/>
		<text transform="matrix(1 0 0 1 389.9635 328.59283)" class="st11 st9 st10">Book</text>
	</g>
</g>
</svg>
