
<svg xmlns="http://www.w3.org/2000/svg" version="1.1" xmlns:xlink="http://www.w3.org/1999/xlink" preserveAspectRatio="none" x="0px" y="0px" width="70px" height="70px" viewBox="0 0 70 70">
<defs>
<g id="flash0_ai_Illustrator_Symbols_calendar_big_0_Layer0_0_MEMBER_0_MEMBER_0_MEMBER_0_MEMBER_0_FILL">
<path fill="#92927F" stroke="none" d="
M -30.45 -17.2
L -31.5 -14.85
Q -22.75 17.5 -22.2 23.05 -21.6 28.6 -21.05 29.6
L 25.95 20.75
Q 26.3 20.45 26.55 19.6 27.1 17.9 26.7 15.15 26.1 10.75 12.15 -23.4
L -30.45 -17.2 Z"/>
</g>

<g id="flash0_ai_Illustrator_Symbols_calendar_big_0_Layer0_0_MEMBER_0_MEMBER_0_MEMBER_0_MEMBER_1_FILL">
<path fill="#CA2027" stroke="none" d="
M 23.7 -1.2
L 14.95 -24.95 -30.45 -17.95
Q -28.2 -13.35 -25.75 -7.75 -20.85 3.45 -19.95 8.3 -18.5 16.1 -17.35 24.35 20.4 15.95 26.85 13.85 29.35 13.05 31.55 12.05 30.45 11.1 28.95 9 25.9 4.75 23.7 -1.2 Z"/>
</g>

<g id="flash0_ai_Illustrator_Symbols_calendar_big_0_Layer0_0_MEMBER_0_MEMBER_0_MEMBER_0_MEMBER_3_FILL">
<path fill="#D92F36" stroke="none" d="
M 15.05 -24.7
L 13.1 -24.65 -8.75 -21.3
Q -14.5 -17.3 -15.5 -14.05 -16.6 -10.2 19.9 -11.5
L 15.05 -24.7 Z"/>
</g>

<g id="flash0_ai_Illustrator_Symbols_calendar_big_0_Layer0_0_MEMBER_0_MEMBER_0_MEMBER_0_MEMBER_4_FILL">
<path fill="#DE4E53" stroke="none" d="
M 18.35 -15.7
L 15.05 -24.7 13.1 -24.65 10.45 -24.25
Q 9.05 -23 7.6 -21.2 4.15 -16.75 3.2 -14.5 2.45 -12.75 3.3 -13 3.75 -13.2 18.35 -15.7 Z"/>
</g>

<g id="flash0_ai_Illustrator_Symbols_calendar_big_0_Layer0_0_MEMBER_0_MEMBER_0_MEMBER_0_MEMBER_5_FILL">
<path fill="#BEBD9C" stroke="none" d="
M 25.95 20.75
Q 26.75 20.05 26.85 17.7
L -18.05 26.45 -21.05 29.6 25.95 20.75 Z"/>
</g>

<g id="flash0_ai_Illustrator_Symbols_calendar_big_0_Layer0_0_MEMBER_0_MEMBER_0_MEMBER_0_MEMBER_7_FILL">
<path fill="#4A4936" stroke="none" d="
M -30.45 -17.2
L -31.5 -14.85
Q -22.75 17.5 -22.2 23.05 -21.75 27.2 -21.25 28.85
L -18.25 25.6
Q -20.95 13.65 -22.1 8.25 -22.75 5.25 -25.95 -4.6 -27.6 -9.85 -30.1 -17.25
L -30.45 -17.2 Z"/>
</g>

<g id="flash0_ai_Illustrator_Symbols_calendar_big_0_Layer0_0_MEMBER_0_MEMBER_0_MEMBER_0_MEMBER_8_FILL">
<path fill="#D1CEBD" stroke="none" d="
M 23.7 -1.2
L 17.65 -17.65 -27.05 -10.75
Q -20.9 3 -19.95 8.3 -18.5 16.1 -17.35 24.35 20.4 15.95 26.85 13.85 29.35 13.05 31.55 12.05 30.45 11.1 28.95 9 25.9 4.75 23.7 -1.2 Z"/>
</g>

<g id="flash0_ai_Illustrator_Symbols_calendar_big_0_Layer0_0_MEMBER_0_MEMBER_0_MEMBER_0_MEMBER_9_FILL">
<path fill="#ECE8D0" stroke="none" d="
M 23.7 -1.2
L 18.65 -14.9
Q 4.6 -11.8 -2.8 -5.55 -9.3 -0.15 -11.4 4.1 -13.2 7.65 -13.3 13.8 -13.35 17.8 -9.7 22.6 21.25 15.7 26.85 13.85 29.35 13.05 31.55 12.05 30.45 11.1 28.95 9 25.9 4.75 23.7 -1.2 Z"/>
</g>

<g id="flash0_ai_Illustrator_Symbols_calendar_big_0_Layer0_0_MEMBER_0_MEMBER_0_MEMBER_0_MEMBER_10_FILL">
<path fill="#F8F3EA" stroke="none" d="
M 22.55 -4.25
Q 19.5 -3.3 16.4 -1.35 13.5 0.45 11.45 2.6 7.6 6.7 6.3 11 5.75 12.8 5 19.25 22.55 15.25 26.85 13.85 29.35 13.05 31.55 12.05 30.45 11.1 28.95 9 25.9 4.75 23.7 -1.2
L 22.55 -4.25 Z"/>
</g>

<g id="flash0_ai_Illustrator_Symbols_calendar_big_0_Layer0_0_MEMBER_0_MEMBER_0_MEMBER_0_MEMBER_11_FILL">
<path fill="#D9D8B7" stroke="none" d="
M 25.95 20.75
Q 26.75 20.05 26.85 17.7
L 16.05 19.8
Q 15.35 20.4 15 21.2 14.7 22 14.85 22.85
L 25.95 20.75 Z"/>
</g>

<g id="flash0_ai_Illustrator_Symbols_calendar_big_0_Layer0_0_MEMBER_0_MEMBER_0_MEMBER_1_FILL">
<path fill="#363520" stroke="none" d="
M 27 16.15
L 26.55 14.35
Q 11.2 18 7.2 19.05 3.25 20.05 27 16.15 Z"/>
</g>

<g id="flash0_ai_Illustrator_Symbols_calendar_big_0_Layer0_0_MEMBER_0_MEMBER_0_MEMBER_2_MEMBER_0_FILL">
<path fill="#4A4936" stroke="none" d="
M -22.05 -22.5
Q -23 -24.05 -24.3 -24.05 -25.6 -24.05 -26.55 -22.5 -27.5 -20.9 -27.5 -18.75
L -27.5 -18.25 -25.6 -18.5 -25.6 -19.6
Q -25.6 -20.5 -25.2 -21.15 -24.8 -21.8 -24.3 -21.8 -23.75 -21.8 -23.35 -21.15 -22.95 -20.5 -22.95 -19.6
L -23 -18.5
Q -23.15 -17.65 -23.45 -16.7 -23.75 -15.8 -23.8 -15.55 -23.8 -14.85 -23.05 -14.45 -22.8 -14.3 -22.5 -14.45 -22.2 -14.65 -22.1 -14.7 -21.1 -16.05 -21.1 -18.75 -21.1 -20.9 -22.05 -22.5 Z"/>
</g>

<g id="flash0_ai_Illustrator_Symbols_calendar_big_0_Layer0_0_MEMBER_0_MEMBER_0_MEMBER_2_MEMBER_1_MEMBER_0_FILL">
<path fill="#92927F" stroke="none" d="
M -24.2 -21.8
Q -25.05 -22.1 -25.25 -22.05 -25.8 -21.95 -26.15 -21.2 -26.55 -20.45 -26.55 -19.5 -26.55 -18.65 -26.45 -18.4
L -25.5 -18.55
Q -25.65 -18.9 -25.65 -19.5 -25.65 -20.25 -25.2 -20.95 -24.8 -21.7 -24.2 -21.8 Z"/>
</g>

<g id="flash0_ai_Illustrator_Symbols_calendar_big_0_Layer0_0_MEMBER_0_MEMBER_0_MEMBER_2_MEMBER_1_MEMBER_1_FILL">
<path fill="#92927F" stroke="none" d="
M -22.05 -22.5
Q -23 -24.05 -24.3 -24.05
L -24.75 -24
Q -23.6 -23.7 -22.8 -22.2 -22.05 -20.75 -22.05 -18.75 -22.05 -16 -23 -14.7
L -23.2 -14.6 -23.05 -14.45
Q -22.8 -14.3 -22.5 -14.45 -22.2 -14.65 -22.1 -14.7 -21.1 -16.05 -21.1 -18.75 -21.1 -20.9 -22.05 -22.5 Z"/>
</g>

<g id="flash0_ai_Illustrator_Symbols_calendar_big_0_Layer0_0_MEMBER_0_MEMBER_0_MEMBER_2_MEMBER_1_MEMBER_2_MEMBER_0_FILL">
<path fill="#D1CEBD" stroke="none" d="
M -22.15 -21.7
Q -21.25 -19.65 -21.15 -17.55
L -21.1 -18.75
Q -21.1 -20.9 -22.05 -22.5 -23 -24.05 -24.3 -24.05
L -24.3 -24
Q -23.15 -23.9 -22.15 -21.7 Z"/>
</g>

<g id="flash0_ai_Illustrator_Symbols_calendar_big_0_Layer0_0_MEMBER_0_MEMBER_0_MEMBER_2_MEMBER_2_FILL">
<path fill="#7D1419" stroke="none" d="
M -23.8 -15.4
L -23.3 -17.2 -24.2 -18.75 -25.5 -18.55 -23.8 -15.4 Z"/>
</g>

<g id="flash0_ai_Illustrator_Symbols_calendar_big_0_Layer0_0_MEMBER_0_MEMBER_0_MEMBER_3_MEMBER_0_FILL">
<path fill="#4A4936" stroke="none" d="
M -11.2 -21.4
L -11.25 -20.3
Q -11.35 -19.45 -11.7 -18.5 -12 -17.6 -12 -17.3 -12.1 -16.75 -11.25 -16.2 -11.05 -16.1 -10.75 -16.25
L -10.3 -16.45
Q -9.35 -17.8 -9.35 -20.5 -9.35 -22.7 -10.25 -24.25 -11.2 -25.8 -12.55 -25.8 -13.85 -25.8 -14.8 -24.25 -15.75 -22.7 -15.75 -20.5
L -15.7 -20 -13.85 -20.3 -13.85 -21.4
Q -13.85 -22.3 -13.45 -22.9 -13.05 -23.55 -12.5 -23.55 -11.95 -23.55 -11.6 -22.9 -11.2 -22.3 -11.2 -21.4 Z"/>
</g>

<g id="flash0_ai_Illustrator_Symbols_calendar_big_0_Layer0_0_MEMBER_0_MEMBER_0_MEMBER_3_MEMBER_1_MEMBER_0_FILL">
<path fill="#92927F" stroke="none" d="
M -12.45 -23.55
Q -12.95 -23.9 -13.45 -23.8 -14 -23.7 -14.4 -22.95 -14.8 -22.2 -14.8 -21.3
L -14.7 -20.15 -13.75 -20.3 -13.85 -21.3
Q -13.85 -22.05 -13.45 -22.75 -13 -23.5 -12.45 -23.55 Z"/>
</g>

<g id="flash0_ai_Illustrator_Symbols_calendar_big_0_Layer0_0_MEMBER_0_MEMBER_0_MEMBER_3_MEMBER_1_MEMBER_1_FILL">
<path fill="#92927F" stroke="none" d="
M -12.55 -25.8
L -13 -25.75
Q -11.85 -25.5 -11.05 -24 -10.25 -22.5 -10.25 -20.5 -10.25 -17.9 -11.25 -16.45
L -11.45 -16.35 -11.25 -16.2
Q -11.05 -16.1 -10.75 -16.25
L -10.3 -16.45
Q -9.35 -17.8 -9.35 -20.5 -9.35 -22.7 -10.25 -24.25 -11.2 -25.8 -12.55 -25.8 Z"/>
</g>

<g id="flash0_ai_Illustrator_Symbols_calendar_big_0_Layer0_0_MEMBER_0_MEMBER_0_MEMBER_3_MEMBER_1_MEMBER_2_MEMBER_0_FILL">
<path fill="#D1CEBD" stroke="none" d="
M -10.4 -23.5
Q -9.5 -21.45 -9.4 -19.3
L -9.35 -20.5
Q -9.35 -22.7 -10.25 -24.25 -11.2 -25.8 -12.55 -25.8 -11.35 -25.7 -10.4 -23.5 Z"/>
</g>

<g id="flash0_ai_Illustrator_Symbols_calendar_big_0_Layer0_0_MEMBER_0_MEMBER_0_MEMBER_3_MEMBER_2_FILL">
<path fill="#7D1419" stroke="none" d="
M -12 -17.15
L -11.9 -17.9
Q -11.75 -18.2 -11.55 -19
L -12.45 -20.5 -13.75 -20.3 -12 -17.15 Z"/>
</g>

<g id="flash0_ai_Illustrator_Symbols_calendar_big_0_Layer0_0_MEMBER_0_MEMBER_0_MEMBER_4_MEMBER_0_FILL">
<path fill="#4A4936" stroke="none" d="
M 2.1 -22.35
Q 2.1 -24.55 1.2 -26.1 0.25 -27.65 -1.1 -27.65 -2.4 -27.65 -3.35 -26.1 -4.3 -24.5 -4.3 -22.35
L -4.25 -21.85 -2.4 -22.15 -2.4 -23.2
Q -2.4 -24.1 -2 -24.75 -1.6 -25.4 -1.05 -25.4 -0.5 -25.4 -0.15 -24.75 0.25 -24.1 0.25 -23.2
L 0.2 -22.6
Q 0.3 -22.45 0.2 -22.1 0.1 -21.25 -0.25 -20.3 -0.55 -19.45 -0.55 -19.15 -0.65 -18.5 0.2 -18.05 0.4 -17.9 0.7 -18.05 0.9 -18.15 1.15 -18.3 2.1 -19.6 2.1 -22.35 Z"/>
</g>

<g id="flash0_ai_Illustrator_Symbols_calendar_big_0_Layer0_0_MEMBER_0_MEMBER_0_MEMBER_4_MEMBER_1_MEMBER_0_FILL">
<path fill="#92927F" stroke="none" d="
M -1 -25.4
Q -1.85 -25.7 -2 -25.65 -2.55 -25.55 -2.95 -24.8 -3.35 -24 -3.35 -23.1
L -3.25 -22 -2.3 -22.15 -2.4 -23.1
Q -2.4 -23.85 -2 -24.55 -1.55 -25.35 -1 -25.4 Z"/>
</g>

<g id="flash0_ai_Illustrator_Symbols_calendar_big_0_Layer0_0_MEMBER_0_MEMBER_0_MEMBER_4_MEMBER_1_MEMBER_1_FILL">
<path fill="#92927F" stroke="none" d="
M 2.1 -22.35
Q 2.1 -24.55 1.2 -26.1 0.25 -27.65 -1.1 -27.65
L -1.55 -27.6
Q -0.4 -27.3 0.4 -25.8 1.2 -24.3 1.2 -22.35 1.2 -19.7 0.25 -18.3
L 0 -18.2 0.2 -18.05
Q 0.4 -17.9 0.7 -18.05 0.9 -18.15 1.15 -18.3 2.1 -19.6 2.1 -22.35 Z"/>
</g>

<g id="flash0_ai_Illustrator_Symbols_calendar_big_0_Layer0_0_MEMBER_0_MEMBER_0_MEMBER_4_MEMBER_1_MEMBER_2_MEMBER_0_FILL">
<path fill="#D1CEBD" stroke="none" d="
M 1.05 -25.3
Q 1.95 -23.3 2.05 -21.15
L 2.1 -22.35
Q 2.1 -24.55 1.2 -26.1 0.25 -27.65 -1.1 -27.65 0.1 -27.5 1.05 -25.3 Z"/>
</g>

<g id="flash0_ai_Illustrator_Symbols_calendar_big_0_Layer0_0_MEMBER_0_MEMBER_0_MEMBER_4_MEMBER_2_FILL">
<path fill="#7D1419" stroke="none" d="
M -0.55 -19
L -0.45 -19.7 -0.1 -20.8 -0.95 -22.35 -2.3 -22.15 -0.55 -19 Z"/>
</g>

<g id="flash0_ai_Illustrator_Symbols_calendar_big_0_Layer0_0_MEMBER_0_MEMBER_0_MEMBER_5_MEMBER_0_FILL">
<path fill="#4A4936" stroke="none" d="
M 12.05 -28
Q 11.1 -29.55 9.8 -29.55 8.45 -29.55 7.55 -28 6.6 -26.45 6.6 -24.25
L 6.6 -23.75 8.45 -24 8.45 -25.1
Q 8.45 -26 8.85 -26.65 9.25 -27.3 9.8 -27.3 10.35 -27.3 10.75 -26.65 11.15 -26 11.15 -25.1
L 11.05 -24
Q 10.95 -23.1 10.65 -22.2 10.35 -21.25 10.3 -21 10.2 -20.4 11.05 -19.95 11.3 -19.85 11.6 -19.95 11.75 -20 12 -20.15 13 -21.6 13 -24.25 13 -26.4 12.05 -28 Z"/>
</g>

<g id="flash0_ai_Illustrator_Symbols_calendar_big_0_Layer0_0_MEMBER_0_MEMBER_0_MEMBER_5_MEMBER_1_MEMBER_0_FILL">
<path fill="#92927F" stroke="none" d="
M 9.9 -27.25
Q 9.4 -27.6 8.85 -27.5 8.35 -27.4 7.95 -26.65 7.55 -25.9 7.55 -25 7.55 -24.15 7.65 -23.9
L 8.55 -24.05 8.45 -25
Q 8.45 -25.75 8.9 -26.45 9.3 -27.2 9.9 -27.25 Z"/>
</g>

<g id="flash0_ai_Illustrator_Symbols_calendar_big_0_Layer0_0_MEMBER_0_MEMBER_0_MEMBER_5_MEMBER_1_MEMBER_1_FILL">
<path fill="#92927F" stroke="none" d="
M 12.05 -28
Q 11.1 -29.55 9.8 -29.55
L 9.35 -29.45
Q 10.5 -29.2 11.25 -27.7 12.05 -26.2 12.05 -24.25 12.05 -21.5 11.1 -20.15
L 10.9 -20.05 11.05 -19.95
Q 11.3 -19.85 11.6 -19.95 11.75 -20 12 -20.15 13 -21.6 13 -24.25 13 -26.4 12.05 -28 Z"/>
</g>

<g id="flash0_ai_Illustrator_Symbols_calendar_big_0_Layer0_0_MEMBER_0_MEMBER_0_MEMBER_5_MEMBER_1_MEMBER_2_MEMBER_0_FILL">
<path fill="#D1CEBD" stroke="none" d="
M 11.95 -27.2
Q 12.85 -25.15 12.9 -23.05
L 13 -24.25
Q 13 -26.4 12.05 -28 11.1 -29.55 9.8 -29.55
L 9.8 -29.5
Q 10.95 -29.4 11.95 -27.2 Z"/>
</g>

<g id="flash0_ai_Illustrator_Symbols_calendar_big_0_Layer0_0_MEMBER_0_MEMBER_0_MEMBER_5_MEMBER_2_FILL">
<path fill="#7D1419" stroke="none" d="
M 10.3 -20.9
L 10.8 -22.7 9.9 -24.25 8.55 -24.05 10.3 -20.9 Z"/>
</g>

<g id="flash0_ai_Illustrator_Symbols_calendar_big_0_Layer0_0_MEMBER_0_MEMBER_1_FILL">
<path fill="#4E381B" stroke="none" d="
M 9.8 -30.05
L 9.2 -29.95 9.1 -29.9
Q 7.8 -29.5 6.95 -27.95 6.1 -26.35 6.1 -24.25
L 6.1 -24.1 2.5 -23.55
Q 2.25 -25.6 1.25 -26.85 0.25 -28.15 -1.1 -28.15
L -1.65 -28.05 -1.8 -28
Q -3.1 -27.6 -3.9 -26.05 -4.75 -24.5 -4.8 -22.4
L -8.85 -21.8 -8.95 -21.75
Q -9.2 -23.8 -10.2 -25.05 -11.2 -26.3 -12.55 -26.3
L -13.1 -26.25 -13.25 -26.2
Q -14.55 -25.8 -15.35 -24.25 -16.2 -22.7 -16.25 -20.65
L -20.7 -19.95
Q -20.95 -21.95 -21.95 -23.25 -23 -24.55 -24.3 -24.55
L -24.9 -24.45 -25 -24.4
Q -26.3 -24.05 -27.15 -22.45 -27.95 -20.95 -28 -18.85
L -30.5 -18.45
Q -30.75 -18.45 -30.9 -18.2 -30.95 -17.95 -30.9 -17.75
L -30.8 -17.55 -30.9 -17.4 -31.95 -15.05 -32 -14.7
Q -23.25 17.65 -22.7 23.1
L -22.55 24.15 -22.55 24.5 -22.45 25.2 -22.4 25.35 -22.4 25.5 -22.3 26.05 -22.3 26.35 -21.95 28.2 -21.95 28.25 -21.85 28.6 -21.85 28.7 -21.45 29.85
Q -21.3 30.1 -21.05 30.1
L -20.95 30.05 26 21.25 26.3 21.1 26.35 21.05
Q 27.25 20.15 27.35 17.75
L 27.05 14.3
Q 29.55 13.5 31.75 12.5 32.05 12.3 32.05 12.1 32.05 11.8 31.9 11.65 30.8 10.7 29.3 8.6 26.3 4.45 24.15 -1.35
L 23.55 -3.05 23.5 -3.1 15.65 -24.6 15.5 -24.9 15.45 -25.1
Q 15.3 -25.45 14.95 -25.45
L 14.9 -25.45 13.4 -25.2
Q 13.2 -27.3 12.15 -28.65 11.15 -30.05 9.8 -30.05
M 9.35 -29.45
L 9.8 -29.55
Q 11.05 -29.55 11.95 -28.1 12.9 -26.7 12.95 -24.65
L 14.95 -24.95 23.7 -1.2
Q 25.9 4.75 28.95 9 30.45 11.1 31.55 12.05 29.35 13.05 26.85 13.85
L 26.45 14 26.55 14.35 26.55 14.4 26.85 17.7
Q 26.75 19.9 25.95 20.7
L 25.95 20.75 -21.05 29.6 -21.35 28.55 -21.35 28.5 -21.7 26.95 -21.7 26.75 -22.05 24.45 -22.05 24.15 -22.2 23.05
Q -22.75 17.5 -31.5 -14.85
L -30.45 -17.2 -30.1 -17.25 -30.45 -17.95 -27.5 -18.4 -27.5 -18.75
Q -27.5 -20.7 -26.7 -22.2 -25.9 -23.7 -24.75 -23.95
L -24.75 -24 -24.3 -24.05
Q -23.1 -24.05 -22.2 -22.7 -21.3 -21.35 -21.15 -19.4
L -15.7 -20.2 -15.75 -20.5
Q -15.75 -22.5 -14.95 -24 -14.15 -25.5 -12.95 -25.75
L -12.55 -25.8
Q -11.3 -25.8 -10.45 -24.45 -9.55 -23.15 -9.4 -21.2
L -4.25 -22 -4.3 -22.35
Q -4.3 -24.3 -3.5 -25.8 -2.65 -27.3 -1.5 -27.55
L -1.55 -27.6 -1.1 -27.65
Q 0.15 -27.65 1.05 -26.3 1.95 -24.95 2.05 -22.95
L 8.6 -23.95 8.55 -24.05 8.45 -24 7.7 -23.9 7.65 -23.9 6.6 -23.75 6.6 -24.25
Q 6.6 -26.2 7.4 -27.7 8.2 -29.2 9.35 -29.45
M -11.55 -22.9
Q -11.9 -23.5 -12.45 -23.55 -13.55 -23.4 -13.85 -21.7
L -13.8 -20.5 -11.25 -20.9 -11.2 -21.4
Q -11.2 -22.25 -11.55 -22.9
M -12.45 -23.05
Q -12.15 -22.95 -11.95 -22.5 -11.7 -22.05 -11.7 -21.4
L -11.7 -21.35 -13.35 -21.1 -13.35 -21.65
Q -13.3 -22.15 -13 -22.55 -12.7 -22.95 -12.45 -23.05
M 0.2 -22.65
L 0.25 -23.2
Q 0.25 -24.05 -0.1 -24.7 -0.45 -25.3 -1 -25.4 -1.5 -25.35 -1.9 -24.75 -2.3 -24.2 -2.4 -23.55
L -2.4 -23 -2.3 -22.3 0.2 -22.65
M -0.25 -23.2
L -0.25 -23.1 -1.9 -22.85 -1.9 -23.5
Q -1.6 -24.7 -1 -24.85 -0.7 -24.8 -0.45 -24.35 -0.25 -23.85 -0.25 -23.2
M -23 -19.1
L -22.95 -19.6
Q -22.95 -20.45 -23.3 -21.1 -23.7 -21.7 -24.25 -21.75 -24.7 -21.7 -25.1 -21.1 -25.5 -20.6 -25.6 -19.9
L -25.6 -19.6 -25.65 -19.4 -25.55 -18.7 -23 -19.1
M -25.15 -19.4
L -25.1 -19.6 -25.1 -19.9
Q -24.9 -21.05 -24.2 -21.25 -23.9 -21.2 -23.7 -20.75 -23.45 -20.25 -23.45 -19.6
L -23.45 -19.55 -25.1 -19.3 -25.15 -19.4
M 8.45 -25.1
L 8.45 -24.85 8.55 -24.05 9.9 -24.25 9.95 -24.15 11.1 -24.35 11.1 -24.5 11.15 -25.1
Q 11.15 -25.95 10.75 -26.6 10.4 -27.2 9.85 -27.25 9.4 -27.2 9 -26.6 8.6 -26.05 8.5 -25.4
L 8.45 -25.1
M 9 -25.35
Q 9.2 -26.55 9.9 -26.75 10.2 -26.65 10.4 -26.2 10.65 -25.75 10.65 -25.1
L 10.6 -24.8 10.1 -24.7 9.9 -24.75 9.8 -24.75 9 -24.6 8.95 -24.9 8.95 -25.1 9 -25.35 Z"/>
</g>

<g id="flash0_ai_Illustrator_Symbols_calendar_big_0_Layer0_0_MEMBER_0_MEMBER_2_FILL">
<path fill="#4A492C" stroke="none" d="
M -18.05 26.45
L -19 27.4 4.9 21.95 -18.05 26.45 Z"/>
</g>

<g id="flash0_ai_Illustrator_Symbols_calendar_big_0_Layer0_0_MEMBER_0_MEMBER_3_FILL">
<path fill="#737246" stroke="none" d="
M 26.55 19.6
L 26.75 18.5 7.7 23.05 26.55 19.6 Z"/>
</g>

<g id="flash0_ai_Illustrator_Symbols_calendar_big_0_Layer0_0_MEMBER_1_FILL">
<path fill="#7F91A9" stroke="none" d="
M -22.95 -7.8
L -21.1 -2.45 -14.35 -3.6 -16.35 -8.8 -22.95 -7.8 Z"/>
</g>

<g id="flash0_ai_Illustrator_Symbols_calendar_big_0_Layer0_0_MEMBER_2_FILL">
<path fill="#7F91A9" stroke="none" d="
M -15.25 -9.05
L -13.4 -3.7 -6.65 -4.85 -8.65 -10.05 -15.25 -9.05 Z"/>
</g>

<g id="flash0_ai_Illustrator_Symbols_calendar_big_0_Layer0_0_MEMBER_3_FILL">
<path fill="#7F91A9" stroke="none" d="
M -7.05 -10.15
L -5.2 -4.85 1.55 -6 -0.45 -11.2 -7.05 -10.15 Z"/>
</g>

<g id="flash0_ai_Illustrator_Symbols_calendar_big_0_Layer0_0_MEMBER_4_FILL">
<path fill="#7F91A9" stroke="none" d="
M 0.7 -11.5
L 2.55 -6.15 9.3 -7.35 7.3 -12.5 0.7 -11.5 Z"/>
</g>

<g id="flash0_ai_Illustrator_Symbols_calendar_big_0_Layer0_0_MEMBER_5_FILL">
<path fill="#7F91A9" stroke="none" d="
M 8.7 -12.75
L 10.5 -7.4 17.25 -8.6 15.25 -13.75 8.7 -12.75 Z"/>
</g>

<g id="flash0_ai_Illustrator_Symbols_calendar_big_0_Layer0_0_MEMBER_6_FILL">
<path fill="#7F91A9" stroke="none" d="
M -13.6 -2.15
L -20.2 -1.15 -18.35 4.2 -11.6 3.05 -13.6 -2.15 Z"/>
</g>

<g id="flash0_ai_Illustrator_Symbols_calendar_big_0_Layer0_0_MEMBER_7_FILL">
<path fill="#7F91A9" stroke="none" d="
M -5.9 -3.4
L -12.5 -2.4 -10.65 2.95 -3.9 1.8 -5.9 -3.4 Z"/>
</g>

<g id="flash0_ai_Illustrator_Symbols_calendar_big_0_Layer0_0_MEMBER_8_FILL">
<path fill="#7F91A9" stroke="none" d="
M -4.25 -3.5
L -2.45 1.85 4.3 0.65 2.3 -4.55 -4.25 -3.5 Z"/>
</g>

<g id="flash0_ai_Illustrator_Symbols_calendar_big_0_Layer0_0_MEMBER_9_FILL">
<path fill="#7F91A9" stroke="none" d="
M 12.05 -0.65
L 10.05 -5.85 3.45 -4.85 5.3 0.5 12.05 -0.65 Z"/>
</g>

<g id="flash0_ai_Illustrator_Symbols_calendar_big_0_Layer0_0_MEMBER_10_FILL">
<path fill="#7F91A9" stroke="none" d="
M 11.45 -6.1
L 13.25 -0.75 20.05 -1.9 18.05 -7.1 11.45 -6.1 Z"/>
</g>

<g id="flash0_ai_Illustrator_Symbols_calendar_big_0_Layer0_0_MEMBER_11_FILL">
<path fill="#7F91A9" stroke="none" d="
M -18 5.25
L -16.15 10.55 -9.4 9.4 -11.4 4.2 -18 5.25 Z"/>
</g>

<g id="flash0_ai_Illustrator_Symbols_calendar_big_0_Layer0_0_MEMBER_12_FILL">
<path fill="#CA2027" stroke="none" d="
M -10.3 4
L -8.45 9.3 -1.7 8.15 -3.7 2.95 -10.3 4 Z"/>
</g>

<g id="flash0_ai_Illustrator_Symbols_calendar_big_0_Layer0_0_MEMBER_13_FILL">
<path fill="#7F91A9" stroke="none" d="
M 6.5 7
L 4.5 1.85 -2.1 2.85 -0.25 8.2 6.5 7 Z"/>
</g>

<g id="flash0_ai_Illustrator_Symbols_calendar_big_0_Layer0_0_MEMBER_14_FILL">
<path fill="#7F91A9" stroke="none" d="
M 5.65 1.5
L 7.45 6.85 14.25 5.7 12.25 0.5 5.65 1.5 Z"/>
</g>

<g id="flash0_ai_Illustrator_Symbols_calendar_big_0_Layer0_0_MEMBER_15_FILL">
<path fill="#7F91A9" stroke="none" d="
M 13.65 0.25
L 15.45 5.6 22.2 4.45 20.2 -0.75 13.65 0.25 Z"/>
</g>

<g id="flash0_ai_Illustrator_Symbols_calendar_big_0_Layer0_0_MEMBER_16_FILL">
<path fill="#7F91A9" stroke="none" d="
M -15.8 11.6
L -13.95 16.9 -7.2 15.75 -9.2 10.55 -15.8 11.6 Z"/>
</g>

<g id="flash0_ai_Illustrator_Symbols_calendar_big_0_Layer0_0_MEMBER_17_FILL">
<path fill="#7F91A9" stroke="none" d="
M -8.1 10.35
L -6.25 15.65 0.5 14.5 -1.5 9.3 -8.1 10.35 Z"/>
</g>

<g id="flash0_ai_Illustrator_Symbols_calendar_big_0_Layer0_0_MEMBER_18_FILL">
<path fill="#7F91A9" stroke="none" d="
M 0.1 9.2
L 1.95 14.55 8.7 13.4 6.7 8.2 0.1 9.2 Z"/>
</g>

<g id="flash0_ai_Illustrator_Symbols_calendar_big_0_Layer0_0_MEMBER_19_FILL">
<path fill="#7F91A9" stroke="none" d="
M 7.85 7.9
L 9.65 13.2 16.45 12.05 14.45 6.85 7.85 7.9 Z"/>
</g>

<g id="flash0_ai_Illustrator_Symbols_calendar_big_0_Layer0_0_MEMBER_20_FILL">
<path fill="#7F91A9" stroke="none" d="
M 15.85 6.65
L 17.65 11.95 24.4 10.8 22.4 5.6 15.85 6.65 Z"/>
</g>

<path id="flash0_ai_Illustrator_Symbols_calendar_big_0_Layer0_0_MEMBER_0_MEMBER_0_MEMBER_0_MEMBER_2_1_STROKES" stroke="#4E381B" stroke-width="1" stroke-linejoin="round" stroke-linecap="round" fill="none" d="
M -30.45 -17.95
Q -28.2 -13.35 -25.75 -7.75 -20.85 3.45 -19.95 8.3 -18.5 16.1 -17.35 24.35 20.4 15.95 26.85 13.85 29.35 13.05 31.55 12.05 30.45 11.1 28.95 9 25.9 4.75 23.7 -1.2
L 14.95 -24.95 -30.45 -17.95 Z"/>
</defs>

<g id="calendar_big" transform="matrix( 1, 0, 0, 1, 35.15,35.05) ">
<g transform="matrix( 1, 0, 0, 1, 0,0) ">
<use xlink:href="#flash0_ai_Illustrator_Symbols_calendar_big_0_Layer0_0_MEMBER_0_MEMBER_0_MEMBER_0_MEMBER_0_FILL"/>
</g>

<g transform="matrix( 1, 0, 0, 1, 0,0) ">
<use xlink:href="#flash0_ai_Illustrator_Symbols_calendar_big_0_Layer0_0_MEMBER_0_MEMBER_0_MEMBER_0_MEMBER_1_FILL"/>
</g>

<g transform="matrix( 1, 0, 0, 1, 0,0) ">
<use xlink:href="#flash0_ai_Illustrator_Symbols_calendar_big_0_Layer0_0_MEMBER_0_MEMBER_0_MEMBER_0_MEMBER_2_1_STROKES"/>
</g>

<g transform="matrix( 1, 0, 0, 1, 0,0) ">
<use xlink:href="#flash0_ai_Illustrator_Symbols_calendar_big_0_Layer0_0_MEMBER_0_MEMBER_0_MEMBER_0_MEMBER_3_FILL"/>
</g>

<g transform="matrix( 1, 0, 0, 1, 0,0) ">
<use xlink:href="#flash0_ai_Illustrator_Symbols_calendar_big_0_Layer0_0_MEMBER_0_MEMBER_0_MEMBER_0_MEMBER_4_FILL"/>
</g>

<g transform="matrix( 1, 0, 0, 1, 0,0) ">
<use xlink:href="#flash0_ai_Illustrator_Symbols_calendar_big_0_Layer0_0_MEMBER_0_MEMBER_0_MEMBER_0_MEMBER_5_FILL"/>
</g>

<g transform="matrix( 1, 0, 0, 1, 0,0) ">
<use xlink:href="#flash0_ai_Illustrator_Symbols_calendar_big_0_Layer0_0_MEMBER_0_MEMBER_0_MEMBER_0_MEMBER_7_FILL"/>
</g>

<g transform="matrix( 1, 0, 0, 1, 0,0) ">
<use xlink:href="#flash0_ai_Illustrator_Symbols_calendar_big_0_Layer0_0_MEMBER_0_MEMBER_0_MEMBER_0_MEMBER_8_FILL"/>
</g>

<g transform="matrix( 1, 0, 0, 1, 0,0) ">
<use xlink:href="#flash0_ai_Illustrator_Symbols_calendar_big_0_Layer0_0_MEMBER_0_MEMBER_0_MEMBER_0_MEMBER_9_FILL"/>
</g>

<g transform="matrix( 1, 0, 0, 1, 0,0) ">
<use xlink:href="#flash0_ai_Illustrator_Symbols_calendar_big_0_Layer0_0_MEMBER_0_MEMBER_0_MEMBER_0_MEMBER_10_FILL"/>
</g>

<g transform="matrix( 1, 0, 0, 1, 0,0) ">
<use xlink:href="#flash0_ai_Illustrator_Symbols_calendar_big_0_Layer0_0_MEMBER_0_MEMBER_0_MEMBER_0_MEMBER_11_FILL"/>
</g>

<g transform="matrix( 1, 0, 0, 1, 0,0) ">
<use xlink:href="#flash0_ai_Illustrator_Symbols_calendar_big_0_Layer0_0_MEMBER_0_MEMBER_0_MEMBER_1_FILL"/>
</g>

<g transform="matrix( 1, 0, 0, 1, 0,0) ">
<use xlink:href="#flash0_ai_Illustrator_Symbols_calendar_big_0_Layer0_0_MEMBER_0_MEMBER_0_MEMBER_2_MEMBER_0_FILL"/>
</g>

<g transform="matrix( 1, 0, 0, 1, 0,0) ">
<use xlink:href="#flash0_ai_Illustrator_Symbols_calendar_big_0_Layer0_0_MEMBER_0_MEMBER_0_MEMBER_2_MEMBER_1_MEMBER_0_FILL"/>
</g>

<g transform="matrix( 1, 0, 0, 1, 0,0) ">
<use xlink:href="#flash0_ai_Illustrator_Symbols_calendar_big_0_Layer0_0_MEMBER_0_MEMBER_0_MEMBER_2_MEMBER_1_MEMBER_1_FILL"/>
</g>

<g transform="matrix( 1, 0, 0, 1, 0,0) ">
<use xlink:href="#flash0_ai_Illustrator_Symbols_calendar_big_0_Layer0_0_MEMBER_0_MEMBER_0_MEMBER_2_MEMBER_1_MEMBER_2_MEMBER_0_FILL"/>
</g>

<g transform="matrix( 1, 0, 0, 1, 0,0) ">
<use xlink:href="#flash0_ai_Illustrator_Symbols_calendar_big_0_Layer0_0_MEMBER_0_MEMBER_0_MEMBER_2_MEMBER_2_FILL"/>
</g>

<g transform="matrix( 1, 0, 0, 1, 0,0) ">
<use xlink:href="#flash0_ai_Illustrator_Symbols_calendar_big_0_Layer0_0_MEMBER_0_MEMBER_0_MEMBER_3_MEMBER_0_FILL"/>
</g>

<g transform="matrix( 1, 0, 0, 1, 0,0) ">
<use xlink:href="#flash0_ai_Illustrator_Symbols_calendar_big_0_Layer0_0_MEMBER_0_MEMBER_0_MEMBER_3_MEMBER_1_MEMBER_0_FILL"/>
</g>

<g transform="matrix( 1, 0, 0, 1, 0,0) ">
<use xlink:href="#flash0_ai_Illustrator_Symbols_calendar_big_0_Layer0_0_MEMBER_0_MEMBER_0_MEMBER_3_MEMBER_1_MEMBER_1_FILL"/>
</g>

<g transform="matrix( 1, 0, 0, 1, 0,0) ">
<use xlink:href="#flash0_ai_Illustrator_Symbols_calendar_big_0_Layer0_0_MEMBER_0_MEMBER_0_MEMBER_3_MEMBER_1_MEMBER_2_MEMBER_0_FILL"/>
</g>

<g transform="matrix( 1, 0, 0, 1, 0,0) ">
<use xlink:href="#flash0_ai_Illustrator_Symbols_calendar_big_0_Layer0_0_MEMBER_0_MEMBER_0_MEMBER_3_MEMBER_2_FILL"/>
</g>

<g transform="matrix( 1, 0, 0, 1, 0,0) ">
<use xlink:href="#flash0_ai_Illustrator_Symbols_calendar_big_0_Layer0_0_MEMBER_0_MEMBER_0_MEMBER_4_MEMBER_0_FILL"/>
</g>

<g transform="matrix( 1, 0, 0, 1, 0,0) ">
<use xlink:href="#flash0_ai_Illustrator_Symbols_calendar_big_0_Layer0_0_MEMBER_0_MEMBER_0_MEMBER_4_MEMBER_1_MEMBER_0_FILL"/>
</g>

<g transform="matrix( 1, 0, 0, 1, 0,0) ">
<use xlink:href="#flash0_ai_Illustrator_Symbols_calendar_big_0_Layer0_0_MEMBER_0_MEMBER_0_MEMBER_4_MEMBER_1_MEMBER_1_FILL"/>
</g>

<g transform="matrix( 1, 0, 0, 1, 0,0) ">
<use xlink:href="#flash0_ai_Illustrator_Symbols_calendar_big_0_Layer0_0_MEMBER_0_MEMBER_0_MEMBER_4_MEMBER_1_MEMBER_2_MEMBER_0_FILL"/>
</g>

<g transform="matrix( 1, 0, 0, 1, 0,0) ">
<use xlink:href="#flash0_ai_Illustrator_Symbols_calendar_big_0_Layer0_0_MEMBER_0_MEMBER_0_MEMBER_4_MEMBER_2_FILL"/>
</g>

<g transform="matrix( 1, 0, 0, 1, 0,0) ">
<use xlink:href="#flash0_ai_Illustrator_Symbols_calendar_big_0_Layer0_0_MEMBER_0_MEMBER_0_MEMBER_5_MEMBER_0_FILL"/>
</g>

<g transform="matrix( 1, 0, 0, 1, 0,0) ">
<use xlink:href="#flash0_ai_Illustrator_Symbols_calendar_big_0_Layer0_0_MEMBER_0_MEMBER_0_MEMBER_5_MEMBER_1_MEMBER_0_FILL"/>
</g>

<g transform="matrix( 1, 0, 0, 1, 0,0) ">
<use xlink:href="#flash0_ai_Illustrator_Symbols_calendar_big_0_Layer0_0_MEMBER_0_MEMBER_0_MEMBER_5_MEMBER_1_MEMBER_1_FILL"/>
</g>

<g transform="matrix( 1, 0, 0, 1, 0,0) ">
<use xlink:href="#flash0_ai_Illustrator_Symbols_calendar_big_0_Layer0_0_MEMBER_0_MEMBER_0_MEMBER_5_MEMBER_1_MEMBER_2_MEMBER_0_FILL"/>
</g>

<g transform="matrix( 1, 0, 0, 1, 0,0) ">
<use xlink:href="#flash0_ai_Illustrator_Symbols_calendar_big_0_Layer0_0_MEMBER_0_MEMBER_0_MEMBER_5_MEMBER_2_FILL"/>
</g>

<g transform="matrix( 1, 0, 0, 1, 0,0) ">
<use xlink:href="#flash0_ai_Illustrator_Symbols_calendar_big_0_Layer0_0_MEMBER_0_MEMBER_1_FILL"/>
</g>

<g transform="matrix( 1, 0, 0, 1, 0,0) ">
<use xlink:href="#flash0_ai_Illustrator_Symbols_calendar_big_0_Layer0_0_MEMBER_0_MEMBER_2_FILL"/>
</g>

<g transform="matrix( 1, 0, 0, 1, 0,0) ">
<use xlink:href="#flash0_ai_Illustrator_Symbols_calendar_big_0_Layer0_0_MEMBER_0_MEMBER_3_FILL"/>
</g>

<g transform="matrix( 1, 0, 0, 1, 0,0) ">
<use xlink:href="#flash0_ai_Illustrator_Symbols_calendar_big_0_Layer0_0_MEMBER_1_FILL"/>
</g>

<g transform="matrix( 1, 0, 0, 1, 0,0) ">
<use xlink:href="#flash0_ai_Illustrator_Symbols_calendar_big_0_Layer0_0_MEMBER_2_FILL"/>
</g>

<g transform="matrix( 1, 0, 0, 1, 0,0) ">
<use xlink:href="#flash0_ai_Illustrator_Symbols_calendar_big_0_Layer0_0_MEMBER_3_FILL"/>
</g>

<g transform="matrix( 1, 0, 0, 1, 0,0) ">
<use xlink:href="#flash0_ai_Illustrator_Symbols_calendar_big_0_Layer0_0_MEMBER_4_FILL"/>
</g>

<g transform="matrix( 1, 0, 0, 1, 0,0) ">
<use xlink:href="#flash0_ai_Illustrator_Symbols_calendar_big_0_Layer0_0_MEMBER_5_FILL"/>
</g>

<g transform="matrix( 1, 0, 0, 1, 0,0) ">
<use xlink:href="#flash0_ai_Illustrator_Symbols_calendar_big_0_Layer0_0_MEMBER_6_FILL"/>
</g>

<g transform="matrix( 1, 0, 0, 1, 0,0) ">
<use xlink:href="#flash0_ai_Illustrator_Symbols_calendar_big_0_Layer0_0_MEMBER_7_FILL"/>
</g>

<g transform="matrix( 1, 0, 0, 1, 0,0) ">
<use xlink:href="#flash0_ai_Illustrator_Symbols_calendar_big_0_Layer0_0_MEMBER_8_FILL"/>
</g>

<g transform="matrix( 1, 0, 0, 1, 0,0) ">
<use xlink:href="#flash0_ai_Illustrator_Symbols_calendar_big_0_Layer0_0_MEMBER_9_FILL"/>
</g>

<g transform="matrix( 1, 0, 0, 1, 0,0) ">
<use xlink:href="#flash0_ai_Illustrator_Symbols_calendar_big_0_Layer0_0_MEMBER_10_FILL"/>
</g>

<g transform="matrix( 1, 0, 0, 1, 0,0) ">
<use xlink:href="#flash0_ai_Illustrator_Symbols_calendar_big_0_Layer0_0_MEMBER_11_FILL"/>
</g>

<g transform="matrix( 1, 0, 0, 1, 0,0) ">
<use xlink:href="#flash0_ai_Illustrator_Symbols_calendar_big_0_Layer0_0_MEMBER_12_FILL"/>
</g>

<g transform="matrix( 1, 0, 0, 1, 0,0) ">
<use xlink:href="#flash0_ai_Illustrator_Symbols_calendar_big_0_Layer0_0_MEMBER_13_FILL"/>
</g>

<g transform="matrix( 1, 0, 0, 1, 0,0) ">
<use xlink:href="#flash0_ai_Illustrator_Symbols_calendar_big_0_Layer0_0_MEMBER_14_FILL"/>
</g>

<g transform="matrix( 1, 0, 0, 1, 0,0) ">
<use xlink:href="#flash0_ai_Illustrator_Symbols_calendar_big_0_Layer0_0_MEMBER_15_FILL"/>
</g>

<g transform="matrix( 1, 0, 0, 1, 0,0) ">
<use xlink:href="#flash0_ai_Illustrator_Symbols_calendar_big_0_Layer0_0_MEMBER_16_FILL"/>
</g>

<g transform="matrix( 1, 0, 0, 1, 0,0) ">
<use xlink:href="#flash0_ai_Illustrator_Symbols_calendar_big_0_Layer0_0_MEMBER_17_FILL"/>
</g>

<g transform="matrix( 1, 0, 0, 1, 0,0) ">
<use xlink:href="#flash0_ai_Illustrator_Symbols_calendar_big_0_Layer0_0_MEMBER_18_FILL"/>
</g>

<g transform="matrix( 1, 0, 0, 1, 0,0) ">
<use xlink:href="#flash0_ai_Illustrator_Symbols_calendar_big_0_Layer0_0_MEMBER_19_FILL"/>
</g>

<g transform="matrix( 1, 0, 0, 1, 0,0) ">
<use xlink:href="#flash0_ai_Illustrator_Symbols_calendar_big_0_Layer0_0_MEMBER_20_FILL"/>
</g>
</g>
</svg>
