<?xml version="1.0" encoding="utf-8"?>
<!-- Generator: Adobe Illustrator 18.0.0, SVG Export Plug-In . SVG Version: 6.00 Build 0)  -->
<!DOCTYPE svg PUBLIC "-//W3C//DTD SVG 1.1//EN" "http://www.w3.org/Graphics/SVG/1.1/DTD/svg11.dtd">
<svg version="1.1" id="subscription" xmlns="http://www.w3.org/2000/svg" xmlns:xlink="http://www.w3.org/1999/xlink" x="0px"
	 y="0px" viewBox="0 0 62 64.5" enable-background="new 0 0 62 64.5" xml:space="preserve">
<symbol  id="exclusive_x5F_booster_x5F_books_x5F_big" viewBox="-29.1 -28.9 58.2 57.9">
	<g>
		<g>
			<polygon fill="#49B0AB" points="17.4,-25.3 28.5,15.5 28.6,14.3 17.5,-26.5 			"/>
			<polygon fill="#28635D" points="17.4,-25.3 28.5,15.5 24.3,16.2 13,-24.9 			"/>
		</g>
		<path fill="#F5CC91" d="M14.7-16l12.1,39.1c-0.4-4.2,0.7-7.6,0.7-7.6l-11.7-40L14.7-16z"/>
		<g>
			<g>
				<g>
					<path fill="#568AA2" d="M-9.5,28.4L-9.5,28.4C-9.5,28.4-9.5,28.4-9.5,28.4z"/>
					<path fill="#4A9AAF" d="M26.2,24.5c-11.1,1.3-34.9,3.7-35.7,3.9l-18.7-39.3l0.7-3.5c13.9-0.7,27.8-1.8,41.7-4.2L26.2,24.5z"/>
					<path fill="#568AA2" d="M-27.5-14.4l1.2-6.2c0,0,31.4-3.2,42.4-4.7l-1.9,6.8C0.3-16.2-13.6-15-27.5-14.4z"/>
				</g>
				<path fill="#568AA2" d="M26.2,24.5c-4.7,0.6-6.5,0.8-8.3,1C13.2,7.7,6.1-5.3-24.5-3.2c-0.7-1.4-3.7-7.6-3.7-7.6l6.9-1
					c0,0,25.5-3.7,36.5-5.2L26.2,24.5z"/>
				<g>
					<path fill="#704F1F" d="M14.7-16.1l-42.3,5l1.4-7.9c0,0,34.1-4.7,42.1-5.7C15.8-24.6,16.3-17.5,14.7-16.1z"/>
					<path fill="#8C6837" d="M14.7-16.8c0,0-0.7,0.2-1,0.2C9.9-16.3-28-11.6-28-11.6l1.9-7.2c0,0,35-4.7,41.9-5.6
						C15.8-24.4,15.5-18.4,14.7-16.8z"/>
					<path fill="#AB854F" d="M14.7-17.6c-8.3,0.9-34.5,4-34.5,4l-1.3-0.8l-6,0.6l1.4-4.5c0,0,38.1-5,40.6-5.4c0.2,0,0.5-0.1,0.7-0.1
						L14.7-17.6z"/>
					<path fill="#D1A869" d="M13.1-22.2c-2.2,0.4-22.6,2.6-22.6,2.6l-0.9,0.8c0,0,21.1-1.6,23.5-1.8c0,0,0,0,0,0v2.4
						c-6.5,0.6-38,3.8-38,3.8l0.3-0.7L-4-17.6l-0.1-1l-20,1.6l0.7-1.3c0,0,33.4-4.3,36-4.6c0.2,0,0.4,0,0.5,0V-22.2z"/>
					<path fill="#F5CC91" d="M-9.6-19.7l-13.6,2.2l19.8-1.2l2.4,0.8l-22.3,2.8L6-18l-7.8-1.6c0,0-8.2,0.6-7,0.4
						c3.5-0.8,19.4-3.5,18.9-3.4C7.5-22.3-9.6-19.7-9.6-19.7z"/>
				</g>
				<g>
					<path fill="#BCBD5F" d="M-9.5,28.4L-9.5,28.4C-9.5,28.4-9.5,28.4-9.5,28.4z"/>
					<path fill="#5DA5B2" d="M-9.5,28.4c0.5-0.1,10.4-1.1,19.8-2.1C8.3,15.5-0.8,8.8-13.9,8.8c-1.6,0-3.2,0.1-4.8,0.3L-9.5,28.4z"/>
				</g>
				<g>
					<path fill="#CFCF87" d="M-9.5,28.4L-9.5,28.4C-9.5,28.4-9.5,28.4-9.5,28.4z"/>
					<path fill="#6AB5C1" d="M-9.5,28.4c0.3-0.1,5.2-0.6,11.6-1.2c-1.6-4.6-7.7-10.6-17.3-10.8L-9.5,28.4z"/>
				</g>
				<path fill="#568AA2" d="M-28.2-10.6l17.7-1.8c0,0-4.3,4.9-15.6,5.9C-26.6-7.5-28.2-10.6-28.2-10.6z"/>
				<g>
					<path fill="#3D8990" d="M-22.5-20.5l-2.2,8.1c0,0,31.4-4.1,41.6-5.2l0,0.5l-0.8,0.5L28,24.2c-1.2,0.1-3.7,0.5-4.5,0.6
						c0-18.3-13.8-37.2-29.9-37.2c-7.2,0-14.9,0.7-21.2,2.3l-0.6-0.8l1.8-9.7c0,0,35.8-5,43.9-6.1l-0.1,0.9
						C6-24.3-22.5-20.5-22.5-20.5z"/>
					<path fill="#17423D" d="M-28.2-11l1.8-9.6c0,0,35.8-5,43.9-6.1l-0.1,0.9C6-24.3-22.5-20.5-22.5-20.5l-2.2,8.1
						c0,0,31.4-4.1,41.6-5.2l0,0.5l-0.8,0.5l0.2,0.6L-28.2-11z"/>
					<path fill="#28635D" d="M-23.6-19.8l-2.2,8.1c0,0,33.9-4.4,42.7-5.3L16.8-16c-0.4,0.1-0.7,0.2-1.1,0.2
						c-3.7,0.3-43.8,5.2-43.8,5.2l-0.4-0.6l1.9-9.5c35.5-5.2,40.1-5.5,44.2-6.1l-0.1,1.4C6.8-24-23.6-19.8-23.6-19.8z"/>
					<polygon fill="#28635D" points="16.2,-16.6 28,24.3 27.5,24.3 15,-16.5 					"/>
					<polygon fill="#92F0E0" points="16.7,-16.6 28.5,24.3 28,24.3 16.1,-16.6 					"/>
					<path fill="#358284" d="M19.2-2.7l-4-12.9L3.6-14.2C3.6-14.2,15.7-14.6,19.2-2.7z"/>
					<path fill="#92F0E0" d="M-28.2-10.6l43.3-5.2c0,0-23.7,4.3-42.7,6.3C-28.1-10.5-28.2-10.6-28.2-10.6z"/>
					<polygon fill="#49B0AB" points="16.7,-16.6 28.5,24.3 28.5,23 16.8,-17.8 					"/>
					<polygon fill="#28635D" points="-24.1,-11.1 -7.3,28 -7.8,28.1 -25.3,-11 					"/>
				</g>
				<g>
					<path fill="#660000" d="M7.1-19.4L3.8-19c0,0-3.8-7-4.8-9.1c1.9,0.6,4.3,1.4,4.3,1.4l2.3-1.7L7.1-19.4z"/>
					<path fill="#A31313" d="M6-19.7l-2.4,0.3c0,0-3.1-6.1-4.1-8.2c1.9,0.6,4.1,1.5,4.1,1.5l1.7-1.4L6-19.7z"/>
					<path fill="#D35B5B" d="M0.8-26.4l2.9,6.9c0,0-3.1-5.9-4.1-8C1.6-27.2,3.6-26,3.6-26L0.8-26.4z"/>
				</g>
			</g>
		</g>
		<g>
			<g>
				<g>
					<path fill="#E8E92C" d="M-2.2-1c-1.2,0.2-1.8,0.3-3,0.5l-0.3,0l0.1,0.3c0.6,1.6,0.9,2.3,1.5,3.9l0.1,0.2l0.2,0
						C-2.6,3.6-2,3.5-1,3.4l0.6-0.1L-0.5,3c-0.6-1.5-0.9-2.3-1.4-3.9L-2-1.1L-2.2-1z"/>
					<path fill="#2C331E" d="M-3.6,3.5c1.2-0.2,1.8-0.3,2.9-0.5c-0.6-1.5-0.9-2.3-1.4-3.9c-1.2,0.2-1.8,0.3-3,0.5
						C-4.6,1.2-4.3,2-3.6,3.5 M-3.9,4l-0.1-0.3C-4.7,2.1-5,1.4-5.6-0.2l-0.2-0.5l0.6-0.1C-4-1-3.4-1.1-2.2-1.3l0.4-0.1L-1.7-1
						c0.6,1.6,0.9,2.4,1.4,3.9l0.2,0.5l-0.6,0.1L-1,3.6c-1,0.2-1.6,0.2-2.6,0.4L-3.9,4L-3.9,4z"/>
				</g>
			</g>
			<g>
				<g>
					<path fill="#E8E92C" d="M0.5-1.5l0.1,0.3C1.7,2.1,2.4,4,3.4,6.7L3.9,8l3.3-0.5L6.7,6C5.7,3.3,5.1,1.5,4-1.8L3.9-2L0.5-1.5z"/>
					<path fill="#2C331E" d="M4,7.7c1.1-0.2,1.7-0.3,2.8-0.4C5.6,3.8,5,2,3.8-1.8C2.6-1.6,2-1.5,0.8-1.3C2.1,2.4,2.7,4.2,4,7.7
						 M3.7,8.2L3.6,7.9L3.2,6.8c-1-2.8-1.7-4.6-2.8-8L0.2-1.6l0.5-0.1l0.9-0.2l2.1-0.3l0.4-0.1l0.1,0.4C5.3,1.4,5.9,3.2,6.9,6
						l0.4,1.2l0.2,0.5L6.9,7.8L4.1,8.2L3.7,8.2L3.7,8.2z"/>
				</g>
			</g>
			<g>
				<g>
					<path fill="#E8E92C" d="M9.2-2.8c-1,0.1-1.6,0.2-2.7,0.4l-0.3,0l0.1,0.3c1.2,3.6,1.9,5.8,2.8,8.5l1.2,3.7l3-0.4l-1.1-3.4
						c-0.9-2.9-1.6-5.2-2.8-9L9.4-2.9L9.2-2.8z"/>
					<path fill="#2C331E" d="M10.5,9.9C11.5,9.7,12,9.6,13,9.5c-1.5-4.7-2.2-7.1-3.8-12.1c-1,0.1-1.6,0.2-2.7,0.4
						C8.2,2.8,8.9,5.2,10.5,9.9 M10.1,10.4L10,10L8.9,6.5C8,3.8,7.3,1.5,6.1-2.1L5.9-2.6l0.5-0.1c1.1-0.2,1.7-0.3,2.7-0.4l0.4-0.1
						l0.1,0.4c1.2,3.8,1.9,6.1,2.8,9l1,3.1l0.2,0.5L13.1,10c-1,0.1-1.5,0.2-2.6,0.3L10.1,10.4L10.1,10.4z"/>
				</g>
			</g>
			<g>
				<path fill="#F78F08" d="M-11.2,1.6l8,8.2l2-2.1l5.6,5.8l2.3-1.7l4.8,3.5c-0.2,0.3-0.9,1.1-0.9,1.1l0.3,0.1
					c2.2,0.7,3.3,1.1,5.5,1.9l0.5,0.2l-0.2-0.5c-1-2.3-1.5-3.4-2.5-5.6L14,12.1l-0.2,0.3c-0.3,0.4-0.6,0.8-0.9,1.1L6.6,8.9l-2,1.5
					l-5.8-6l-2,2.1l-6.4-6.6L-11.2,1.6z"/>
				<path fill="#2C331E" d="M16.5,18.2c-1-2.3-1.5-3.4-2.5-5.6c-0.4,0.5-0.7,0.9-1,1.3L6.6,9.2l-2,1.6l-5.8-6l-2,2.1l-6.4-6.6
					l-1.3,1.3l7.7,7.9l2-2.1l5.6,5.8l2.3-1.7l5.2,3.8c-0.3,0.3-0.5,0.6-0.9,1C13.2,17,14.3,17.4,16.5,18.2 M17.3,19l-1-0.4
					c-2.2-0.8-3.3-1.2-5.5-1.9l-0.7-0.2l0.4-0.5c0.2-0.2,0.4-0.4,0.5-0.6L6.6,12l-2,1.5l-0.3,0.2l-0.3-0.3L-1.2,8l-1.6,1.7l-0.3,0.3
					l-0.3-0.3l-7.7-7.9l-0.3-0.3l0.3-0.3l1.3-1.3l0.3-0.3l0.3,0.3l6,6.2l1.7-1.7l0.3-0.3l0.3,0.3l5.5,5.7l1.7-1.3l0.3-0.2l0.3,0.2
					l6,4.4c0.2-0.3,0.5-0.6,0.7-0.9l0.5-0.6l0.3,0.7c1,2.2,1.5,3.4,2.5,5.6L17.3,19L17.3,19z"/>
			</g>
		</g>
		<path fill="#358284" d="M-25.9-11.6c0,0-1.3,0.6-1.5-0.1c-0.3-0.7,0.7-7.8,1.9-8.5c0.8-0.4,1.4-0.4,1.9,0.3L-25.9-11.6z"/>
		<path fill="#17423D" d="M-25.1-19.5c-1,0.5-1.8,6.6-1.6,7.2c0.2,0.4,0.7,0.3,1,0.2l-0.2,0.6c0,0-1.3,0.6-1.5-0.1
			c-0.3-0.7,0.7-7.8,1.9-8.5c0.8-0.4,1.4-0.4,1.9,0.3l-0.1,0.3C-24.1-19.9-24.5-19.8-25.1-19.5z"/>
		<g>
			<path fill="#483115" d="M-9.5,28.4L-9.5,28.4c0.1,0,0.3-0.1,0.6-0.1c2.4-0.3,10.9-1.1,19.2-2c0,0,0,0,0,0
				c2.5-0.3,5.1-0.5,7.5-0.8c0,0,0,0,0,0.1c1.4-0.2,2.9-0.3,5.7-0.7c0,0,0,0,0,0c0.1,0,0.1,0,0.2,0c0.7-0.1,1.5-0.2,2.4-0.3
				c0,0,0,0,0.1,0l0,0l0,0c0.5-0.1,0.9-0.1,1.3-0.2l0,0l0.5-0.1h0.4l0.1-1.2L27,17.7c0.2-1,0.3-1.7,0.4-2l1.1-0.2l0.1-1.2l-11-40.8
				l-0.1,1.2l0.1-1.4c-0.3,0-0.6,0.1-0.9,0.1c-2,0.3-4.5,0.5-10.5,1.3l-0.5-3.2l-2.3,1.7c0,0-2.4-0.7-4.3-1.4
				c0.4,0.7,1.1,2.1,1.9,3.6c-6.2,0.8-14.9,2.1-27.5,3.9l-1.9,9.5l0.4,0.6l0,0c0,0,0.1,0,0.2,0v0l-0.2,0l0,0c0,0,1.6,3,2.1,4.1
				c0,0,0,0,0,0l7.4,15.5h0l3.4,7.2h0l3.7,7.8L-9.5,28.4C-9.5,28.4-9.5,28.4-9.5,28.4C-9.5,28.4-9.5,28.4-9.5,28.4 M-9.5,28.9
				c-0.2,0-0.5-0.2-0.5-0.4l0,0c0,0,0,0,0,0l-2-4.2l-3.7-7.8l-3.4-7.2c0,0,0,0,0,0l-7.3-15.4c0,0-0.1-0.1-0.1-0.1
				c-0.5-1-1.9-3.7-2.1-4l-0.4-0.5c-0.1-0.1-0.1-0.3-0.1-0.4l1.9-9.5c0-0.2,0.2-0.4,0.4-0.4C-16-22.7-7-24,0.1-24.9
				c-0.7-1.4-1.3-2.4-1.5-3c-0.1-0.2-0.1-0.4,0.1-0.5c0.1-0.1,0.2-0.2,0.4-0.2c0.1,0,0.1,0,0.2,0c1.5,0.5,3.4,1.1,4,1.3l2.1-1.5
				c0.1-0.1,0.2-0.1,0.3-0.1c0.1,0,0.1,0,0.2,0c0.2,0.1,0.3,0.2,0.3,0.4l0.5,2.7c3.7-0.5,6-0.8,7.7-1c0.9-0.1,1.6-0.2,2.3-0.3
				l0.4-0.1l0.5-0.1c0,0,0,0,0.1,0c0.1,0,0.3,0,0.3,0.1C18-27,18-26.8,18-26.7l0,0.1l11,40.8c0,0.1,0,0.1,0,0.2L29,15.6
				c0,0.2-0.2,0.4-0.4,0.5l-0.7,0.1c-0.1,0.3-0.2,0.9-0.3,1.5l1.5,5.2c0,0.1,0,0.1,0,0.2L29,24.3c0,0.3-0.2,0.5-0.5,0.5H28l-0.5,0.1
				c0,0,0,0-0.1,0c0,0,0,0,0,0c-0.3,0-0.7,0.1-1,0.1c-0.1,0-0.1,0.1-0.2,0.1l-0.1,0c-0.9,0.1-1.7,0.2-2.4,0.3l-0.1,0l-0.1,0
				c0,0,0,0-0.1,0c0,0,0,0,0,0c-2.5,0.3-3.9,0.5-5.1,0.6L17.9,26c0,0,0,0-0.1,0c-0.1,0-0.1,0-0.2,0c-2.3,0.3-4.7,0.5-7.1,0.8
				c-0.1,0-0.1,0.1-0.2,0.1C6.7,27.2,3,27.6-0.3,27.9c-4,0.4-7.2,0.7-8.5,0.9c-0.2,0-0.4,0-0.5,0.1C-9.4,28.9-9.4,28.9-9.5,28.9
				L-9.5,28.9z"/>
		</g>
	</g>
	<g>
		<linearGradient id="SVGID_1_" gradientUnits="userSpaceOnUse" x1="7.2496" y1="-11.932" x2="28.6118" y2="-11.932">
			<stop  offset="0" style="stop-color:#42B22F"/>
			<stop  offset="0.7455" style="stop-color:#5BF541"/>
		</linearGradient>
		<path fill="url(#SVGID_1_)" d="M27.9-8.6h-6.6V-2c0,0.4-0.3,0.8-0.8,0.8h-5.1c-0.4,0-0.8-0.3-0.8-0.8v-6.6H8
			c-0.4,0-0.8-0.3-0.8-0.8v-5.1c0-0.4,0.3-0.8,0.8-0.8h6.6v-6.6c0-0.4,0.3-0.8,0.8-0.8h5.1c0.4,0,0.8,0.3,0.8,0.8v6.6h6.6
			c0.4,0,0.8,0.3,0.8,0.8v5.1C28.6-8.9,28.3-8.6,27.9-8.6z"/>
		<path fill="#2C8915" d="M27.9-14.5h-7.3v-6.6c0-0.4-0.3-0.8-0.8-0.8h-3.6c-0.4,0-0.8,0.3-0.8,0.8v6.6H8c-0.4,0-0.8,0.3-0.8,0.8
			v-0.8c0-0.4,0.3-0.8,0.8-0.8h6.6v-6.6c0-0.4,0.3-0.8,0.8-0.8h5.1c0.4,0,0.8,0.3,0.8,0.8v6.6h6.6c0.4,0,0.8,0.3,0.8,0.8v0.8
			C28.6-14.2,28.3-14.5,27.9-14.5z"/>
		<linearGradient id="SVGID_2_" gradientUnits="userSpaceOnUse" x1="8.0241" y1="-8.7305" x2="27.8438" y2="-8.7305">
			<stop  offset="0.3152" style="stop-color:#FFFFFF;stop-opacity:0.58"/>
			<stop  offset="1" style="stop-color:#FFFFFF;stop-opacity:0"/>
		</linearGradient>
		<path fill="url(#SVGID_2_)" d="M27.8-9.4h-7.3v6.1c0,0.7-1.3,1-2.6,1c-1.3,0-2.6-0.3-2.6-1v-6.1H8c0.4-2.9,3-5.8,9.9-5.8
			C24.8-15.1,27.4-12.3,27.8-9.4z"/>
		<linearGradient id="SVGID_3_" gradientUnits="userSpaceOnUse" x1="18.9091" y1="-4.8657" x2="20.5613" y2="-4.8657">
			<stop  offset="0.3152" style="stop-color:#FFFFFF;stop-opacity:0.58"/>
			<stop  offset="1" style="stop-color:#FFFFFF;stop-opacity:0"/>
		</linearGradient>
		<path fill="url(#SVGID_3_)" d="M20.4-7.8c-0.4,0-0.7,1.3-1.1,3c-0.3,1.6-0.6,2.9-0.2,3c0.4,0,0.7-1.3,1-3
			C20.5-6.5,20.8-7.8,20.4-7.8z"/>
		<linearGradient id="SVGID_4_" gradientUnits="userSpaceOnUse" x1="25.7509" y1="-10.763" x2="27.6793" y2="-10.763">
			<stop  offset="0.3152" style="stop-color:#FFFFFF;stop-opacity:0.58"/>
			<stop  offset="1" style="stop-color:#FFFFFF;stop-opacity:0"/>
		</linearGradient>
		<path fill="url(#SVGID_4_)" d="M27.6-12.8c-0.2-0.1-0.7,0.5-1.3,1.8c-0.6,1.4-0.7,2.1-0.4,2.2c0.2,0.1,0.7-0.5,1.3-1.9
			C27.7-12,27.8-12.7,27.6-12.8z"/>
		<g>
			<path fill="#4D3617" d="M20.5-1.3c0.4,0,0.8-0.3,0.8-0.8v-6.6h6.6c0.4,0,0.8-0.3,0.8-0.8v-5.1c0-0.4-0.3-0.8-0.8-0.8h-6.6v-6.6
				c0-0.4-0.3-0.8-0.8-0.8h-5.1c-0.4,0-0.8,0.3-0.8,0.8v6.6H8c-0.4,0-0.8,0.3-0.8,0.8v5.1c0,0.4,0.3,0.8,0.8,0.8h6.6V-2
				c0,0.4,0.3,0.8,0.8,0.8H20.5 M20.5-0.8h-5.1c-0.7,0-1.3-0.6-1.3-1.3v-6.1H8c-0.7,0-1.3-0.6-1.3-1.3v-5.1c0-0.7,0.6-1.3,1.3-1.3
				h6.1v-6.1c0-0.7,0.6-1.3,1.3-1.3h5.1c0.7,0,1.3,0.6,1.3,1.3v6.1h6.1c0.7,0,1.3,0.6,1.3,1.3v5.1c0,0.7-0.6,1.3-1.3,1.3h-6.1V-2
				C21.8-1.3,21.2-0.8,20.5-0.8L20.5-0.8z"/>
		</g>
	</g>
</symbol>
<use xlink:href="#exclusive_x5F_booster_x5F_books_x5F_big"  width="58.2" height="57.9" x="-29.1" y="-28.9" transform="matrix(1 0 0 -1 30.4855 33.0706)" overflow="visible"/>
</svg>
