<?xml version="1.0" encoding="utf-8"?>
<!-- Generator: Adobe Illustrator 22.1.0, SVG Export Plug-In . SVG Version: 6.00 Build 0)  -->
<svg version="1.1" id="Ebene_1" xmlns="http://www.w3.org/2000/svg" xmlns:xlink="http://www.w3.org/1999/xlink" x="0px" y="0px"
	 viewBox="0 0 800 600" style="enable-background:new 0 0 800 600;" xml:space="preserve">
<style type="text/css">
	.st0{fill:url(#SVGID_1_);}
	.st1{fill:url(#SVGID_2_);}
	.st2{fill:url(#SVGID_3_);}
	.st3{fill:url(#SVGID_4_);}
	.st4{fill:url(#SVGID_5_);}
	.st5{fill:url(#SVGID_6_);}
	.st6{fill:url(#SVGID_7_);}
	.st7{fill:url(#SVGID_8_);}
	.st8{fill:url(#SVGID_9_);}
	.st9{fill:url(#SVGID_10_);}
	.st10{fill:url(#SVGID_11_);}
	.st11{fill:url(#SVGID_12_);}
	.st12{fill:url(#SVGID_13_);}
	.st13{fill:url(#SVGID_14_);}
	.st14{fill:url(#SVGID_15_);}
	.st15{fill:url(#SVGID_16_);}
	.st16{fill:url(#SVGID_17_);}
	.st17{fill:url(#SVGID_18_);}
	.st18{fill:url(#SVGID_19_);}
	.st19{fill:url(#SVGID_20_);}
	.st20{fill:url(#SVGID_21_);}
	.st21{fill:url(#SVGID_22_);}
	.st22{fill:url(#SVGID_23_);}
	.st23{fill:url(#SVGID_24_);}
	.st24{fill:url(#SVGID_25_);}
	.st25{fill:url(#SVGID_26_);}
	.st26{fill:url(#SVGID_27_);}
	.st27{fill:url(#SVGID_28_);}
	.st28{fill:url(#SVGID_29_);}
	.st29{fill:url(#SVGID_30_);}
	.st30{fill:url(#SVGID_31_);}
	.st31{fill:url(#SVGID_32_);}
	.st32{fill:url(#SVGID_33_);}
	.st33{fill:url(#SVGID_34_);}
	.st34{fill:url(#SVGID_35_);}
	.st35{fill:url(#SVGID_36_);}
	.st36{fill:url(#SVGID_37_);}
	.st37{fill:url(#SVGID_38_);}
	.st38{fill:url(#SVGID_39_);}
	.st39{fill:url(#SVGID_40_);}
	.st40{fill:url(#SVGID_41_);}
	.st41{fill:url(#SVGID_42_);}
	.st42{fill:url(#SVGID_43_);}
	.st43{fill:url(#SVGID_44_);}
	.st44{fill:url(#SVGID_45_);}
	.st45{fill:url(#SVGID_46_);}
	.st46{fill:url(#SVGID_47_);}
	.st47{fill:url(#SVGID_48_);}
	.st48{fill:url(#SVGID_49_);}
	.st49{fill:url(#SVGID_50_);}
</style>
<g id="texture_12_">
	<g id="Holzmas._trans_white_18_">
		<linearGradient id="SVGID_1_" gradientUnits="userSpaceOnUse" x1="492.22183" y1="135.10475" x2="657.38879" y2="135.10475">
			<stop  offset="0" style="stop-color:#FFFFFF;stop-opacity:0.15"/>
			<stop  offset="1" style="stop-color:#FFFFFF;stop-opacity:0.15"/>
		</linearGradient>
		<path class="st0" d="M643.28918,138.21704c8.9057-0.7507,14.10059-1.68176,14.09961-2.71298
			c-0.00098-2.7388-36.9837-5.14474-82.59619-5.36986c-45.60114-0.21855-82.57175,1.82553-82.57077,4.56331
			c0.0094,2.7516,36.98935,5.15585,82.59048,5.37712c4.0741,0.02051,8.06836,0.02164,11.97815,0.00612
			c-0.39154-0.00443-0.61865-0.00612-0.61865-0.00612S615.95831,139.56514,643.28918,138.21704z"/>
		<linearGradient id="SVGID_2_" gradientUnits="userSpaceOnUse" x1="312.05453" y1="137.36884" x2="786.28925" y2="137.36884">
			<stop  offset="0" style="stop-color:#FFFFFF;stop-opacity:0.15"/>
			<stop  offset="1" style="stop-color:#FFFFFF;stop-opacity:0.15"/>
		</linearGradient>
		<path class="st1" d="M588.7796,148.29965c-103.0462-2.63763-235.30356-4.49648-237.91315-13.9716
			c-2.2323-8.08125,183.23633-9.95436,223.88953-8.80815c40.65692,1.14632,112.09552,1.54841,113.08673,7.17229
			c0.46008,2.59785-21.14655,4.36923-44.55353,5.52486c-27.33087,1.3481-57.11737,1.85759-57.11737,1.85759
			s0.22711,0.00169,0.61865,0.00612c9.72699,0.08191,135.42169,1.00731,136.63361-6.26173
			c1.01843-6.13438-57.19629-10.69169-148.6756-11.6172c-79.53024-0.79272-224.57806,4.13687-261.09622,9.79338
			c8.04865,1.4427,9.48013,2.39256,9.48013,2.39256l35.70706,8.12929c0,0-20.53546-2.53758-46.78491-5.40419
			c32.97214,6.53273,176.99161,14.96237,284.3522,15.48567c104.32751,0.5079,172.37256-8.16191,189.88251-10.68059v-5.60234
			C767.1618,139.40256,688.50177,150.86148,588.7796,148.29965z"/>
		<linearGradient id="SVGID_3_" gradientUnits="userSpaceOnUse" x1="17.28924" y1="120.21966" x2="786.28925" y2="120.21966">
			<stop  offset="0" style="stop-color:#FFFFFF;stop-opacity:0.15"/>
			<stop  offset="1" style="stop-color:#FFFFFF;stop-opacity:0.15"/>
		</linearGradient>
		<path class="st2" d="M176.36864,122.12217c90.49593-2.9015,206.73766-5.99889,316.83789-7.07927
			c196.54648-1.93848,275.48264,10.99487,293.08273,14.48936v-8.89483c-24.54944-1.83607-159.4408-11.35393-293.09204-9.48962
			c-138.34213,1.93124-438.23569,8.1652-475.90796,8.95079v7.02285C27.06883,125.0862,67.79948,118.57285,176.36864,122.12217z"/>
		<linearGradient id="SVGID_4_" gradientUnits="userSpaceOnUse" x1="17.28924" y1="148.23637" x2="786.28925" y2="148.23637">
			<stop  offset="0" style="stop-color:#FFFFFF;stop-opacity:0.15"/>
			<stop  offset="1" style="stop-color:#FFFFFF;stop-opacity:0.15"/>
		</linearGradient>
		<path class="st3" d="M164.59332,146.36569c76.06544,7.40726,237.23535,13.97047,397.47021,15.64055
			c135.54846,1.4102,206.47351-5.29248,224.22571-7.27231v-9.49179c-17.13171,3.77943-90.12756,16.47531-276.98178,10.26956
			c-129.33743-4.29674-272.45563-11.06682-379.06711-16.8195c-50.37978-2.71342-99.10545-4.06551-112.95111-4.41898v6.70595
			C33.71173,140.6964,99.75163,140.05367,164.59332,146.36569z"/>
		<linearGradient id="SVGID_5_" gradientUnits="userSpaceOnUse" x1="17.28924" y1="109.11158" x2="786.28925" y2="109.11158">
			<stop  offset="0" style="stop-color:#FFFFFF;stop-opacity:0.15"/>
			<stop  offset="1" style="stop-color:#FFFFFF;stop-opacity:0.15"/>
		</linearGradient>
		<path class="st4" d="M163.36407,106.91249c-27.84904-0.58308-120.00043-0.14327-145.75238-1.83994l-0.32245,3.49677v1.1324
			c16.73269,0.7142,84.66278,3.2954,161.00323,1.73929c88.06656-1.79405,499.88525-4.46656,572.12543,0.20744
			c20.73163,1.34482,30.93176,1.89465,35.87134,2.11987v-5.26373c-6.4425-0.65665-12.88019-1.29172-19.30768-1.90688
			c-20.81329-1.02342-58.38745-2.11821-124.05658-2.14256C519.0354,104.41258,232.02347,108.36575,163.36407,106.91249z"/>
		<linearGradient id="SVGID_6_" gradientUnits="userSpaceOnUse" x1="17.28924" y1="131.79982" x2="358.83945" y2="131.79982">
			<stop  offset="0" style="stop-color:#FFFFFF;stop-opacity:0.15"/>
			<stop  offset="1" style="stop-color:#FFFFFF;stop-opacity:0.15"/>
		</linearGradient>
		<path class="st5" d="M323.13239,134.38776c0,0-1.43149-0.94986-9.48013-2.39256
			c-11.8382-2.1243-38.00082-5.31628-95.02852-8.12771c-15.11247-0.74571-29.1745-1.31763-42.2551-1.74532
			c-108.56915-3.54932-149.2998,2.96404-159.07939,4.99928v0.81493c18.81428,1.05659,91.59474-6.33197,219.25882,2.13369
			c22.29889,1.47862,51.32642,4.40005,75.50647,7.04279c26.24945,2.86661,46.78491,5.40419,46.78491,5.40419L323.13239,134.38776z"
			/>
		<linearGradient id="SVGID_7_" gradientUnits="userSpaceOnUse" x1="492.22183" y1="318.33267" x2="657.38879" y2="318.33267">
			<stop  offset="0" style="stop-color:#FFFFFF;stop-opacity:0.15"/>
			<stop  offset="1" style="stop-color:#FFFFFF;stop-opacity:0.15"/>
		</linearGradient>
		<path class="st6" d="M643.28918,321.44308c8.9057-0.74899,14.10059-1.68173,14.09961-2.71069
			c-0.00098-2.7395-36.9837-5.14587-82.59619-5.36929c-45.60114-0.22025-82.57175,1.8244-82.57077,4.56387
			c0.0094,2.74933,36.98935,5.15359,82.59048,5.37598c4.0741,0.0188,8.06836,0.02097,11.97815,0.00443
			c-0.39154-0.0033-0.61865-0.00443-0.61865-0.00443S615.95831,322.79291,643.28918,321.44308z"/>
		<linearGradient id="SVGID_8_" gradientUnits="userSpaceOnUse" x1="312.05453" y1="320.59637" x2="786.28925" y2="320.59637">
			<stop  offset="0" style="stop-color:#FFFFFF;stop-opacity:0.15"/>
			<stop  offset="1" style="stop-color:#FFFFFF;stop-opacity:0.15"/>
		</linearGradient>
		<path class="st7" d="M358.83945,325.74481c0,0-20.53546-2.53815-46.78491-5.40475
			c32.97214,6.53329,176.99161,14.96179,284.3522,15.48624c104.32751,0.50778,172.37256-8.1608,189.88251-10.68115v-5.60394
			c-19.12744,3.08798-97.78748,14.54691-197.50964,11.98566c-103.0462-2.63763-235.30356-4.49649-237.91315-13.97058
			c-2.2323-8.08115,183.23633-9.95651,223.88953-8.81021c40.65692,1.14621,112.09552,1.54886,113.08673,7.17389
			c0.46008,2.59784-21.14655,4.36911-44.55353,5.52313c-27.33087,1.34982-57.11737,1.85986-57.11737,1.85986
			s0.22711,0.00113,0.61865,0.00443c9.72699,0.08292,135.42169,1.01013,136.63361-6.26117
			c1.01843-6.13382-57.19629-10.69226-148.6756-11.61719c-79.53024-0.79218-224.57574,4.138-261.09384,9.79279
			c8.04626,1.44385,9.47775,2.39316,9.47775,2.39316L358.83945,325.74481z"/>
		<linearGradient id="SVGID_9_" gradientUnits="userSpaceOnUse" x1="17.28924" y1="303.44672" x2="786.28925" y2="303.44672">
			<stop  offset="0" style="stop-color:#FFFFFF;stop-opacity:0.15"/>
			<stop  offset="1" style="stop-color:#FFFFFF;stop-opacity:0.15"/>
		</linearGradient>
		<path class="st8" d="M176.36864,305.34937c90.49593-2.90094,206.73766-5.99887,316.83789-7.0787
			c196.54648-1.93848,275.48264,10.99533,293.08273,14.48935v-8.89539c-24.54944-1.8356-159.4408-11.35391-293.09204-9.49075
			c-138.34213,1.93292-438.23569,8.16519-475.90796,8.95193v7.02454C27.06883,308.31454,67.79948,301.80005,176.36864,305.34937z"/>
		<linearGradient id="SVGID_10_" gradientUnits="userSpaceOnUse" x1="723.71405" y1="332.47003" x2="786.28925" y2="332.47003">
			<stop  offset="0" style="stop-color:#FFFFFF;stop-opacity:0.15"/>
			<stop  offset="1" style="stop-color:#FFFFFF;stop-opacity:0.15"/>
		</linearGradient>
		<path class="st9" d="M786.28925,328.46979c-7.72565,1.70386-26.81079,5.22009-62.5752,8.00049h62.5752V328.46979z"/>
		<linearGradient id="SVGID_11_" gradientUnits="userSpaceOnUse" x1="17.28924" y1="326.98505" x2="445.58524" y2="326.98505">
			<stop  offset="0" style="stop-color:#FFFFFF;stop-opacity:0.15"/>
			<stop  offset="1" style="stop-color:#FFFFFF;stop-opacity:0.15"/>
		</linearGradient>
		<path class="st10" d="M130.24036,321.91882c-50.37978-2.71286-99.10545-4.06708-112.95111-4.41898v6.70596
			c16.42249-0.28223,82.46239-0.92496,147.30408,5.38809c24.96434,2.42862,59.09572,4.76974,99.34952,6.87637h181.6424
			C334.56232,332.27472,219.58258,326.74057,130.24036,321.91882z"/>
		<linearGradient id="SVGID_12_" gradientUnits="userSpaceOnUse" x1="17.28924" y1="289.21637" x2="786.28925" y2="289.21637">
			<stop  offset="0" style="stop-color:#FFFFFF;stop-opacity:0.15"/>
			<stop  offset="1" style="stop-color:#FFFFFF;stop-opacity:0.15"/>
		</linearGradient>
		<path class="st11" d="M178.29248,294.66821c88.06656-1.79462,499.88525-4.46655,572.12543,0.20801
			c20.73163,1.34311,30.93176,1.89407,35.87134,2.11874v-5.90271c-11.23181-1.03992-47.12567-3.37451-143.36426-3.40985
			c-123.88959-0.04315-410.90152,3.9122-479.56091,2.45728c-59.70737-1.24908-128.99571-7.17615-146.07483-8.7019v11.48999
			C34.02193,293.64368,101.95203,296.22375,178.29248,294.66821z"/>
		<linearGradient id="SVGID_13_" gradientUnits="userSpaceOnUse" x1="17.28924" y1="315.02737" x2="358.83945" y2="315.02737">
			<stop  offset="0" style="stop-color:#FFFFFF;stop-opacity:0.15"/>
			<stop  offset="1" style="stop-color:#FFFFFF;stop-opacity:0.15"/>
		</linearGradient>
		<path class="st12" d="M236.54807,313.29556c22.29889,1.48032,51.32642,4.40231,75.50647,7.04449
			c26.24945,2.86661,46.78491,5.40475,46.78491,5.40475l-35.70706-8.12985c0,0-1.43149-0.94931-9.47775-2.39316
			c-11.83777-2.12314-38.00272-5.31512-95.0309-8.12756c-15.11247-0.74469-29.1745-1.31775-42.2551-1.74487
			c-108.56915-3.54932-149.2998,2.96518-159.07939,5.00098v0.81424C36.10352,312.22015,108.88399,304.8316,236.54807,313.29556z"/>
		<linearGradient id="SVGID_14_" gradientUnits="userSpaceOnUse" x1="17.28924" y1="278.40695" x2="786.28925" y2="278.40695">
			<stop  offset="0" style="stop-color:#FFFFFF;stop-opacity:0.15"/>
			<stop  offset="1" style="stop-color:#FFFFFF;stop-opacity:0.15"/>
		</linearGradient>
		<path class="st13" d="M152.88606,277.31201c83.59261-0.15146,381.11633,4.80963,460.18481,6.33426
			c98.3573,1.88409,157.29395-1.57663,173.21838-2.69748v-8.33231c-17.53058,1.29227-85.81415,5.8175-171.73615,4.91907
			c-70.21344-0.73358-324.35104-2.33344-415.40179-3.8967c-80.06531-1.36646-163.01022-0.16495-181.86208,0.1438v3.41992
			C31.4353,277.26001,82.32378,277.43268,152.88606,277.31201z"/>
		<linearGradient id="SVGID_15_" gradientUnits="userSpaceOnUse" x1="17.28924" y1="263.16492" x2="786.28925" y2="263.16492">
			<stop  offset="0" style="stop-color:#FFFFFF;stop-opacity:0.15"/>
			<stop  offset="1" style="stop-color:#FFFFFF;stop-opacity:0.15"/>
		</linearGradient>
		<path class="st14" d="M346.92053,271.5864c126.31006,1.12854,401.41711-4.05154,439.36871-4.78186v-3.34015
			c-39.58594,0.75012-337.92255,6.27441-442.36368,4.20868c-103.02083-2.03128-296.4274-11.57846-326.63632-13.08981v12.11172
			C45.90664,267.22726,222.42923,270.46457,346.92053,271.5864z"/>
		<linearGradient id="SVGID_16_" gradientUnits="userSpaceOnUse" x1="17.28924" y1="252.20728" x2="786.28925" y2="252.20728">
			<stop  offset="0" style="stop-color:#FFFFFF;stop-opacity:0.15"/>
			<stop  offset="1" style="stop-color:#FFFFFF;stop-opacity:0.15"/>
		</linearGradient>
		<path class="st15" d="M495.08865,254.44276c138.61533,1.91301,266.38931,2.66313,291.20059,2.79805v-9.97746
			c-29.50116,0.02435-202.26056,0.19803-286.72662,0.80212c-87.05698,0.62289-440.60922-0.72917-482.27338-0.89174v2.79364
			C55.8871,250.25945,362.32022,252.59616,495.08865,254.44276z"/>
		<linearGradient id="SVGID_17_" gradientUnits="userSpaceOnUse" x1="17.28924" y1="235.14131" x2="786.28925" y2="235.14131">
			<stop  offset="0" style="stop-color:#FFFFFF;stop-opacity:0.15"/>
			<stop  offset="1" style="stop-color:#FFFFFF;stop-opacity:0.15"/>
		</linearGradient>
		<path class="st16" d="M228.94498,243.76161c88.06656,0.98793,442.25803-0.4227,495.98856-2.38657
			c37.10107-1.35422,54.27399-3.07019,61.35571-4.00183V230.342c-24.27063,1.77907-146.74646,10.33379-240.47302,9.05264
			c-289.9126-3.97758-497.36478-11.95302-528.52698-13.19722v11.66818C39.64303,238.72971,150.12949,242.87756,228.94498,243.76161z
			"/>
		<linearGradient id="SVGID_18_" gradientUnits="userSpaceOnUse" x1="17.28924" y1="226.98355" x2="786.28925" y2="226.98355">
			<stop  offset="0" style="stop-color:#FFFFFF;stop-opacity:0.15"/>
			<stop  offset="1" style="stop-color:#FFFFFF;stop-opacity:0.15"/>
		</linearGradient>
		<path class="st17" d="M209.49562,221.98102c-66.5361-2.79874-170.44029-2.68805-192.20638-2.63107v3.87074
			c10.96798-0.07195,43.95462-0.18535,96.6835,0.52275c65.67434,0.87735,312.42133,10.06381,358.6983,10.84271
			c42.82822,0.72804,278.81979-6.66267,313.61819-7.763v-5.55963c-18.81012,0.60408-97.31158,3.06464-188.25861,5.0396
			C493.55008,228.57458,284.13986,225.12927,209.49562,221.98102z"/>
		<linearGradient id="SVGID_19_" gradientUnits="userSpaceOnUse" x1="187.15164" y1="213.89519" x2="445.07742" y2="213.89519">
			<stop  offset="0" style="stop-color:#FFFFFF;stop-opacity:0.15"/>
			<stop  offset="1" style="stop-color:#FFFFFF;stop-opacity:0.15"/>
		</linearGradient>
		<path class="st18" d="M237.90738,214.61726l3.12405,2.98567c0,0-2.65794-0.02322-7.22206-0.07523
			c8.46159,0.27711,18.15773,0.43097,29.21767,0.39551c33.78738-0.11896,182.05222-0.54099,182.05038-2.23543
			c-0.00375-1.68233-133.29886-5.02092-179.93726-5.52158c-33.7963-0.36617-77.99689-0.93933-77.98853,1.98109
			c0,0.57588,2.56232,1.44984,8.0674,2.34555C217.86897,214.7036,237.90738,214.61726,237.90738,214.61726z"/>
		<linearGradient id="SVGID_20_" gradientUnits="userSpaceOnUse" x1="96.10056" y1="209.8838" x2="786.28925" y2="209.8838">
			<stop  offset="0" style="stop-color:#FFFFFF;stop-opacity:0.15"/>
			<stop  offset="1" style="stop-color:#FFFFFF;stop-opacity:0.15"/>
		</linearGradient>
		<path class="st19" d="M668.21979,212.46703c-99.51007-0.29593-240.27127-7.85715-359.68823-9.79938
			c-113.3951-1.84604-211.95465,1.43942-212.43066,9.03543c-0.01173,0.20857,0.28405,0.41159,0.85003,0.60681
			c10.33017,0.25174,18.65334,0.24063,18.65334,0.24063l90.86726,4.59267c11.46877,0.18806,21.16057,0.31258,27.33784,0.38452
			c4.56412,0.052,7.22206,0.07523,7.22206,0.07523l-3.12405-2.98567c0,0-20.03841,0.08633-42.68834-0.1244
			c-29.50539-0.27327-63.44298-1.05002-63.29514-3.17374c0.25203-3.75179,101.05754-6.38614,175.62392-3.95866
			c94.59622,3.07687,235.29074,6.16542,312.90982,8.21165c66.96552,1.76854,145.51398-3.12117,165.8316-4.49806v-3.38231
			C767.63782,208.79602,701.38763,212.56491,668.21979,212.46703z"/>
		<linearGradient id="SVGID_21_" gradientUnits="userSpaceOnUse" x1="158.50198" y1="216.59523" x2="202.7636" y2="216.59523">
			<stop  offset="0" style="stop-color:#FFFFFF;stop-opacity:0.15"/>
			<stop  offset="1" style="stop-color:#FFFFFF;stop-opacity:0.15"/>
		</linearGradient>
		<path class="st20" d="M202.7636,217.08177c-7.18967-0.13222-23.89235-0.45522-44.26161-0.97308
			C173.55765,216.53082,189.19478,216.84895,202.7636,217.08177z"/>
		<linearGradient id="SVGID_22_" gradientUnits="userSpaceOnUse" x1="27.63857" y1="206.66641" x2="786.28925" y2="206.66641">
			<stop  offset="0" style="stop-color:#FFFFFF;stop-opacity:0.15"/>
			<stop  offset="1" style="stop-color:#FFFFFF;stop-opacity:0.15"/>
		</linearGradient>
		<path class="st21" d="M96.95093,212.30989c-17.47004-0.42543-40.67471-1.60313-39.07145-4.8588
			c2.5477-5.18837,87.54892-7.35968,169.15144-7.70273c81.60109-0.34409,351.71088,4.14072,444.26031,4.95837
			c50.96973,0.45465,111.18866-0.78445,114.99799-1.22643v-3.89125l-0.00848-3.40384
			c-62.71124,4.27849-454.96133,1.05988-567.21301,2.04181c-123.92291,1.08049-202.99181,4.94286-190.04634,10.56401
			c8.35125,3.6284,79.80768,6.05246,129.48058,7.31764c20.36926,0.51787,37.07195,0.84087,44.26161,0.97308
			c2.45705,0.0443,3.81068,0.06583,3.81068,0.06583l-0.10275-0.00441l-90.86726-4.59267
			C115.60427,212.55052,107.2811,212.56163,96.95093,212.30989z"/>
		<linearGradient id="SVGID_23_" gradientUnits="userSpaceOnUse" x1="17.28924" y1="187.14731" x2="786.28925" y2="187.14731">
			<stop  offset="0" style="stop-color:#FFFFFF;stop-opacity:0.15"/>
			<stop  offset="1" style="stop-color:#FFFFFF;stop-opacity:0.15"/>
		</linearGradient>
		<path class="st22" d="M178.10004,192.58504c88.05481-1.79189,499.88525-4.46657,572.11792,0.214
			c21.02264,1.36148,31.21344,1.90688,36.07129,2.1243v-5.89317c-11.00842-1.03009-46.76147-3.39287-143.55383-3.42935
			c-123.89429-0.04645-410.90863,3.91278-479.57043,2.46452c-59.46743-1.25134-128.45682-7.13965-145.87575-8.69406v11.48499
			C34.36462,191.5826,102.06228,194.13615,178.10004,192.58504z"/>
		<linearGradient id="SVGID_24_" gradientUnits="userSpaceOnUse" x1="17.28924" y1="176.31851" x2="786.28925" y2="176.31851">
			<stop  offset="0" style="stop-color:#FFFFFF;stop-opacity:0.15"/>
			<stop  offset="1" style="stop-color:#FFFFFF;stop-opacity:0.15"/>
		</linearGradient>
		<path class="st23" d="M152.68468,175.2267c83.59261-0.14774,381.11871,4.8206,460.18622,6.33627
			c98.79468,1.89861,157.80359-1.60313,173.41833-2.70845v-8.33446c-17.1983,1.27174-85.67139,5.83618-171.9408,4.93674
			c-70.20496-0.73518-324.33929-2.34227-415.39188-3.89568c-79.78423-1.36475-162.41789-0.17979-181.66733,0.13506v3.42593
			C31.70522,175.18069,82.44394,175.35393,152.68468,175.2267z"/>
		<linearGradient id="SVGID_25_" gradientUnits="userSpaceOnUse" x1="17.28924" y1="161.09024" x2="786.28925" y2="161.09024">
			<stop  offset="0" style="stop-color:#FFFFFF;stop-opacity:0.15"/>
			<stop  offset="1" style="stop-color:#FFFFFF;stop-opacity:0.15"/>
		</linearGradient>
		<path class="st24" d="M346.72009,169.49825c126.53952,1.13579,402.422-4.06107,439.56915-4.778v-3.33961
			c-38.7616,0.73631-337.94138,6.27997-442.56085,4.21425c-102.79645-2.03523-295.59088-11.53427-326.43915-13.0743v12.09735
			C46.5449,165.16335,222.52834,168.38795,346.72009,169.49825z"/>
	</g>
	<g id="Holzmas._trans_white_11_">
		
			<linearGradient id="SVGID_26_" gradientUnits="userSpaceOnUse" x1="487.7117" y1="89.31436" x2="652.87866" y2="89.31436" gradientTransform="matrix(-1 0 0 -1 799.06836 630.78796)">
			<stop  offset="0" style="stop-color:#FFFFFF;stop-opacity:0.15"/>
			<stop  offset="1" style="stop-color:#FFFFFF;stop-opacity:0.15"/>
		</linearGradient>
		<path class="st25" d="M160.28931,538.36133c-8.9057,0.75067-14.10057,1.6817-14.09961,2.71295
			c0.00096,2.73877,36.9837,5.14471,82.59616,5.36987c45.60114,0.21851,82.57178-1.82556,82.5708-4.56335
			c-0.00943-2.75159-36.98938-5.15582-82.5905-5.37708c-4.07407-0.02051-8.06834-0.02167-11.97813-0.00616
			c0.39151,0.00446,0.61865,0.00616,0.61865,0.00616S187.62015,537.01318,160.28931,538.36133z"/>
		
			<linearGradient id="SVGID_27_" gradientUnits="userSpaceOnUse" x1="307.54443" y1="91.57844" x2="781.77911" y2="91.57844" gradientTransform="matrix(-1 0 0 -1 799.06836 630.78796)">
			<stop  offset="0" style="stop-color:#FFFFFF;stop-opacity:0.15"/>
			<stop  offset="1" style="stop-color:#FFFFFF;stop-opacity:0.15"/>
		</linearGradient>
		<path class="st26" d="M214.7989,528.27869c103.04619,2.63763,235.30351,4.49646,237.91313,13.97162
			c2.2323,8.08124-183.23636,9.95435-223.88954,8.80811c-40.65694-1.1463-112.0955-1.5484-113.08674-7.17224
			c-0.46006-2.5979,21.14654-4.36926,44.55355-5.52484c27.33084-1.34814,57.11737-1.8576,57.11737-1.8576
			s-0.22714-0.00171-0.61865-0.00616c-9.72699-0.08191-135.42169-1.00726-136.63361,6.26178
			c-1.01844,6.13434,57.1963,10.69165,148.67557,11.61719c79.53027,0.79272,224.57809-4.1369,261.09625-9.7934
			c-8.04865-1.44269-9.48013-2.39258-9.48013-2.39258l-35.70709-8.12927c0,0,20.53549,2.5376,46.78491,5.40417
			c-32.97211-6.53271-176.99158-14.96234-284.35217-15.48566c-104.32753-0.50787-172.37259,8.16193-189.88252,10.6806v5.60236
			C36.41667,537.17578,115.07672,525.71686,214.7989,528.27869z"/>
		
			<linearGradient id="SVGID_28_" gradientUnits="userSpaceOnUse" x1="12.77912" y1="74.42927" x2="781.77911" y2="74.42927" gradientTransform="matrix(-1 0 0 -1 799.06836 630.78796)">
			<stop  offset="0" style="stop-color:#FFFFFF;stop-opacity:0.15"/>
			<stop  offset="1" style="stop-color:#FFFFFF;stop-opacity:0.15"/>
		</linearGradient>
		<path class="st27" d="M627.20984,554.45618c-90.49591,2.90149-206.73767,5.99884-316.83789,7.07928
			c-196.54648,1.93848-275.4826-10.99487-293.0827-14.48938v8.89484c24.54946,1.83606,159.44078,11.35388,293.09201,9.48962
			c138.34216-1.93127,438.23569-8.16522,475.90799-8.95081v-7.02283C776.50964,551.49213,735.77899,558.00549,627.20984,554.45618z"
			/>
		
			<linearGradient id="SVGID_29_" gradientUnits="userSpaceOnUse" x1="12.77912" y1="102.44598" x2="781.77911" y2="102.44598" gradientTransform="matrix(-1 0 0 -1 799.06836 630.78796)">
			<stop  offset="0" style="stop-color:#FFFFFF;stop-opacity:0.15"/>
			<stop  offset="1" style="stop-color:#FFFFFF;stop-opacity:0.15"/>
		</linearGradient>
		<path class="st28" d="M638.98517,530.21265c-76.06543-7.40729-237.23535-13.97046-397.47025-15.64056
			c-135.54845-1.41016-206.47351,5.29248-224.22568,7.27234v9.49176c17.13168-3.77942,90.12756-16.47528,276.98178-10.26953
			c129.33743,4.29669,272.45566,11.06677,379.06711,16.81946c50.37976,2.71344,99.10541,4.06555,112.95111,4.41901v-6.70593
			C769.86676,535.88196,703.82684,536.52466,638.98517,530.21265z"/>
		
			<linearGradient id="SVGID_30_" gradientUnits="userSpaceOnUse" x1="12.77912" y1="63.32118" x2="781.77911" y2="63.32118" gradientTransform="matrix(-1 0 0 -1 799.06836 630.78796)">
			<stop  offset="0" style="stop-color:#FFFFFF;stop-opacity:0.15"/>
			<stop  offset="1" style="stop-color:#FFFFFF;stop-opacity:0.15"/>
		</linearGradient>
		<path class="st29" d="M640.21442,569.66583c27.84906,0.58307,120.00043,0.14331,145.75238,1.83997l0.32245-3.49677v-1.13245
			c-16.73267-0.71417-84.66278-3.29535-161.00323-1.73926c-88.06653,1.79407-499.88528,4.46655-572.12543-0.20746
			c-20.73166-1.34479-30.93177-1.89465-35.87135-2.11987v5.26373c6.44247,0.65668,12.88017,1.29175,19.30767,1.90686
			c20.81327,1.02344,58.38746,2.11823,124.05661,2.14258C284.54306,572.16577,571.55499,568.21259,640.21442,569.66583z"/>
		
			<linearGradient id="SVGID_31_" gradientUnits="userSpaceOnUse" x1="12.77912" y1="86.00942" x2="354.32935" y2="86.00942" gradientTransform="matrix(-1 0 0 -1 799.06836 630.78796)">
			<stop  offset="0" style="stop-color:#FFFFFF;stop-opacity:0.15"/>
			<stop  offset="1" style="stop-color:#FFFFFF;stop-opacity:0.15"/>
		</linearGradient>
		<path class="st30" d="M480.44611,542.19055c0,0,1.43149,0.94989,9.48013,2.39258
			c11.83817,2.12433,38.00082,5.31628,95.02847,8.12775c15.11249,0.74567,29.17456,1.31763,42.25513,1.7453
			c108.56915,3.54932,149.2998-2.96405,159.07941-4.99927v-0.81494c-18.81427-1.05658-91.59473,6.33197-219.25885-2.13373
			c-22.29889-1.47858-51.32642-4.40002-75.50647-7.04279c-26.24942-2.86658-46.78491-5.40417-46.78491-5.40417L480.44611,542.19055z
			"/>
		
			<linearGradient id="SVGID_32_" gradientUnits="userSpaceOnUse" x1="487.7117" y1="272.5423" x2="652.87866" y2="272.5423" gradientTransform="matrix(-1 0 0 -1 799.06836 630.78796)">
			<stop  offset="0" style="stop-color:#FFFFFF;stop-opacity:0.15"/>
			<stop  offset="1" style="stop-color:#FFFFFF;stop-opacity:0.15"/>
		</linearGradient>
		<path class="st31" d="M160.28931,355.13522c-8.9057,0.74902-14.10057,1.68176-14.09961,2.71072
			c0.00096,2.73947,36.9837,5.14587,82.59616,5.36929c45.60114,0.22025,82.57178-1.8244,82.5708-4.56387
			c-0.00943-2.74936-36.98938-5.15359-82.5905-5.37598c-4.07407-0.01883-8.06834-0.02097-11.97813-0.00443
			c0.39151,0.0033,0.61865,0.00443,0.61865,0.00443S187.62015,353.78543,160.28931,355.13522z"/>
		
			<linearGradient id="SVGID_33_" gradientUnits="userSpaceOnUse" x1="307.54443" y1="274.80597" x2="781.77911" y2="274.80597" gradientTransform="matrix(-1 0 0 -1 799.06836 630.78796)">
			<stop  offset="0" style="stop-color:#FFFFFF;stop-opacity:0.15"/>
			<stop  offset="1" style="stop-color:#FFFFFF;stop-opacity:0.15"/>
		</linearGradient>
		<path class="st32" d="M444.73901,350.83353c0,0,20.53549,2.53815,46.78491,5.40475
			c-32.97211-6.53329-176.99158-14.96179-284.35217-15.48624c-104.32753-0.50778-172.37259,8.16077-189.88252,10.68115v5.60394
			c19.12743-3.08798,97.78748-14.54694,197.50966-11.98566c103.04619,2.63763,235.30351,4.49649,237.91313,13.97058
			c2.2323,8.08115-183.23636,9.95651-223.88954,8.81018c-40.65694-1.14621-112.0955-1.54886-113.08674-7.17386
			c-0.46006-2.59787,21.14654-4.36911,44.55355-5.52316c27.33084-1.34979,57.11737-1.85983,57.11737-1.85983
			s-0.22714-0.00113-0.61865-0.00443c-9.72699-0.08295-135.42169-1.01016-136.63361,6.26117
			c-1.01844,6.13379,57.1963,10.69223,148.67557,11.61719c79.53027,0.79218,224.57578-4.138,261.09384-9.79282
			c-8.04623-1.44382-9.47772-2.39313-9.47772-2.39313L444.73901,350.83353z"/>
		
			<linearGradient id="SVGID_34_" gradientUnits="userSpaceOnUse" x1="12.77912" y1="257.65631" x2="781.77911" y2="257.65631" gradientTransform="matrix(-1 0 0 -1 799.06836 630.78796)">
			<stop  offset="0" style="stop-color:#FFFFFF;stop-opacity:0.15"/>
			<stop  offset="1" style="stop-color:#FFFFFF;stop-opacity:0.15"/>
		</linearGradient>
		<path class="st33" d="M627.20984,371.22897c-90.49591,2.90094-206.73767,5.99887-316.83789,7.0787
			c-196.54648,1.93848-275.4826-10.99533-293.0827-14.48935v8.89539c24.54946,1.8356,159.44078,11.35391,293.09201,9.49075
			c138.34216-1.93292,438.23569-8.16519,475.90799-8.95193V366.228C776.50964,368.26379,735.77899,374.77829,627.20984,371.22897z"
			/>
		
			<linearGradient id="SVGID_35_" gradientUnits="userSpaceOnUse" x1="719.20398" y1="286.67963" x2="781.77911" y2="286.67963" gradientTransform="matrix(-1 0 0 -1 799.06836 630.78796)">
			<stop  offset="0" style="stop-color:#FFFFFF;stop-opacity:0.15"/>
			<stop  offset="1" style="stop-color:#FFFFFF;stop-opacity:0.15"/>
		</linearGradient>
		<path class="st34" d="M17.28924,348.10855c7.72566-1.70386,26.8108-5.22009,62.57516-8.00049H17.28924V348.10855z"/>
		
			<linearGradient id="SVGID_36_" gradientUnits="userSpaceOnUse" x1="12.77912" y1="281.19467" x2="441.07513" y2="281.19467" gradientTransform="matrix(-1 0 0 -1 799.06836 630.78796)">
			<stop  offset="0" style="stop-color:#FFFFFF;stop-opacity:0.15"/>
			<stop  offset="1" style="stop-color:#FFFFFF;stop-opacity:0.15"/>
		</linearGradient>
		<path class="st35" d="M673.33813,354.65952c50.37976,2.71286,99.10541,4.06708,112.95111,4.41898v-6.70596
			c-16.42249,0.28223-82.4624,0.92496-147.30408-5.38809c-24.96436-2.42862-59.09576-4.76974-99.34955-6.87637H357.99326
			C469.01617,344.30362,583.99591,349.83777,673.33813,354.65952z"/>
		
			<linearGradient id="SVGID_37_" gradientUnits="userSpaceOnUse" x1="12.77912" y1="243.42598" x2="781.77911" y2="243.42598" gradientTransform="matrix(-1 0 0 -1 799.06836 630.78796)">
			<stop  offset="0" style="stop-color:#FFFFFF;stop-opacity:0.15"/>
			<stop  offset="1" style="stop-color:#FFFFFF;stop-opacity:0.15"/>
		</linearGradient>
		<path class="st36" d="M625.28601,381.91013c-88.06653,1.79459-499.88528,4.46655-572.12543-0.20801
			c-20.73166-1.34311-30.93177-1.89407-35.87135-2.11874v5.90271c11.23182,1.03992,47.12566,3.37448,143.36427,3.40985
			c123.88954,0.04315,410.90149-3.9122,479.56091-2.45728c59.70734,1.24908,128.99573,7.17615,146.07483,8.70187v-11.48996
			C769.55658,382.93466,701.62646,380.35458,625.28601,381.91013z"/>
		
			<linearGradient id="SVGID_38_" gradientUnits="userSpaceOnUse" x1="12.77912" y1="269.23697" x2="354.32935" y2="269.23697" gradientTransform="matrix(-1 0 0 -1 799.06836 630.78796)">
			<stop  offset="0" style="stop-color:#FFFFFF;stop-opacity:0.15"/>
			<stop  offset="1" style="stop-color:#FFFFFF;stop-opacity:0.15"/>
		</linearGradient>
		<path class="st37" d="M567.0304,363.28278c-22.29889-1.48032-51.32642-4.40234-75.50647-7.04449
			c-26.24942-2.86661-46.78491-5.40475-46.78491-5.40475l35.70709,8.12985c0,0,1.43149,0.94931,9.47772,2.39313
			c11.8378,2.12317,38.00275,5.31516,95.03088,8.12759c15.11249,0.74469,29.17456,1.31775,42.25513,1.74487
			c108.56915,3.54932,149.2998-2.96518,159.07941-5.00098v-0.81427C767.47498,364.35815,694.69452,371.74673,567.0304,363.28278z"/>
		
			<linearGradient id="SVGID_39_" gradientUnits="userSpaceOnUse" x1="12.77912" y1="232.61655" x2="781.77911" y2="232.61655" gradientTransform="matrix(-1 0 0 -1 799.06836 630.78796)">
			<stop  offset="0" style="stop-color:#FFFFFF;stop-opacity:0.15"/>
			<stop  offset="1" style="stop-color:#FFFFFF;stop-opacity:0.15"/>
		</linearGradient>
		<path class="st38" d="M650.69244,399.2663c-83.59265,0.15149-381.11633-4.8096-460.18481-6.33423
			c-98.3573-1.88409-157.29395,1.57663-173.21838,2.69745v8.33234c17.5306-1.29227,85.81415-5.8175,171.73613-4.91907
			c70.21346,0.73358,324.35101,2.33344,415.40179,3.89667c80.06531,1.36646,163.01019,0.16498,181.86206-0.14377v-3.41992
			C772.14319,399.31833,721.2547,399.14566,650.69244,399.2663z"/>
		
			<linearGradient id="SVGID_40_" gradientUnits="userSpaceOnUse" x1="12.77912" y1="217.37451" x2="781.77911" y2="217.37451" gradientTransform="matrix(-1 0 0 -1 799.06836 630.78796)">
			<stop  offset="0" style="stop-color:#FFFFFF;stop-opacity:0.15"/>
			<stop  offset="1" style="stop-color:#FFFFFF;stop-opacity:0.15"/>
		</linearGradient>
		<path class="st39" d="M456.65796,404.99191c-126.31009-1.12854-401.41711,4.05157-439.36871,4.78186v3.34018
			c39.58591-0.75012,337.92252-6.27441,442.36368-4.20868c103.02078,2.03125,296.4274,11.57843,326.63632,13.08981v-12.11176
			C757.67188,409.35107,581.14923,406.11377,456.65796,404.99191z"/>
		
			<linearGradient id="SVGID_41_" gradientUnits="userSpaceOnUse" x1="12.77912" y1="206.41689" x2="781.77911" y2="206.41689" gradientTransform="matrix(-1 0 0 -1 799.06836 630.78796)">
			<stop  offset="0" style="stop-color:#FFFFFF;stop-opacity:0.15"/>
			<stop  offset="1" style="stop-color:#FFFFFF;stop-opacity:0.15"/>
		</linearGradient>
		<path class="st40" d="M308.48984,422.13556c-138.61533-1.91299-266.38928-2.66312-291.20059-2.79807v9.97748
			c29.50114-0.02435,202.26054-0.19803,286.72662-0.80212c87.05698-0.62289,440.60919,0.72919,482.27338,0.89175v-2.79364
			C747.69141,426.31888,441.25824,423.98218,308.48984,422.13556z"/>
		
			<linearGradient id="SVGID_42_" gradientUnits="userSpaceOnUse" x1="12.77912" y1="189.35092" x2="781.77911" y2="189.35092" gradientTransform="matrix(-1 0 0 -1 799.06836 630.78796)">
			<stop  offset="0" style="stop-color:#FFFFFF;stop-opacity:0.15"/>
			<stop  offset="1" style="stop-color:#FFFFFF;stop-opacity:0.15"/>
		</linearGradient>
		<path class="st41" d="M574.63348,432.81671c-88.06653-0.98792-442.258,0.42273-495.98853,2.38657
			c-37.10107,1.35425-54.27402,3.07022-61.35572,4.00183v7.03122c24.2706-1.77905,146.74643-10.33377,240.47302-9.05264
			c289.9126,3.9776,497.36475,11.95303,528.52698,13.19724v-11.66818C763.93542,437.84863,653.44897,433.70078,574.63348,432.81671z
			"/>
		
			<linearGradient id="SVGID_43_" gradientUnits="userSpaceOnUse" x1="12.77912" y1="181.19316" x2="781.77911" y2="181.19316" gradientTransform="matrix(-1 0 0 -1 799.06836 630.78796)">
			<stop  offset="0" style="stop-color:#FFFFFF;stop-opacity:0.15"/>
			<stop  offset="1" style="stop-color:#FFFFFF;stop-opacity:0.15"/>
		</linearGradient>
		<path class="st42" d="M594.08289,454.59732c66.53607,2.79874,170.44025,2.68805,192.20636,2.63107v-3.87076
			c-10.96796,0.07196-43.95465,0.18536-96.68353-0.52274c-65.67432-0.87735-312.4213-10.06381-358.69827-10.84271
			c-42.82822-0.72806-278.81982,6.66266-313.61819,7.763v5.55963c18.81012-0.6041,97.31157-3.06464,188.25859-5.03961
			C310.02841,448.00375,519.43866,451.44907,594.08289,454.59732z"/>
		
			<linearGradient id="SVGID_44_" gradientUnits="userSpaceOnUse" x1="182.64153" y1="168.10478" x2="440.56729" y2="168.10478" gradientTransform="matrix(-1 0 0 -1 799.06836 630.78796)">
			<stop  offset="0" style="stop-color:#FFFFFF;stop-opacity:0.15"/>
			<stop  offset="1" style="stop-color:#FFFFFF;stop-opacity:0.15"/>
		</linearGradient>
		<path class="st43" d="M565.67108,461.96106l-3.12402-2.98566c0,0,2.65796,0.02322,7.22205,0.07523
			c-8.46161-0.27713-18.15771-0.43097-29.21765-0.39551c-33.78738,0.11896-182.05222,0.54099-182.05038,2.23541
			c0.00375,1.68234,133.29883,5.02094,179.93723,5.52158c33.79633,0.36618,77.99689,0.93933,77.98853-1.98108
			c0-0.5759-2.56232-1.44986-8.06738-2.34555C585.70953,461.87476,565.67108,461.96106,565.67108,461.96106z"/>
		
			<linearGradient id="SVGID_45_" gradientUnits="userSpaceOnUse" x1="91.59044" y1="164.09341" x2="781.77911" y2="164.09341" gradientTransform="matrix(-1 0 0 -1 799.06836 630.78796)">
			<stop  offset="0" style="stop-color:#FFFFFF;stop-opacity:0.15"/>
			<stop  offset="1" style="stop-color:#FFFFFF;stop-opacity:0.15"/>
		</linearGradient>
		<path class="st44" d="M135.3587,464.1113c99.51004,0.29593,240.27124,7.85718,359.6882,9.79938
			c113.39511,1.84604,211.95468-1.43942,212.43069-9.03543c0.01172-0.20856-0.28406-0.41159-0.85004-0.60678
			c-10.3302-0.25177-18.65338-0.24066-18.65338-0.24066l-90.86725-4.59265c-11.46875-0.18808-21.16052-0.31259-27.33783-0.38452
			c-4.56409-0.052-7.22205-0.07523-7.22205-0.07523l3.12402,2.98566c0,0,20.03845-0.0863,42.68835,0.12442
			c29.50537,0.27325,63.44299,1.05002,63.29517,3.17374c-0.25208,3.75177-101.05756,6.38614-175.62393,3.95865
			c-94.59622-3.07687-235.29074-6.16541-312.90985-8.21164c-66.96548-1.76855-145.51393,3.12115-165.83157,4.49805v3.38232
			C35.94066,467.78232,102.19086,464.01343,135.3587,464.1113z"/>
		
			<linearGradient id="SVGID_46_" gradientUnits="userSpaceOnUse" x1="153.99185" y1="170.80484" x2="198.25348" y2="170.80484" gradientTransform="matrix(-1 0 0 -1 799.06836 630.78796)">
			<stop  offset="0" style="stop-color:#FFFFFF;stop-opacity:0.15"/>
			<stop  offset="1" style="stop-color:#FFFFFF;stop-opacity:0.15"/>
		</linearGradient>
		<path class="st45" d="M600.81488,459.49655c7.1897,0.13223,23.89233,0.45523,44.2616,0.97311
			C630.02081,460.04752,614.38373,459.72937,600.81488,459.49655z"/>
		
			<linearGradient id="SVGID_47_" gradientUnits="userSpaceOnUse" x1="23.12844" y1="160.87602" x2="781.77911" y2="160.87602" gradientTransform="matrix(-1 0 0 -1 799.06836 630.78796)">
			<stop  offset="0" style="stop-color:#FFFFFF;stop-opacity:0.15"/>
			<stop  offset="1" style="stop-color:#FFFFFF;stop-opacity:0.15"/>
		</linearGradient>
		<path class="st46" d="M706.62756,464.26846c17.47003,0.42542,40.67468,1.60312,39.07141,4.85876
			c-2.54767,5.18839-87.54889,7.35968-169.15143,7.70273c-81.60107,0.34409-351.71088-4.14072-444.26031-4.95837
			c-50.9697-0.45465-111.18865,0.78445-114.99799,1.22644v3.89124l0.00846,3.40384
			c62.71127-4.27847,454.96133-1.05988,567.21301-2.04181c123.92291-1.08047,202.99182-4.94284,190.04633-10.564
			c-8.35126-3.62839-79.80768-6.05246-129.48059-7.31763c-20.36926-0.51788-37.0719-0.84088-44.2616-0.97311
			c-2.45703-0.04428-3.81067-0.06583-3.81067-0.06583l0.10272,0.00443l90.86725,4.59265
			C687.97418,464.0278,696.29736,464.01669,706.62756,464.26846z"/>
		
			<linearGradient id="SVGID_48_" gradientUnits="userSpaceOnUse" x1="12.77912" y1="141.3569" x2="781.77911" y2="141.3569" gradientTransform="matrix(-1 0 0 -1 799.06836 630.78796)">
			<stop  offset="0" style="stop-color:#FFFFFF;stop-opacity:0.15"/>
			<stop  offset="1" style="stop-color:#FFFFFF;stop-opacity:0.15"/>
		</linearGradient>
		<path class="st47" d="M625.47845,483.99329c-88.05481,1.7919-499.88528,4.46658-572.11792-0.21399
			c-21.02263-1.36148-31.21342-1.90689-36.07129-2.1243v5.89319c11.00841,1.03006,46.76145,3.39285,143.55383,3.42932
			c123.89426,0.04645,410.90863-3.91278,479.57037-2.46451c59.46747,1.25134,128.45685,7.13965,145.87579,8.69406v-11.48499
			C769.21387,484.99573,701.51617,482.44217,625.47845,483.99329z"/>
		
			<linearGradient id="SVGID_49_" gradientUnits="userSpaceOnUse" x1="12.77912" y1="130.52812" x2="781.77911" y2="130.52812" gradientTransform="matrix(-1 0 0 -1 799.06836 630.78796)">
			<stop  offset="0" style="stop-color:#FFFFFF;stop-opacity:0.15"/>
			<stop  offset="1" style="stop-color:#FFFFFF;stop-opacity:0.15"/>
		</linearGradient>
		<path class="st48" d="M650.8938,501.35162c-83.59259,0.14777-381.11871-4.82059-460.18622-6.33627
			c-98.79466-1.89859-157.8036,1.60315-173.41832,2.70847v8.33444c17.1983-1.27173,85.6714-5.83618,171.9408-4.93674
			c70.20499,0.7352,324.33929,2.34229,415.39185,3.89569c79.78424,1.36475,162.41791,0.17978,181.66736-0.13507v-3.42593
			C771.87323,501.39764,721.13452,501.2244,650.8938,501.35162z"/>
		
			<linearGradient id="SVGID_50_" gradientUnits="userSpaceOnUse" x1="12.77912" y1="115.29984" x2="781.77911" y2="115.29984" gradientTransform="matrix(-1 0 0 -1 799.06836 630.78796)">
			<stop  offset="0" style="stop-color:#FFFFFF;stop-opacity:0.15"/>
			<stop  offset="1" style="stop-color:#FFFFFF;stop-opacity:0.15"/>
		</linearGradient>
		<path class="st49" d="M456.85837,507.08008c-126.53952-1.13577-402.422,4.06107-439.56912,4.77802v3.3396
			c38.76162-0.73627,337.94138-6.27997,442.56082-4.21423c102.79648,2.03522,295.59091,11.53424,326.43918,13.07428v-12.09735
			C757.03357,511.41501,581.05017,508.19037,456.85837,507.08008z"/>
	</g>
</g>
</svg>
